<svg width="325" height="110" viewBox="0 0 325 110" fill="none" xmlns="http://www.w3.org/2000/svg">
<path d="M6 100.254L27.669 79.1957C30.5483 76.3977 34.4902 74.9705 38.4934 75.2768L38.8792 75.3063C42.9294 75.6163 46.8969 74.0449 49.6365 71.0457V71.0457C54.4582 65.7672 62.6051 65.2846 68.0163 69.9569L68.6163 70.475C76.1261 76.9594 87.8105 73.8053 91.0373 64.4228L94.9665 52.9977C96.5073 48.5175 99.9544 44.9505 104.379 43.2575L108.873 41.5384C117.039 38.4141 126.201 42.4237 129.447 50.5423L145.178 89.8906C147.707 96.215 153.962 100.245 160.766 99.9342L167.497 99.6263C172.644 99.3909 177.363 96.6907 180.175 92.3722L194.473 70.4089C198.58 64.0992 206.904 62.1014 213.428 65.8595V65.8595C221.007 70.2256 230.693 66.7525 233.772 58.5651L247.999 20.7244C251.184 12.2525 260.896 8.27209 269.111 12.0719L269.764 12.3742C275.749 15.1424 282.846 13.5646 287.093 8.5214V8.5214C290.654 4.2942 296.293 2.43469 301.669 3.71484L319 7.84123" stroke="#00234B" stroke-linecap="round" stroke-linejoin="round" stroke-dasharray="2 4"/>
<g filter="url(#filter0_di_5568_1513)">
<path d="M6 79.0898L11.65 76.2964C19.3964 72.4666 28.7841 75.4796 32.8548 83.1022L37.6957 92.1671C41.7358 99.7325 51.2597 102.416 58.6552 98.0725V98.0725C62.4602 95.8379 67.0524 95.38 71.2237 96.8195L71.476 96.9065C78.795 99.4323 86.8617 96.2355 90.4638 89.3818L100.441 70.3977C102.548 66.388 106.257 63.4594 110.646 62.3387L116.875 60.7479C120.928 59.7132 125.231 60.6176 128.524 63.1961V63.1961C135.653 68.7786 146.148 65.8869 149.412 57.4412L158.185 34.7415C160.607 28.4749 167.259 24.9335 173.81 26.4232V26.4232C178.802 27.5582 184.006 25.7799 187.26 21.8278L198.041 8.73082C200.286 6.0045 203.369 4.09726 206.811 3.30633L208.36 2.95025C215.752 1.25139 223.322 4.97641 226.485 11.8701L235.041 30.5135C237.915 36.7752 245.807 38.8302 251.37 34.7652V34.7652C256.261 31.1909 263.129 32.2935 266.655 37.2192L269.073 40.5969C274.578 48.2856 285.735 49.0292 292.211 42.1389L296.431 37.649C298.283 35.6788 300.604 34.21 303.177 33.3798L319 28.2747" stroke="#5163FF" stroke-width="3" stroke-linecap="round" stroke-linejoin="round"/>
</g>
<defs>
<filter id="filter0_di_5568_1513" x="0.5" y="1.04199" width="324" height="108.612" filterUnits="userSpaceOnUse" color-interpolation-filters="sRGB">
<feFlood flood-opacity="0" result="BackgroundImageFix"/>
<feColorMatrix in="SourceAlpha" type="matrix" values="0 0 0 0 0 0 0 0 0 0 0 0 0 0 0 0 0 0 127 0" result="hardAlpha"/>
<feOffset dy="4"/>
<feGaussianBlur stdDeviation="2"/>
<feComposite in2="hardAlpha" operator="out"/>
<feColorMatrix type="matrix" values="0 0 0 0 0.317647 0 0 0 0 0.388235 0 0 0 0 1 0 0 0 0.52 0"/>
<feBlend mode="normal" in2="BackgroundImageFix" result="effect1_dropShadow_5568_1513"/>
<feBlend mode="normal" in="SourceGraphic" in2="effect1_dropShadow_5568_1513" result="shape"/>
<feColorMatrix in="SourceAlpha" type="matrix" values="0 0 0 0 0 0 0 0 0 0 0 0 0 0 0 0 0 0 127 0" result="hardAlpha"/>
<feOffset dy="1"/>
<feGaussianBlur stdDeviation="0.5"/>
<feComposite in2="hardAlpha" operator="arithmetic" k2="-1" k3="1"/>
<feColorMatrix type="matrix" values="0 0 0 0 0.72 0 0 0 0 0.748966 0 0 0 0 1 0 0 0 1 0"/>
<feBlend mode="normal" in2="shape" result="effect2_innerShadow_5568_1513"/>
</filter>
</defs>
</svg>
