<svg width="325" height="84" viewBox="0 0 325 84" fill="none" xmlns="http://www.w3.org/2000/svg">
<path d="M6 73.7471L27.6153 58.2902C30.5808 56.1695 34.1816 55.1253 37.8216 55.3302L39.4767 55.4234C43.2225 55.6343 46.9134 54.4482 49.8351 52.0946C54.8934 48.0198 61.986 47.6219 67.4683 51.1052L68.932 52.0352C77.0792 57.2117 87.9206 54.0498 92.0076 45.305L94.2941 40.4127C96.2646 36.1964 99.9733 33.0471 104.453 31.7859L111.299 29.8587C118.491 27.8339 126.127 31.0563 129.693 37.6215L144.683 65.2097C147.575 70.5328 153.225 73.7659 159.28 73.5622L168.814 73.2413C173.207 73.0934 177.347 71.1444 180.259 67.8519L194.168 52.1304C198.725 46.9795 206.064 45.3168 212.396 48.0008L214.181 48.7576C221.909 52.0333 230.854 48.7805 234.673 41.3062L247.599 16.008C251.215 8.93036 259.479 5.58015 267.003 8.14118L271.165 9.55807C276.571 11.398 282.547 10.2177 286.848 6.46079L287.143 6.20284C290.784 3.02177 295.668 1.65783 300.431 2.49223L319 5.74562" stroke="#B6B5BB" stroke-linecap="round" stroke-linejoin="round" stroke-dasharray="2 4"/>
<g filter="url(#filter0_di_8708_844)">
<path d="M6 58.1737L14.2154 55.1849C20.9255 52.7438 28.4409 55.0443 32.6348 60.8231L37.5712 67.6251C41.9717 73.6887 49.9905 75.8867 56.8678 72.9146L59.648 71.7131C62.8917 70.3113 66.5083 70.0227 69.9333 70.8924L73.6 71.8235C79.992 73.4467 86.7251 70.9816 90.5581 65.615L100.011 52.3799C102.411 49.0194 106.018 46.717 110.076 45.9544L117.486 44.5622C121.239 43.857 125.122 44.5182 128.431 46.4247C136.3 50.9592 146.366 48.0445 150.589 40.0038L157.018 27.7623C160.231 21.6447 167.008 18.2809 173.824 19.4213L174.376 19.5138C179.165 20.3151 184.059 18.8982 187.68 15.6622L198.06 6.38323C200.309 4.37284 203.081 3.03923 206.055 2.53623L210.482 1.78758C216.878 0.706032 223.294 3.59282 226.726 9.09656L234.061 20.8566C237.74 26.7561 245.369 28.7845 251.492 25.4916C256.677 22.7036 263.082 23.6904 267.187 27.9097L269.685 30.4779C275.384 36.3355 284.582 36.9568 291.016 31.9188L296.496 27.6292C298.313 26.2062 300.417 25.1933 302.663 24.6601L319 20.7815" stroke="#5163FF" stroke-width="3" stroke-linecap="round" stroke-linejoin="round"/>
</g>
<defs>
<filter id="filter0_di_8708_844" x="0.5" y="0.0625" width="324" height="83.666" filterUnits="userSpaceOnUse" color-interpolation-filters="sRGB">
<feFlood flood-opacity="0" result="BackgroundImageFix"/>
<feColorMatrix in="SourceAlpha" type="matrix" values="0 0 0 0 0 0 0 0 0 0 0 0 0 0 0 0 0 0 127 0" result="hardAlpha"/>
<feOffset dy="4"/>
<feGaussianBlur stdDeviation="2"/>
<feComposite in2="hardAlpha" operator="out"/>
<feColorMatrix type="matrix" values="0 0 0 0 0.317647 0 0 0 0 0.388235 0 0 0 0 1 0 0 0 0.52 0"/>
<feBlend mode="normal" in2="BackgroundImageFix" result="effect1_dropShadow_8708_844"/>
<feBlend mode="normal" in="SourceGraphic" in2="effect1_dropShadow_8708_844" result="shape"/>
<feColorMatrix in="SourceAlpha" type="matrix" values="0 0 0 0 0 0 0 0 0 0 0 0 0 0 0 0 0 0 127 0" result="hardAlpha"/>
<feOffset dy="1"/>
<feGaussianBlur stdDeviation="0.5"/>
<feComposite in2="hardAlpha" operator="arithmetic" k2="-1" k3="1"/>
<feColorMatrix type="matrix" values="0 0 0 0 0.72 0 0 0 0 0.748966 0 0 0 0 1 0 0 0 1 0"/>
<feBlend mode="normal" in2="shape" result="effect2_innerShadow_8708_844"/>
</filter>
</defs>
</svg>
