<svg width="112" height="25" viewBox="0 0 112 25" fill="none" xmlns="http://www.w3.org/2000/svg">
<path d="M45.8274 10.8662H42.986C42.905 10.4002 42.7556 9.98743 42.5378 9.62782C42.32 9.26315 42.049 8.95419 41.7249 8.70094C41.4007 8.4477 41.031 8.25776 40.6156 8.13114C40.2054 7.99946 39.7622 7.93361 39.2861 7.93361C38.4403 7.93361 37.6907 8.14634 37.0373 8.57179C36.3839 8.99217 35.8724 9.61009 35.5026 10.4255C35.1329 11.2359 34.948 12.2261 34.948 13.3961C34.948 14.5864 35.1329 15.5892 35.5026 16.4046C35.8774 17.215 36.389 17.8279 37.0373 18.2432C37.6907 18.6535 38.4377 18.8586 39.2785 18.8586C39.7445 18.8586 40.1801 18.7978 40.5852 18.6763C40.9955 18.5496 41.3627 18.3648 41.6869 18.1216C42.0161 17.8785 42.2921 17.5797 42.515 17.2252C42.7429 16.8706 42.8999 16.4654 42.986 16.0096L45.8274 16.0248C45.7211 16.7643 45.4906 17.4581 45.1361 18.1065C44.7866 18.7548 44.3282 19.3271 43.7609 19.8235C43.1937 20.3147 42.5302 20.6997 41.7704 20.9783C41.0107 21.2518 40.1674 21.3885 39.2405 21.3885C37.873 21.3885 36.6524 21.072 35.5786 20.4388C34.5048 19.8057 33.659 18.8915 33.0411 17.6962C32.4232 16.5009 32.1142 15.0675 32.1142 13.3961C32.1142 11.7196 32.4257 10.2863 33.0487 9.096C33.6717 7.90069 34.52 6.98648 35.5938 6.35336C36.6676 5.72025 37.8831 5.4037 39.2405 5.4037C40.1066 5.4037 40.9119 5.52525 41.6565 5.76837C42.401 6.01148 43.0645 6.36856 43.647 6.83959C44.2294 7.30556 44.7081 7.8779 45.0829 8.55659C45.4627 9.23022 45.7109 10.0001 45.8274 10.8662ZM53.3773 21.4037C52.2377 21.4037 51.25 21.153 50.4143 20.6516C49.5786 20.1501 48.9303 19.4487 48.4694 18.5471C48.0136 17.6455 47.7856 16.5921 47.7856 15.3866C47.7856 14.1812 48.0136 13.1251 48.4694 12.2185C48.9303 11.3119 49.5786 10.6079 50.4143 10.1065C51.25 9.60503 52.2377 9.35431 53.3773 9.35431C54.5169 9.35431 55.5045 9.60503 56.3402 10.1065C57.1759 10.6079 57.8217 11.3119 58.2776 12.2185C58.7385 13.1251 58.9689 14.1812 58.9689 15.3866C58.9689 16.5921 58.7385 17.6455 58.2776 18.5471C57.8217 19.4487 57.1759 20.1501 56.3402 20.6516C55.5045 21.153 54.5169 21.4037 53.3773 21.4037ZM53.3925 19.2005C54.0104 19.2005 54.527 19.0308 54.9423 18.6914C55.3577 18.347 55.6666 17.8861 55.8692 17.3087C56.0769 16.7313 56.1807 16.0881 56.1807 15.379C56.1807 14.6649 56.0769 14.0191 55.8692 13.4417C55.6666 12.8592 55.3577 12.3958 54.9423 12.0514C54.527 11.707 54.0104 11.5348 53.3925 11.5348C52.7594 11.5348 52.2326 11.707 51.8122 12.0514C51.3969 12.3958 51.0854 12.8592 50.8778 13.4417C50.6752 14.0191 50.5739 14.6649 50.5739 15.379C50.5739 16.0881 50.6752 16.7313 50.8778 17.3087C51.0854 17.8861 51.3969 18.347 51.8122 18.6914C52.2326 19.0308 52.7594 19.2005 53.3925 19.2005ZM61.3032 21.1758V9.50626H63.9699V11.4512H64.0914C64.3042 10.7776 64.6688 10.2584 65.1854 9.89373C65.7071 9.52399 66.3023 9.33912 66.9708 9.33912C67.1228 9.33912 67.2924 9.34672 67.4798 9.36191C67.6723 9.37204 67.8319 9.38977 67.9585 9.41509V11.945C67.842 11.9045 67.6571 11.869 67.4039 11.8386C67.1557 11.8032 66.9151 11.7855 66.6821 11.7855C66.1807 11.7855 65.7299 11.8944 65.3298 12.1121C64.9347 12.3249 64.6232 12.6212 64.3953 13.001C64.1674 13.3809 64.0534 13.819 64.0534 14.3154V21.1758H61.3032ZM74.4713 21.4037C73.3013 21.4037 72.2909 21.1606 71.44 20.6744C70.5941 20.1831 69.9433 19.4892 69.4874 18.5927C69.0316 17.6911 68.8037 16.63 68.8037 15.4094C68.8037 14.209 69.0316 13.1555 69.4874 12.2489C69.9483 11.3372 70.5916 10.6281 71.4172 10.1216C72.2427 9.61009 73.2127 9.35431 74.3269 9.35431C75.0462 9.35431 75.7249 9.47081 76.363 9.70379C77.0063 9.93171 77.5735 10.2863 78.0648 10.7674C78.5612 11.2486 78.9512 11.8614 79.2348 12.606C79.5185 13.3455 79.6603 14.2267 79.6603 15.2499V16.0932H70.0952V14.2394H77.024C77.0189 13.7127 76.905 13.2442 76.6821 12.8339C76.4593 12.4186 76.1478 12.0919 75.7477 11.8538C75.3526 11.6158 74.8917 11.4968 74.3649 11.4968C73.8027 11.4968 73.3089 11.6335 72.8835 11.907C72.458 12.1755 72.1263 12.53 71.8882 12.9706C71.6552 13.4062 71.5362 13.8849 71.5311 14.4065V16.0248C71.5311 16.7035 71.6552 17.2859 71.9034 17.7722C72.1516 18.2533 72.4985 18.6231 72.9442 18.8814C73.3899 19.1346 73.9116 19.2613 74.5093 19.2613C74.9094 19.2613 75.2716 19.2055 75.5957 19.0941C75.9199 18.9776 76.201 18.8079 76.439 18.5851C76.6771 18.3622 76.8569 18.0862 76.9784 17.757L79.5463 18.0457C79.3842 18.7244 79.0753 19.317 78.6194 19.8235C78.1687 20.3249 77.5913 20.7149 76.8873 20.9934C76.1832 21.2669 75.3779 21.4037 74.4713 21.4037ZM82.1085 21.1758V5.61642H84.8588V11.436H84.9727C85.1145 11.1524 85.3146 10.851 85.5729 10.5319C85.8312 10.2077 86.1807 9.93171 86.6214 9.70379C87.062 9.47081 87.6242 9.35431 88.308 9.35431C89.2095 9.35431 90.0224 9.58477 90.7467 10.0457C91.4761 10.5015 92.0535 11.1777 92.4789 12.0742C92.9094 12.9656 93.1247 14.0596 93.1247 15.3562C93.1247 16.6376 92.9145 17.7266 92.4941 18.6231C92.0737 19.5196 91.5014 20.2033 90.7771 20.6744C90.0528 21.1454 89.2323 21.3809 88.3156 21.3809C87.647 21.3809 87.0924 21.2695 86.6517 21.0466C86.2111 20.8238 85.8566 20.5553 85.5881 20.2413C85.3247 19.9222 85.1196 19.6209 84.9727 19.3372H84.8132V21.1758H82.1085ZM84.8056 15.341C84.8056 16.0957 84.912 16.7567 85.1247 17.3239C85.3425 17.8912 85.654 18.3344 86.0592 18.6535C86.4694 18.9675 86.9658 19.1245 87.5482 19.1245C88.156 19.1245 88.665 18.9624 89.0753 18.6383C89.4856 18.3091 89.7945 17.8608 90.0022 17.2935C90.2149 16.7212 90.3213 16.0704 90.3213 15.341C90.3213 14.6167 90.2174 13.9735 90.0098 13.4113C89.8021 12.8491 89.4931 12.4084 89.0829 12.0894C88.6726 11.7703 88.1611 11.6107 87.5482 11.6107C86.9607 11.6107 86.4618 11.7652 86.0516 12.0742C85.6413 12.3831 85.3298 12.8162 85.1171 13.3733C84.9094 13.9304 84.8056 14.5864 84.8056 15.341ZM95.4628 21.1758V9.50626H98.213V21.1758H95.4628ZM96.8455 7.85004C96.4099 7.85004 96.0351 7.70569 95.7211 7.41699C95.407 7.12323 95.25 6.77122 95.25 6.36096C95.25 5.94564 95.407 5.59363 95.7211 5.30493C96.0351 5.01117 96.4099 4.86428 96.8455 4.86428C97.2861 4.86428 97.6609 5.01117 97.9699 5.30493C98.2839 5.59363 98.4409 5.94564 98.4409 6.36096C98.4409 6.77122 98.2839 7.12323 97.9699 7.41699C97.6609 7.70569 97.2861 7.85004 96.8455 7.85004ZM100.889 21.1758V19.4284L106.906 11.8842V11.7855H101.087V9.50626H110.272V11.3828L104.543 18.7978V18.8966H110.469V21.1758H100.889Z" fill="#00234B"/>
<path fill-rule="evenodd" clip-rule="evenodd" d="M14.6645 21.3542L8.73124 24.424H0.447266L3.88338 18.7305L25.439 18.7305L28.8818 24.424H20.5978L14.6645 21.3542Z" fill="#00234B"/>
<path fill-rule="evenodd" clip-rule="evenodd" d="M24.0801 16.4836L14.6641 21.3581L5.24805 16.4836L14.6641 0.894531L24.0801 16.4836ZM17.5209 14.6324L14.6641 9.90436L11.8073 14.6324L14.6641 16.1107L17.5209 14.6324Z" fill="#00234B"/>
</svg>
