<svg width="164" height="34" viewBox="0 0 164 34" fill="none" xmlns="http://www.w3.org/2000/svg">
<path d="M70.8274 14.5433H66.843C66.7294 13.8899 66.5199 13.3111 66.2145 12.8068C65.9091 12.2955 65.5291 11.8622 65.0746 11.5071C64.62 11.152 64.1016 10.8857 63.5192 10.7081C62.9439 10.5234 62.3224 10.4311 61.6548 10.4311C60.4688 10.4311 59.4176 10.7294 58.5014 11.326C57.5852 11.9155 56.8679 12.782 56.3494 13.9254C55.831 15.0618 55.5717 16.4503 55.5717 18.0909C55.5717 19.7599 55.831 21.1662 56.3494 22.3097C56.875 23.446 57.5923 24.3054 58.5014 24.8878C59.4176 25.4631 60.4652 25.7507 61.6442 25.7507C62.2976 25.7507 62.9084 25.6655 63.4766 25.495C64.0518 25.3175 64.5668 25.0582 65.0213 24.7173C65.483 24.3764 65.87 23.9574 66.1825 23.4602C66.5021 22.9631 66.7223 22.3949 66.843 21.7557L70.8274 21.777C70.6783 22.8139 70.3551 23.7869 69.858 24.696C69.3679 25.6051 68.7251 26.4077 67.9297 27.1037C67.1342 27.7926 66.2038 28.3324 65.1385 28.723C64.0732 29.1065 62.8906 29.2983 61.5909 29.2983C59.6733 29.2983 57.9616 28.8544 56.456 27.9666C54.9503 27.0788 53.7642 25.7969 52.8977 24.1207C52.0313 22.4446 51.598 20.4347 51.598 18.0909C51.598 15.7401 52.0348 13.7301 52.9084 12.0611C53.782 10.3849 54.9716 9.10298 56.4773 8.2152C57.983 7.32741 59.6875 6.88352 61.5909 6.88352C62.8054 6.88352 63.9347 7.05398 64.9787 7.39489C66.0227 7.7358 66.9531 8.23651 67.7699 8.89702C68.5866 9.55043 69.2578 10.353 69.7834 11.3047C70.3161 12.2493 70.6641 13.3288 70.8274 14.5433ZM81.4142 29.3196C79.8162 29.3196 78.4313 28.968 77.2594 28.2649C76.0875 27.5618 75.1784 26.5781 74.5321 25.3139C73.8929 24.0497 73.5733 22.5724 73.5733 20.8821C73.5733 19.1918 73.8929 17.7109 74.5321 16.4396C75.1784 15.1683 76.0875 14.1811 77.2594 13.478C78.4313 12.7749 79.8162 12.4233 81.4142 12.4233C83.0123 12.4233 84.3972 12.7749 85.5691 13.478C86.7409 14.1811 87.6465 15.1683 88.2857 16.4396C88.932 17.7109 89.2551 19.1918 89.2551 20.8821C89.2551 22.5724 88.932 24.0497 88.2857 25.3139C87.6465 26.5781 86.7409 27.5618 85.5691 28.2649C84.3972 28.968 83.0123 29.3196 81.4142 29.3196ZM81.4355 26.2301C82.302 26.2301 83.0265 25.9922 83.6088 25.5163C84.1912 25.0334 84.6245 24.3871 84.9086 23.5774C85.1998 22.7678 85.3453 21.8658 85.3453 20.8714C85.3453 19.87 85.1998 18.9645 84.9086 18.1548C84.6245 17.3381 84.1912 16.6882 83.6088 16.2053C83.0265 15.7223 82.302 15.4808 81.4355 15.4808C80.5478 15.4808 79.8091 15.7223 79.2196 16.2053C78.6373 16.6882 78.2005 17.3381 77.9093 18.1548C77.6252 18.9645 77.4831 19.87 77.4831 20.8714C77.4831 21.8658 77.6252 22.7678 77.9093 23.5774C78.2005 24.3871 78.6373 25.0334 79.2196 25.5163C79.8091 25.9922 80.5478 26.2301 81.4355 26.2301ZM92.5284 29V12.6364H96.2678V15.3636H96.4382C96.7365 14.419 97.2479 13.6911 97.9723 13.1797C98.7038 12.6612 99.5384 12.402 100.476 12.402C100.689 12.402 100.927 12.4126 101.19 12.4339C101.46 12.4482 101.683 12.473 101.861 12.5085V16.0561C101.697 15.9993 101.438 15.9496 101.083 15.907C100.735 15.8572 100.398 15.8324 100.071 15.8324C99.3679 15.8324 98.7358 15.9851 98.1747 16.2905C97.6207 16.5888 97.1839 17.0043 96.8643 17.5369C96.5447 18.0696 96.3849 18.6839 96.3849 19.38V29H92.5284ZM110.993 29.3196C109.353 29.3196 107.936 28.9787 106.743 28.2969C105.557 27.608 104.644 26.6349 104.005 25.3778C103.366 24.1136 103.046 22.6257 103.046 20.9141C103.046 19.2308 103.366 17.7536 104.005 16.4822C104.651 15.2038 105.553 14.2095 106.711 13.4993C107.868 12.782 109.229 12.4233 110.791 12.4233C111.8 12.4233 112.751 12.5866 113.646 12.9134C114.548 13.233 115.344 13.7301 116.032 14.4048C116.729 15.0795 117.275 15.9389 117.673 16.983C118.071 18.0199 118.27 19.2557 118.27 20.6903V21.8729H104.857V19.2734H114.573C114.566 18.5348 114.406 17.8778 114.094 17.3026C113.781 16.7202 113.344 16.2621 112.783 15.9283C112.229 15.5945 111.583 15.4276 110.844 15.4276C110.056 15.4276 109.363 15.6193 108.767 16.0028C108.17 16.3793 107.705 16.8764 107.371 17.4943C107.045 18.1051 106.878 18.7763 106.871 19.5078V21.777C106.871 22.7287 107.045 23.5455 107.393 24.2273C107.741 24.902 108.227 25.4205 108.852 25.7827C109.477 26.1378 110.209 26.3153 111.047 26.3153C111.608 26.3153 112.116 26.2372 112.57 26.081C113.025 25.9176 113.419 25.6797 113.753 25.3672C114.086 25.0547 114.339 24.6676 114.509 24.206L118.11 24.6108C117.883 25.5625 117.449 26.3935 116.81 27.1037C116.178 27.8068 115.368 28.3537 114.381 28.7443C113.394 29.1278 112.265 29.3196 110.993 29.3196ZM121.703 29V7.18182H125.559V15.3423H125.719C125.918 14.9446 126.199 14.522 126.561 14.0746C126.923 13.62 127.413 13.233 128.031 12.9134C128.649 12.5866 129.437 12.4233 130.396 12.4233C131.66 12.4233 132.8 12.7464 133.816 13.3928C134.838 14.032 135.648 14.9801 136.245 16.2372C136.848 17.4872 137.15 19.0213 137.15 20.8395C137.15 22.6364 136.855 24.1634 136.266 25.4205C135.676 26.6776 134.874 27.6364 133.858 28.2969C132.843 28.9574 131.692 29.2876 130.407 29.2876C129.469 29.2876 128.691 29.1314 128.074 28.8189C127.456 28.5064 126.958 28.13 126.582 27.6896C126.213 27.2422 125.925 26.8196 125.719 26.4219H125.495V29H121.703ZM125.485 20.8182C125.485 21.8764 125.634 22.8033 125.932 23.5987C126.238 24.3942 126.674 25.0156 127.243 25.4631C127.818 25.9034 128.514 26.1236 129.331 26.1236C130.183 26.1236 130.897 25.8963 131.472 25.4418C132.047 24.9801 132.48 24.3516 132.772 23.5561C133.07 22.7536 133.219 21.8409 133.219 20.8182C133.219 19.8026 133.074 18.9006 132.782 18.1122C132.491 17.3239 132.058 16.706 131.483 16.2585C130.907 15.8111 130.19 15.5874 129.331 15.5874C128.507 15.5874 127.807 15.804 127.232 16.2372C126.657 16.6705 126.22 17.2777 125.922 18.0589C125.63 18.8402 125.485 19.7599 125.485 20.8182ZM140.429 29V12.6364H144.285V29H140.429ZM142.368 10.3139C141.757 10.3139 141.231 10.1115 140.791 9.70668C140.351 9.29474 140.131 8.80114 140.131 8.22585C140.131 7.64347 140.351 7.14986 140.791 6.74503C141.231 6.3331 141.757 6.12713 142.368 6.12713C142.986 6.12713 143.511 6.3331 143.944 6.74503C144.385 7.14986 144.605 7.64347 144.605 8.22585C144.605 8.80114 144.385 9.29474 143.944 9.70668C143.511 10.1115 142.986 10.3139 142.368 10.3139ZM148.038 29V26.5497L156.475 15.9709V15.8324H148.315V12.6364H161.195V15.2678L153.162 25.6655V25.804H161.472V29H148.038Z" fill="white"/>
<path fill-rule="evenodd" clip-rule="evenodd" d="M20 28.7866L11.6534 33.1051H0L4.83371 25.0957L35.1569 25.0957L40 33.1051H28.3466L20 28.7866Z" fill="#5163FF"/>
<path fill-rule="evenodd" clip-rule="evenodd" d="M33.2457 21.9297L19.9998 28.7869L6.75391 21.9297L19.9998 0L33.2457 21.9297ZM24.0186 19.3255L19.9998 12.6745L15.9811 19.3255L19.9998 21.4052L24.0186 19.3255Z" fill="#5163FF"/>
</svg>
