<svg width="38" height="38" viewBox="0 0 38 38" fill="none" xmlns="http://www.w3.org/2000/svg">
<g clip-path="url(#clip0_6424_2769)">
<path fill-rule="evenodd" clip-rule="evenodd" d="M28.1497 21.5121L22.438 21.4904C21.8086 21.4881 21.3003 20.9763 21.3003 20.3481V11.2048C21.3003 10.5743 21.812 10.0625 22.4426 10.0625H28.1543C28.7848 10.0625 29.2966 10.5743 29.2966 11.2048V20.3698C29.2966 21.0026 28.7825 21.5144 28.1497 21.5121ZM15.5886 28.3398H9.87694C9.24637 28.3398 8.73461 27.828 8.73461 27.1975V11.2048C8.73461 10.5743 9.24637 10.0625 9.87694 10.0625H15.5886C16.2192 10.0625 16.7309 10.5743 16.7309 11.2048V27.1975C16.7309 27.828 16.2192 28.3398 15.5886 28.3398ZM19.0156 0.923828C8.92081 0.923828 0.738281 9.10636 0.738281 19.2011C0.738281 29.2948 8.92081 37.4785 19.0156 37.4785C29.1093 37.4785 37.2929 29.2948 37.2929 19.2011C37.2929 9.10636 29.1093 0.923828 19.0156 0.923828Z" fill="#3282CD"/>
</g>
<defs>
<clipPath id="clip0_6424_2769">
<rect width="36.5546" height="36.5546" fill="white" transform="translate(0.738281 0.923828)"/>
</clipPath>
</defs>
</svg>
