<svg width="34" height="34" viewBox="0 0 34 34" fill="none" xmlns="http://www.w3.org/2000/svg">
<g clip-path="url(#clip0_6424_2782)">
<path d="M7.90386 20.2466L6.74712 24.5648L2.51926 24.6543C1.25575 22.3107 0.539062 19.6294 0.539062 16.7801C0.539062 14.0248 1.20914 11.4265 2.39691 9.13867H2.39782L6.1618 9.82874L7.81066 13.5701C7.46556 14.5762 7.27746 15.6563 7.27746 16.7801C7.27759 17.9998 7.49853 19.1684 7.90386 20.2466Z" fill="#FBBB00"/>
<path d="M33.4797 13.6738C33.6705 14.679 33.77 15.717 33.77 16.7779C33.77 17.9674 33.6449 19.1278 33.4067 20.2471C32.5978 24.0559 30.4843 27.3818 27.5565 29.7354L27.5556 29.7345L22.8146 29.4926L22.1436 25.3039C24.0864 24.1646 25.6047 22.3816 26.4044 20.2471H17.5195V13.6738H26.534H33.4797Z" fill="#518EF8"/>
<path d="M27.5563 29.7343L27.5573 29.7352C24.7098 32.0239 21.0926 33.3934 17.1551 33.3934C10.8274 33.3934 5.32597 29.8566 2.51953 24.6519L7.90414 20.2441C9.30732 23.989 12.9199 26.6549 17.1551 26.6549C18.9755 26.6549 20.6809 26.1628 22.1444 25.3037L27.5563 29.7343Z" fill="#28B446"/>
<path d="M27.7621 3.98737L22.3793 8.39417C20.8648 7.44746 19.0744 6.90057 17.1563 6.90057C12.8253 6.90057 9.14514 9.68871 7.81225 13.5679L2.39935 9.13643H2.39844C5.16379 3.80479 10.7346 0.162109 17.1563 0.162109C21.1879 0.162109 24.8845 1.5982 27.7621 3.98737Z" fill="#F14336"/>
</g>
<defs>
<clipPath id="clip0_6424_2782">
<rect width="33.2315" height="33.2315" fill="white" transform="translate(0.539062 0.162109)"/>
</clipPath>
</defs>
</svg>
