<svg width="34" height="34" viewBox="0 0 34 34" fill="none" xmlns="http://www.w3.org/2000/svg">
<g clip-path="url(#clip0_6424_2789)">
<path d="M12.93 18.3242C11.0128 18.3242 9.45312 19.8839 9.45312 21.8011V30.4895C9.45312 32.4066 11.0128 33.9663 12.93 33.9663C14.8471 33.9664 16.4068 32.4067 16.4068 30.4895V21.8011C16.4068 19.8839 14.8471 18.3242 12.93 18.3242Z" fill="#FF4340"/>
<path d="M7.50541 18.3242H4.13942C2.28339 18.3242 0.773438 19.8342 0.773438 21.6902C0.773438 23.5462 2.28346 25.0562 4.13942 25.0562C5.99539 25.0562 7.50541 23.5462 7.50541 21.6902V18.3242Z" fill="#FF4340"/>
<path d="M0.763672 12.8987C0.763672 14.8159 2.32335 16.3756 4.24052 16.3756H12.9289C14.8462 16.3756 16.4058 14.8159 16.4058 12.8987C16.4058 10.9815 14.8462 9.42188 12.929 9.42188H4.24052C2.32335 9.42181 0.763672 10.9815 0.763672 12.8987Z" fill="#36C6FF"/>
<path d="M13.0379 7.47416H16.4038V4.10817C16.4038 2.25214 14.8938 0.742188 13.0379 0.742188C11.1818 0.742188 9.67188 2.25221 9.67188 4.10817C9.67188 5.96414 11.1818 7.47416 13.0379 7.47416Z" fill="#36C6FF"/>
<path d="M21.8284 16.3765C23.7456 16.3765 25.3053 14.8169 25.3053 12.8997V4.21122C25.3053 2.29405 23.7456 0.734375 21.8284 0.734375C19.9112 0.734375 18.3516 2.29405 18.3516 4.21122V12.8996C18.3516 14.8169 19.9112 16.3765 21.8284 16.3765Z" fill="#0DC46E"/>
<path d="M27.252 16.3765H30.6179C32.474 16.3765 33.9839 14.8665 33.9839 13.0105C33.9839 11.1545 32.4739 9.64453 30.6179 9.64453C28.762 9.64453 27.252 11.1546 27.252 13.0105V16.3765Z" fill="#0DC46E"/>
<path d="M33.9937 21.8011C33.9937 19.8839 32.4341 18.3242 30.5169 18.3242H21.8284C19.9112 18.3242 18.3516 19.8839 18.3516 21.8011C18.3516 23.7182 19.9112 25.2779 21.8284 25.2779H30.5168C32.4341 25.278 33.9937 23.7182 33.9937 21.8011Z" fill="#FDCB02"/>
<path d="M21.7175 27.2266H18.3516V30.5926C18.3516 32.4486 19.8616 33.9585 21.7175 33.9585C23.5736 33.9585 25.0835 32.4485 25.0835 30.5926C25.0835 28.7366 23.5736 27.2266 21.7175 27.2266Z" fill="#FDCB02"/>
</g>
<defs>
<clipPath id="clip0_6424_2789">
<rect width="33.2315" height="33.2315" fill="white" transform="translate(0.763672 0.734375)"/>
</clipPath>
</defs>
</svg>
