<svg width="38" height="38" viewBox="0 0 38 38" fill="none" xmlns="http://www.w3.org/2000/svg">
<g clip-path="url(#clip0_6424_2776)">
<path fill-rule="evenodd" clip-rule="evenodd" d="M18.998 0.500488C29.0927 0.500489 37.2753 8.68316 37.2753 18.7778C37.2753 28.8725 29.0927 37.0551 18.998 37.0551C8.90337 37.0551 0.720703 28.8725 0.720703 18.7778C0.720703 8.68316 8.90337 0.500488 18.998 0.500488Z" fill="url(#paint0_linear_6424_2776)"/>
<path d="M9.10352 13.952L9.10352 21.1972C9.11066 22.8357 10.4486 24.1537 12.08 24.1473L22.6416 24.1473C22.9422 24.1473 23.1835 23.906 23.1835 23.6125L23.1835 16.3666C23.1771 14.7287 21.8391 13.4101 20.207 13.4165L9.64541 13.4165C9.34555 13.4165 9.10352 13.6578 9.10352 13.952ZM23.856 16.7778L28.2162 13.5928C28.5946 13.2794 28.8887 13.3579 28.8887 13.9255L28.8887 23.6382C28.8887 24.2843 28.5296 24.2065 28.2162 23.9716L23.856 20.7924L23.856 16.7778Z" fill="white"/>
</g>
<defs>
<linearGradient id="paint0_linear_6424_2776" x1="5.56348" y1="6.38493" x2="34.5759" y2="28.3434" gradientUnits="userSpaceOnUse">
<stop stop-color="#4A8CFF"/>
<stop offset="1" stop-color="#23B7EC"/>
</linearGradient>
<clipPath id="clip0_6424_2776">
<rect width="36.5546" height="36.5546" fill="white" transform="translate(0.720703 0.500488)"/>
</clipPath>
</defs>
</svg>
