<svg width="35" height="36" viewBox="0 0 35 36" fill="none" xmlns="http://www.w3.org/2000/svg">
<g clip-path="url(#clip0_6424_2816)">
<path d="M3.04796 2.09115L22.2596 0.668034C24.6194 0.464897 25.2258 0.601869 26.7095 1.68372L32.8422 6.01692C33.8537 6.76214 34.1905 6.96528 34.1905 7.77666V31.5414C34.1905 33.0306 33.6512 33.9117 31.7636 34.0463L9.45377 35.401C8.0372 35.4683 7.36247 35.2651 6.62063 34.3168L2.10474 28.427C1.29461 27.3428 0.958984 26.5314 0.958984 25.5831V4.45915C0.958984 3.24149 1.4983 2.2258 3.04796 2.09115Z" fill="white"/>
<path d="M22.2596 0.668034L3.04796 2.09115C1.4983 2.2258 0.958984 3.24149 0.958984 4.45915V25.5831C0.958984 26.5314 1.29461 27.3428 2.10474 28.427L6.62063 34.3168C7.36247 35.2651 8.0372 35.4683 9.45377 35.401L31.7636 34.0463C33.65 33.9117 34.1905 33.0306 34.1905 31.5414V7.77666C34.1905 7.00706 33.8873 6.78535 32.995 6.12835C32.9436 6.09126 32.8923 6.05411 32.841 6.01692L26.7095 1.68372C25.2258 0.601869 24.6194 0.464897 22.2596 0.668034ZM9.95836 7.3878C8.13673 7.51084 7.72356 7.5387 6.68891 6.69481L4.05831 4.59612C3.79096 4.3245 3.92521 3.98555 4.59878 3.91822L23.0674 2.56475C24.6182 2.42894 25.426 2.97103 26.0325 3.44462L29.2001 5.74645C29.3355 5.81494 29.6723 6.22005 29.2672 6.22005L10.1945 7.37155L9.95836 7.3878ZM7.83467 31.3382V11.1638C7.83467 10.2828 8.10432 9.87652 8.91214 9.80803L30.818 8.52188C31.561 8.45456 31.8967 8.92816 31.8967 9.80803V29.8478C31.8967 30.7288 31.7612 31.474 30.5484 31.5414L9.5857 32.7602C8.37282 32.8275 7.83467 32.4224 7.83467 31.3382ZM28.5277 12.2457C28.6619 12.8551 28.5277 13.4645 27.9201 13.5341L26.9097 13.735V28.6301C26.0325 29.1037 25.2247 29.3742 24.5499 29.3742C23.4713 29.3742 23.2017 29.0352 22.3938 28.0207L15.7867 17.5946V27.6817L17.8768 28.1565C17.8768 28.1565 17.8768 29.3753 16.1906 29.3753L11.5416 29.6458C11.4062 29.3742 11.5416 28.6974 12.0126 28.5628L13.2267 28.225V14.8876L11.5416 14.7506C11.4062 14.1412 11.743 13.2614 12.6873 13.1929L17.6754 12.8562L24.5499 23.417V14.0739L22.7977 13.8719C22.6623 13.1255 23.2017 12.5835 23.8752 12.5173L28.5277 12.2457Z" fill="black"/>
</g>
<defs>
<clipPath id="clip0_6424_2816">
<rect width="33.2811" height="34.8411" fill="white" transform="translate(0.957031 0.588867)"/>
</clipPath>
</defs>
</svg>
