<svg width="39" height="116" viewBox="0 0 39 116" fill="none" xmlns="http://www.w3.org/2000/svg">
<path d="M23.839 76.7654C24.3882 75.7712 25.0465 75.1738 26.1272 75.5508C26.7454 75.7664 26.9235 76.3216 26.8665 76.9473C26.8073 77.6012 26.4468 78.0203 25.8027 78.0772C25.3941 78.1135 24.8716 78.1417 24.5832 77.9262C24.2272 77.6595 24.0611 77.1356 23.839 76.7654Z" fill="url(#paint0_linear_2779_423)"/>
<path d="M23.8132 102.064C24.9798 100.666 25.7827 100.39 26.4926 101.062C27 101.543 27.0116 102.519 26.5157 103.015C25.8276 103.705 25.0167 103.442 23.8132 102.064Z" fill="url(#paint1_linear_2779_423)"/>
<path d="M35.9333 13.9978C37.0877 12.6038 37.8988 12.3232 38.6097 12.9929C39.1204 13.4739 39.1319 14.4464 38.6327 14.9447C37.9392 15.6369 37.1234 15.3739 35.9333 13.9978Z" fill="url(#paint2_linear_2779_423)"/>
<path d="M1.26625 53.1433C0.570589 53.1123 0.000436397 52.4625 -2.25988e-06 51.7C-0.000463803 50.8937 0.749067 50.1538 1.47276 50.2461C2.19914 50.3389 2.66648 50.9659 2.62997 51.7996C2.59748 52.5351 1.9499 53.1738 1.26625 53.1433Z" fill="url(#paint3_linear_2779_423)"/>
<path d="M37.6271 37.9194C38.4223 37.9665 38.9669 38.4107 38.978 39.022C38.9902 39.697 38.094 40.5947 37.4357 40.5665C36.7568 40.5378 35.9203 39.5966 35.9872 38.9373C36.0557 38.261 36.6939 37.8647 37.6271 37.9194Z" fill="url(#paint4_linear_2779_423)"/>
<path d="M37.6765 50.1596C38.4306 50.6311 39.1247 51.0449 38.9305 52.0026C38.8105 52.5929 37.8336 53.1666 37.2653 52.9886C36.6592 52.7991 35.9953 52.5346 35.9929 51.7562C35.9892 50.6226 37.0217 50.593 37.6765 50.1596Z" fill="url(#paint5_linear_2779_423)"/>
<path d="M37.4621 65.4785C36.5489 65.4713 35.9287 64.9752 35.9772 64.2903C36.0195 63.696 36.7984 62.8884 37.3848 62.831C38.0337 62.7678 38.9543 63.6279 38.9784 64.3199C39.0021 64.9944 38.3599 65.4852 37.4621 65.4785Z" fill="url(#paint6_linear_2779_423)"/>
<path d="M37.4266 78.1158C36.5001 78.0965 35.904 77.5918 35.9818 76.8926C36.0498 76.2813 36.8374 75.4974 37.4198 75.4616C38.0733 75.4217 38.9796 76.31 38.9811 76.9917C38.9826 77.6622 38.3293 78.1346 37.4266 78.1158Z" fill="url(#paint7_linear_2779_423)"/>
<path d="M35.9446 89.4838C37.0473 88.0406 37.8138 87.7403 38.5679 88.3826C39.0967 88.8322 39.1495 89.8056 38.674 90.3349C38.0201 91.0624 37.1723 90.8226 35.9446 89.4838Z" fill="url(#paint8_linear_2779_423)"/>
<path d="M23.8257 14.0534C24.9393 12.6064 25.6969 12.3079 26.4481 12.9476C26.9738 13.3947 27.0299 14.3723 26.5603 14.901C25.9127 15.6299 25.0702 15.3934 23.8257 14.0534Z" fill="url(#paint9_linear_2779_423)"/>
<path d="M38.9658 114.364C39.0373 115.024 38.208 115.964 37.5237 115.998C36.9697 116.026 36.1245 115.294 35.9933 114.674C35.8478 113.985 36.4244 113.411 37.3231 113.351C38.2524 113.288 38.892 113.683 38.9658 114.364Z" fill="url(#paint10_linear_2779_423)"/>
<path d="M23.8253 1.40528C24.95 -0.0235379 25.7209 -0.31966 26.4589 0.321555C26.9796 0.773936 27.0245 1.74998 26.5487 2.27371C25.8891 2.99984 25.0555 2.75861 23.8253 1.40528Z" fill="url(#paint11_linear_2779_423)"/>
<path d="M23.8832 26.7639C24.0835 25.755 24.5325 25.1455 25.6332 25.2799C26.3845 25.3718 26.7904 25.7362 26.8728 26.5116C26.952 27.2587 26.4624 27.5245 25.9265 27.7701C24.8165 28.2779 24.4035 27.4138 23.8832 26.7639Z" fill="url(#paint12_linear_2779_423)"/>
<path d="M23.8217 89.352C25.0564 88.0012 25.8869 87.7596 26.5474 88.4808C27.0254 89.0029 26.9818 89.9777 26.4602 90.4326C25.7173 91.0803 24.9509 90.788 23.8217 89.352Z" fill="url(#paint13_linear_2779_423)"/>
<path d="M35.9168 1.28598C36.5068 0.598395 36.8841 -0.350107 37.9705 0.182344C38.536 0.459673 39.1278 0.952268 38.9218 1.67952C38.8127 2.06425 38.3269 2.3859 37.944 2.62881C37.7391 2.75883 37.3875 2.69269 37.1099 2.65551C36.9119 2.62901 36.6563 2.55596 36.5505 2.41155C36.3058 2.0782 36.1365 1.6889 35.9168 1.28598Z" fill="url(#paint14_linear_2779_423)"/>
<path d="M36.0124 26.7756C36.1808 25.8316 36.5537 25.1688 37.6693 25.2755C38.2975 25.3355 38.7685 25.5583 38.9443 26.1924C39.096 26.7393 38.529 27.6388 37.8592 27.8499C36.8854 28.1569 36.4757 27.4066 36.0124 26.7756Z" fill="url(#paint15_linear_2779_423)"/>
<path d="M35.9683 102.239C36.268 101.015 36.8432 100.541 37.8745 100.723C38.5055 100.835 39.0704 101.211 38.9291 101.816C38.8018 102.361 38.3376 103.005 37.8477 103.247C36.9141 103.71 36.5196 102.778 35.9683 102.239Z" fill="url(#paint16_linear_2779_423)"/>
<path d="M23.8715 63.9873C24.4034 63.3303 24.8552 62.476 25.7693 62.9668C26.2487 63.2245 26.6929 63.8744 26.8019 64.4185C26.9257 65.0357 26.3386 65.3745 25.7115 65.474C24.662 65.6412 24.1274 65.1195 23.8715 63.9873Z" fill="url(#paint17_linear_2779_423)"/>
<path d="M23.8502 39.4501C24.1529 38.2153 24.7355 37.7532 25.7605 37.9285C26.3939 38.0369 26.952 38.4179 26.8087 39.023C26.6801 39.5662 26.2154 40.2044 25.7258 40.4473C24.7911 40.9116 24.4026 39.9705 23.8502 39.4501Z" fill="url(#paint18_linear_2779_423)"/>
<path d="M13.3832 27.9404C12.5682 27.9144 12.0955 27.3985 12.1214 26.5631C12.1467 25.7294 12.6465 25.261 13.482 25.288C14.3085 25.3149 14.7625 25.8123 14.7411 26.6657C14.7202 27.5083 14.2315 27.9673 13.3832 27.9404Z" fill="url(#paint19_linear_2779_423)"/>
<path d="M14.7411 1.31594C14.7536 2.15874 14.284 2.65677 13.4606 2.67453C12.627 2.69247 12.1369 2.21583 12.1236 1.37503C12.1107 0.534006 12.5851 0.0313406 13.4045 0.0171463C14.2457 0.00270099 14.7287 0.472287 14.7411 1.31594Z" fill="url(#paint20_linear_2779_423)"/>
<path d="M25.3546 116C24.7795 116.006 24.0242 115.187 23.9909 114.521C23.9633 113.959 24.5926 113.38 25.2638 113.35C26.186 113.31 26.8176 113.734 26.8536 114.418C26.8897 115.1 26.044 115.993 25.3546 116Z" fill="url(#paint21_linear_2779_423)"/>
<path d="M13.4753 15.3087C12.6381 15.3299 12.1418 14.8581 12.1232 14.0223C12.1045 13.1795 12.5754 12.6705 13.3907 12.6525C14.2333 12.6339 14.7202 13.0976 14.7411 13.9387C14.7625 14.7813 14.2943 15.2877 13.4753 15.3087Z" fill="url(#paint22_linear_2779_423)"/>
<path d="M1.27914 2.67521C0.462402 2.65598 -0.0102807 2.1491 0.00710672 1.31027C0.0244369 0.467746 0.508694 0.00250815 1.35034 0.0191407C2.17419 0.0355267 2.64109 0.535315 2.62419 1.38205C2.60727 2.22067 2.11456 2.69471 1.27914 2.67521Z" fill="url(#paint23_linear_2779_423)"/>
<path d="M25.6243 50.1811C26.3475 50.6875 27.122 51.112 26.7614 52.1003C26.5153 52.7739 25.8276 53.1298 25.2117 52.9702C24.755 52.8514 24.1617 52.2912 24.0874 51.8493C23.9005 50.7351 24.8627 50.4993 25.6243 50.1811Z" fill="url(#paint24_linear_2779_423)"/>
<path d="M1.39976 103.374C0.562568 103.417 0.0480454 102.959 0.00710613 102.132C-0.0342947 101.295 0.426818 100.761 1.22973 100.716C2.05092 100.671 2.581 101.144 2.62463 101.961C2.66913 102.796 2.20492 103.332 1.39976 103.374Z" fill="url(#paint25_linear_2779_423)"/>
<path d="M1.27431 90.7415C0.459808 90.7217 -0.0119783 90.2121 0.00670996 89.3718C0.0254249 88.5305 0.513649 88.0639 1.3553 88.0827C2.1716 88.1011 2.64428 88.6107 2.62513 89.4524C2.606 90.2892 2.11107 90.7616 1.27431 90.7415Z" fill="url(#paint26_linear_2779_423)"/>
<path d="M2.6247 76.7479C2.63763 77.5895 2.16316 78.0942 1.34596 78.1081C0.506539 78.122 0.0214123 77.6519 0.00671814 76.8097C-0.00797985 75.9653 0.461171 75.4664 1.28413 75.4512C2.12262 75.436 2.6118 75.9093 2.6247 76.7479Z" fill="url(#paint27_linear_2779_423)"/>
<path d="M13.3974 90.7415C12.5838 90.7249 12.1062 90.214 12.1227 89.3759C12.1392 88.5364 12.6314 88.0635 13.4682 88.0837C14.2894 88.1034 14.7594 88.6063 14.7425 89.448C14.726 90.2915 14.2399 90.7585 13.3974 90.7415Z" fill="url(#paint28_linear_2779_423)"/>
<path d="M2.62381 26.6478C2.60911 27.4881 2.12263 27.9565 1.28144 27.9404C0.46025 27.9247 -0.00930906 27.4231 0.00672033 26.5797C0.0222843 25.7379 0.506972 25.2709 1.34954 25.2857C2.17206 25.3001 2.6385 25.7984 2.62381 26.6478Z" fill="url(#paint29_linear_2779_423)"/>
<path d="M1.35305 15.3091C0.511401 15.3284 0.0236085 14.8605 0.00668655 14.0188C-0.00977383 13.1747 0.458427 12.6703 1.27562 12.6519C2.11281 12.6328 2.60598 13.1041 2.62467 13.9414C2.64336 14.7813 2.16981 15.2905 1.35305 15.3091Z" fill="url(#paint30_linear_2779_423)"/>
<path d="M12.2487 113.574C14.2181 113.305 14.7398 113.553 14.7389 114.676C14.7384 115.33 14.0931 115.929 13.3231 115.989C12.4485 116.058 12.1374 115.402 12.2487 113.574Z" fill="url(#paint31_linear_2779_423)"/>
<path d="M13.5407 103.373C12.7147 103.429 12.1757 102.966 12.1223 102.154C12.068 101.321 12.5291 100.768 13.3231 100.716C14.1407 100.662 14.6859 101.132 14.742 101.938C14.7999 102.771 14.3414 103.319 13.5407 103.373Z" fill="url(#paint32_linear_2779_423)"/>
<path d="M13.3244 78.11C12.5322 78.0606 12.0697 77.5076 12.1223 76.6731C12.1739 75.8618 12.7102 75.3993 13.5394 75.4521C14.3414 75.5032 14.7985 76.0478 14.7416 76.8846C14.6868 77.6887 14.1407 78.161 13.3244 78.11Z" fill="url(#paint33_linear_2779_423)"/>
<path d="M12.3119 65.3131C12.1138 63.5047 12.3916 62.8163 13.2425 62.8248C14.0624 62.8328 14.8088 63.5585 14.7407 64.2814C14.645 65.2988 14.2507 65.4781 12.3119 65.3131Z" fill="url(#paint34_linear_2779_423)"/>
<path d="M13.5305 50.1968C15.1448 51.648 15.1453 51.7503 13.5625 53.1648C12.9154 52.955 12.1961 52.8954 12.1044 51.9147C12.0106 50.9036 12.5411 50.4872 13.5305 50.1968Z" fill="url(#paint35_linear_2779_423)"/>
<path d="M12.3128 38.0799C14.2467 37.9082 14.7629 38.1821 14.7389 39.2855C14.7251 39.9242 13.9583 40.5804 13.3058 40.5114C12.4254 40.419 12.1272 39.7414 12.3128 38.0799Z" fill="url(#paint36_linear_2779_423)"/>
<path d="M1.35348 65.4704C0.498033 65.4888 0.0106516 65.0115 0.00665766 64.1527C0.00353345 63.4033 0.490457 62.8215 1.11891 62.8247C1.8097 62.8278 2.58992 63.4773 2.61976 64.0729C2.66292 64.9393 2.19781 65.4529 1.35348 65.4704Z" fill="url(#paint37_linear_2779_423)"/>
<path d="M1.37263 40.5118C0.686751 40.545 -0.00624259 39.8754 0.00712033 39.2013C0.0222266 38.438 0.405482 38.0113 1.15275 37.9248C1.97082 37.8302 2.53874 38.2839 2.62597 39.0866C2.69853 39.7561 2.06297 40.4786 1.37263 40.5118Z" fill="url(#paint38_linear_2779_423)"/>
<path d="M0.00847888 114.621C0.0333889 113.786 0.528346 113.326 1.37309 113.352C2.20137 113.378 2.65626 113.884 2.62065 114.739C2.59796 115.289 1.94146 115.917 1.36462 115.941C0.674315 115.97 -0.0120061 115.303 0.00847888 114.621Z" fill="url(#paint39_linear_2779_423)"/>
<defs>
<linearGradient id="paint0_linear_2779_423" x1="39" y1="-0.454902" x2="-26.15" y2="98.8427" gradientUnits="userSpaceOnUse">
<stop stop-color="#5163FF"/>
<stop offset="1" stop-color="#FE71B9"/>
</linearGradient>
<linearGradient id="paint1_linear_2779_423" x1="39" y1="-0.454902" x2="-26.15" y2="98.8427" gradientUnits="userSpaceOnUse">
<stop stop-color="#5163FF"/>
<stop offset="1" stop-color="#FE71B9"/>
</linearGradient>
<linearGradient id="paint2_linear_2779_423" x1="39" y1="-0.454902" x2="-26.15" y2="98.8427" gradientUnits="userSpaceOnUse">
<stop stop-color="#5163FF"/>
<stop offset="1" stop-color="#FE71B9"/>
</linearGradient>
<linearGradient id="paint3_linear_2779_423" x1="39" y1="-0.454902" x2="-26.15" y2="98.8427" gradientUnits="userSpaceOnUse">
<stop stop-color="#5163FF"/>
<stop offset="1" stop-color="#FE71B9"/>
</linearGradient>
<linearGradient id="paint4_linear_2779_423" x1="39" y1="-0.454902" x2="-26.15" y2="98.8427" gradientUnits="userSpaceOnUse">
<stop stop-color="#5163FF"/>
<stop offset="1" stop-color="#FE71B9"/>
</linearGradient>
<linearGradient id="paint5_linear_2779_423" x1="39" y1="-0.454902" x2="-26.15" y2="98.8427" gradientUnits="userSpaceOnUse">
<stop stop-color="#5163FF"/>
<stop offset="1" stop-color="#FE71B9"/>
</linearGradient>
<linearGradient id="paint6_linear_2779_423" x1="39" y1="-0.454902" x2="-26.15" y2="98.8427" gradientUnits="userSpaceOnUse">
<stop stop-color="#5163FF"/>
<stop offset="1" stop-color="#FE71B9"/>
</linearGradient>
<linearGradient id="paint7_linear_2779_423" x1="39" y1="-0.454902" x2="-26.15" y2="98.8427" gradientUnits="userSpaceOnUse">
<stop stop-color="#5163FF"/>
<stop offset="1" stop-color="#FE71B9"/>
</linearGradient>
<linearGradient id="paint8_linear_2779_423" x1="39" y1="-0.454902" x2="-26.15" y2="98.8427" gradientUnits="userSpaceOnUse">
<stop stop-color="#5163FF"/>
<stop offset="1" stop-color="#FE71B9"/>
</linearGradient>
<linearGradient id="paint9_linear_2779_423" x1="39" y1="-0.454902" x2="-26.15" y2="98.8427" gradientUnits="userSpaceOnUse">
<stop stop-color="#5163FF"/>
<stop offset="1" stop-color="#FE71B9"/>
</linearGradient>
<linearGradient id="paint10_linear_2779_423" x1="39" y1="-0.454902" x2="-26.15" y2="98.8427" gradientUnits="userSpaceOnUse">
<stop stop-color="#5163FF"/>
<stop offset="1" stop-color="#FE71B9"/>
</linearGradient>
<linearGradient id="paint11_linear_2779_423" x1="39" y1="-0.454902" x2="-26.15" y2="98.8427" gradientUnits="userSpaceOnUse">
<stop stop-color="#5163FF"/>
<stop offset="1" stop-color="#FE71B9"/>
</linearGradient>
<linearGradient id="paint12_linear_2779_423" x1="39" y1="-0.454902" x2="-26.15" y2="98.8427" gradientUnits="userSpaceOnUse">
<stop stop-color="#5163FF"/>
<stop offset="1" stop-color="#FE71B9"/>
</linearGradient>
<linearGradient id="paint13_linear_2779_423" x1="39" y1="-0.454902" x2="-26.15" y2="98.8427" gradientUnits="userSpaceOnUse">
<stop stop-color="#5163FF"/>
<stop offset="1" stop-color="#FE71B9"/>
</linearGradient>
<linearGradient id="paint14_linear_2779_423" x1="39" y1="-0.454902" x2="-26.15" y2="98.8427" gradientUnits="userSpaceOnUse">
<stop stop-color="#5163FF"/>
<stop offset="1" stop-color="#FE71B9"/>
</linearGradient>
<linearGradient id="paint15_linear_2779_423" x1="39" y1="-0.454902" x2="-26.15" y2="98.8427" gradientUnits="userSpaceOnUse">
<stop stop-color="#5163FF"/>
<stop offset="1" stop-color="#FE71B9"/>
</linearGradient>
<linearGradient id="paint16_linear_2779_423" x1="39" y1="-0.454902" x2="-26.15" y2="98.8427" gradientUnits="userSpaceOnUse">
<stop stop-color="#5163FF"/>
<stop offset="1" stop-color="#FE71B9"/>
</linearGradient>
<linearGradient id="paint17_linear_2779_423" x1="39" y1="-0.454902" x2="-26.15" y2="98.8427" gradientUnits="userSpaceOnUse">
<stop stop-color="#5163FF"/>
<stop offset="1" stop-color="#FE71B9"/>
</linearGradient>
<linearGradient id="paint18_linear_2779_423" x1="39" y1="-0.454902" x2="-26.15" y2="98.8427" gradientUnits="userSpaceOnUse">
<stop stop-color="#5163FF"/>
<stop offset="1" stop-color="#FE71B9"/>
</linearGradient>
<linearGradient id="paint19_linear_2779_423" x1="39" y1="-0.454902" x2="-26.15" y2="98.8427" gradientUnits="userSpaceOnUse">
<stop stop-color="#5163FF"/>
<stop offset="1" stop-color="#FE71B9"/>
</linearGradient>
<linearGradient id="paint20_linear_2779_423" x1="39" y1="-0.454902" x2="-26.15" y2="98.8427" gradientUnits="userSpaceOnUse">
<stop stop-color="#5163FF"/>
<stop offset="1" stop-color="#FE71B9"/>
</linearGradient>
<linearGradient id="paint21_linear_2779_423" x1="39" y1="-0.454902" x2="-26.15" y2="98.8427" gradientUnits="userSpaceOnUse">
<stop stop-color="#5163FF"/>
<stop offset="1" stop-color="#FE71B9"/>
</linearGradient>
<linearGradient id="paint22_linear_2779_423" x1="39" y1="-0.454902" x2="-26.15" y2="98.8427" gradientUnits="userSpaceOnUse">
<stop stop-color="#5163FF"/>
<stop offset="1" stop-color="#FE71B9"/>
</linearGradient>
<linearGradient id="paint23_linear_2779_423" x1="39" y1="-0.454902" x2="-26.15" y2="98.8427" gradientUnits="userSpaceOnUse">
<stop stop-color="#5163FF"/>
<stop offset="1" stop-color="#FE71B9"/>
</linearGradient>
<linearGradient id="paint24_linear_2779_423" x1="39" y1="-0.454902" x2="-26.15" y2="98.8427" gradientUnits="userSpaceOnUse">
<stop stop-color="#5163FF"/>
<stop offset="1" stop-color="#FE71B9"/>
</linearGradient>
<linearGradient id="paint25_linear_2779_423" x1="39" y1="-0.454902" x2="-26.15" y2="98.8427" gradientUnits="userSpaceOnUse">
<stop stop-color="#5163FF"/>
<stop offset="1" stop-color="#FE71B9"/>
</linearGradient>
<linearGradient id="paint26_linear_2779_423" x1="39" y1="-0.454902" x2="-26.15" y2="98.8427" gradientUnits="userSpaceOnUse">
<stop stop-color="#5163FF"/>
<stop offset="1" stop-color="#FE71B9"/>
</linearGradient>
<linearGradient id="paint27_linear_2779_423" x1="39" y1="-0.454902" x2="-26.15" y2="98.8427" gradientUnits="userSpaceOnUse">
<stop stop-color="#5163FF"/>
<stop offset="1" stop-color="#FE71B9"/>
</linearGradient>
<linearGradient id="paint28_linear_2779_423" x1="39" y1="-0.454902" x2="-26.15" y2="98.8427" gradientUnits="userSpaceOnUse">
<stop stop-color="#5163FF"/>
<stop offset="1" stop-color="#FE71B9"/>
</linearGradient>
<linearGradient id="paint29_linear_2779_423" x1="39" y1="-0.454902" x2="-26.15" y2="98.8427" gradientUnits="userSpaceOnUse">
<stop stop-color="#5163FF"/>
<stop offset="1" stop-color="#FE71B9"/>
</linearGradient>
<linearGradient id="paint30_linear_2779_423" x1="39" y1="-0.454902" x2="-26.15" y2="98.8427" gradientUnits="userSpaceOnUse">
<stop stop-color="#5163FF"/>
<stop offset="1" stop-color="#FE71B9"/>
</linearGradient>
<linearGradient id="paint31_linear_2779_423" x1="39" y1="-0.454902" x2="-26.15" y2="98.8427" gradientUnits="userSpaceOnUse">
<stop stop-color="#5163FF"/>
<stop offset="1" stop-color="#FE71B9"/>
</linearGradient>
<linearGradient id="paint32_linear_2779_423" x1="39" y1="-0.454902" x2="-26.15" y2="98.8427" gradientUnits="userSpaceOnUse">
<stop stop-color="#5163FF"/>
<stop offset="1" stop-color="#FE71B9"/>
</linearGradient>
<linearGradient id="paint33_linear_2779_423" x1="39" y1="-0.454902" x2="-26.15" y2="98.8427" gradientUnits="userSpaceOnUse">
<stop stop-color="#5163FF"/>
<stop offset="1" stop-color="#FE71B9"/>
</linearGradient>
<linearGradient id="paint34_linear_2779_423" x1="39" y1="-0.454902" x2="-26.15" y2="98.8427" gradientUnits="userSpaceOnUse">
<stop stop-color="#5163FF"/>
<stop offset="1" stop-color="#FE71B9"/>
</linearGradient>
<linearGradient id="paint35_linear_2779_423" x1="39" y1="-0.454902" x2="-26.15" y2="98.8427" gradientUnits="userSpaceOnUse">
<stop stop-color="#5163FF"/>
<stop offset="1" stop-color="#FE71B9"/>
</linearGradient>
<linearGradient id="paint36_linear_2779_423" x1="39" y1="-0.454902" x2="-26.15" y2="98.8427" gradientUnits="userSpaceOnUse">
<stop stop-color="#5163FF"/>
<stop offset="1" stop-color="#FE71B9"/>
</linearGradient>
<linearGradient id="paint37_linear_2779_423" x1="39" y1="-0.454902" x2="-26.15" y2="98.8427" gradientUnits="userSpaceOnUse">
<stop stop-color="#5163FF"/>
<stop offset="1" stop-color="#FE71B9"/>
</linearGradient>
<linearGradient id="paint38_linear_2779_423" x1="39" y1="-0.454902" x2="-26.15" y2="98.8427" gradientUnits="userSpaceOnUse">
<stop stop-color="#5163FF"/>
<stop offset="1" stop-color="#FE71B9"/>
</linearGradient>
<linearGradient id="paint39_linear_2779_423" x1="39" y1="-0.454902" x2="-26.15" y2="98.8427" gradientUnits="userSpaceOnUse">
<stop stop-color="#5163FF"/>
<stop offset="1" stop-color="#FE71B9"/>
</linearGradient>
</defs>
</svg>
