<svg width="202" height="190" viewBox="0 0 202 190" fill="none" xmlns="http://www.w3.org/2000/svg">
<path opacity="0.3" d="M18.5444 179.16C16.5567 184.395 20.4238 190 26.0234 190H52.1946C55.5173 190 58.4941 187.946 59.6736 184.84L86.0504 115.372C86.3949 114.465 86.5714 113.503 86.5714 112.532V8C86.5714 3.58172 82.9897 0 78.5714 0H7.99999C3.58171 0 0 3.58172 0 8V106C0 110.418 3.58172 114 8 114H31.6909C37.2905 114 41.1576 119.605 39.1699 124.84L18.5444 179.16ZM133.973 179.16C131.985 184.395 135.852 190 141.452 190H167.623C170.946 190 173.923 187.946 175.102 184.84L201.479 115.372C201.823 114.465 202 113.503 202 112.532V8C202 3.58172 198.418 0 194 0H123.429C119.01 0 115.429 3.58172 115.429 8V106C115.429 110.418 119.01 114 123.429 114H147.119C152.719 114 156.586 119.605 154.598 124.84L133.973 179.16Z" fill="url(#paint0_linear_2056_423)"/>
<defs>
<linearGradient id="paint0_linear_2056_423" x1="0" y1="0" x2="189.644" y2="201.622" gradientUnits="userSpaceOnUse">
<stop stop-color="#FFF5FA"/>
<stop offset="1" stop-color="#F5F5FF"/>
</linearGradient>
</defs>
</svg>
