<svg width="40" height="42" viewBox="0 0 40 42" fill="none" xmlns="http://www.w3.org/2000/svg">
<path fill-rule="evenodd" clip-rule="evenodd" d="M3.0952 29.0093C3.16139 29.4577 2.85139 29.8739 2.40504 29.9396C1.95456 30.0054 1.54122 29.695 1.47512 29.2465C1.40901 28.7989 1.71893 28.3818 2.16528 28.3161C2.61576 28.2513 3.03323 28.5612 3.0952 29.0093ZM25.4267 11.508C27.7095 14.0411 29.4131 16.2408 30.537 18.2143C32.6685 21.9568 32.141 25.7293 30.0512 28.4908L28.1879 29.5761C27.6865 29.8681 27.1757 30.0531 26.6478 30.1436C26.868 29.8509 27.0385 29.5007 27.1481 29.0945C27.5626 27.5582 26.6431 26.039 25.167 25.5275L25.0714 25.4944L24.972 25.4762C24.6308 25.4137 24.2916 25.3431 23.9544 25.2657C24.2557 24.8627 24.4325 24.3664 24.4182 23.7686C24.4157 23.6658 24.4099 23.5753 24.4005 23.498C24.2811 22.5136 23.7485 21.8729 23.0424 21.4465C22.4221 21.072 21.6783 20.8855 20.9963 20.7736C20.5044 20.6928 19.9864 20.5562 19.607 20.3085C19.313 20.1165 19.1021 19.8387 19.0824 19.4324C19.0611 18.9928 19.253 18.6382 19.5554 18.3923C19.7923 18.1997 20.0945 18.0659 20.4221 18C20.5539 17.9734 20.6896 17.9581 20.8265 17.9545C20.841 17.9554 20.8556 17.9559 20.8704 17.9559C20.8881 17.9559 20.9057 17.9552 20.9231 17.954C21.1042 17.9566 21.2866 17.9799 21.4648 18.025C22.0126 18.1639 22.5113 18.5249 22.774 19.1504C22.9313 19.5256 23.3631 19.7022 23.7382 19.5448C24.1134 19.3874 24.29 18.9556 24.1326 18.5804C23.6701 17.479 22.7896 16.8426 21.8217 16.5972C21.7507 16.5793 21.6792 16.5635 21.6073 16.5498V15.9788C21.6073 15.5718 21.2773 15.2419 20.8704 15.2419C20.4634 15.2419 20.1335 15.5718 20.1335 15.9788V16.5608C19.5752 16.6734 19.0509 16.909 18.6285 17.2524C17.9795 17.7801 17.568 18.5462 17.6144 19.5015C17.661 20.4613 18.1399 21.1051 18.8068 21.5404C19.388 21.9199 20.1019 22.1163 20.7603 22.2243C21.289 22.3111 21.8535 22.4484 22.2825 22.7073C22.6255 22.9144 22.8832 23.2171 22.9383 23.6707C22.9456 23.7311 22.9495 23.7751 22.9502 23.8031C22.9587 24.1638 22.7862 24.4385 22.5272 24.6352C22.4392 24.7019 22.3417 24.7612 22.2371 24.8132C20.3338 24.2534 18.5654 23.5276 16.6858 22.9179C14.7235 22.2812 12.8949 23.0017 11.1996 23.9838L10.045 24.6528C9.67755 22.6384 10.0086 20.4213 11.2654 18.2144C12.3895 16.241 14.093 14.0412 16.3757 11.5081C16.6621 11.6014 16.9676 11.6521 17.2845 11.6521H24.5181C24.8349 11.652 25.1402 11.6013 25.4267 11.508ZM17.2844 10.3283H24.518C25.4099 10.3283 26.1395 9.59855 26.1395 8.70694C26.1395 7.81507 25.41 7.08553 24.518 7.08553H17.2844C16.3925 7.08553 15.663 7.81507 15.663 8.70685C15.6629 9.59864 16.3925 10.3283 17.2844 10.3283ZM17.2254 5.76246L15.8936 4.4307C15.2457 3.78273 15.2457 2.72234 15.8936 2.07437C16.4448 1.5232 17.3172 1.43005 17.9731 1.85099C18.2167 2.00736 18.4965 2.03226 18.7639 1.92165C19.0312 1.81087 19.2113 1.59551 19.2731 1.31265C19.4364 0.564655 20.1061 0.000165467 20.9013 0C21.6822 0 22.3631 0.550425 22.5296 1.31265C22.5913 1.59551 22.7715 1.81087 23.0388 1.92165C23.3062 2.03243 23.5859 2.00736 23.8294 1.85099C24.4737 1.43749 25.3466 1.51203 25.9089 2.07421V2.07437C26.5569 2.72234 26.5569 3.78273 25.9089 4.4307L24.5772 5.76246C24.5575 5.76204 24.5379 5.76171 24.5181 5.76171H17.2845C17.2647 5.76171 17.245 5.76213 17.2254 5.76246ZM5.73779 28.6778L10.1534 36.4698L11.8149 35.5109C11.976 35.4175 12.1662 35.3927 12.3481 35.4411L22.7826 37.7391C24.163 38.1083 25.4608 37.9259 26.647 37.1969L39.318 29.3219C40.0082 28.8987 40.219 27.6563 39.7437 26.8607C39.0535 25.7084 37.2267 25.8444 34.8544 27.2252L28.8541 30.7199C27.6059 31.449 26.2585 31.685 24.7417 31.442C24.4648 31.3973 24.192 31.3497 23.9234 31.2981C23.8655 31.294 18.819 29.9821 18.2404 29.8263C17.8643 29.7262 17.6411 29.3419 17.7445 28.9687C17.8437 28.5943 18.228 28.3727 18.6 28.4728C19.1911 28.631 22.7703 29.6457 24.1135 29.9069C24.7996 29.9507 25.5973 29.7598 25.8701 28.7497C26.0933 27.9214 25.6055 27.0804 24.7335 26.7782C22.2826 26.3294 19.9143 25.4743 18.0131 24.7857C17.3477 24.5456 16.7732 24.3381 16.2772 24.1769C14.7148 23.6703 13.2311 24.3353 11.863 25.1292L5.73779 28.6778ZM9.99334 39.0448L3.23982 27.1113C3.17371 26.9947 3.06624 26.9112 2.93395 26.8744C2.88853 26.8624 2.84311 26.8562 2.79753 26.8562C2.71082 26.8562 2.62809 26.8782 2.55371 26.9203L0.25571 28.2202C0.0118954 28.3578 -0.070838 28.6665 0.0655065 28.9083L6.81903 40.8417C6.95545 41.0844 7.26546 41.1695 7.50513 41.0327L9.80313 39.7325C9.91888 39.6667 10.0015 39.5581 10.0387 39.4279C10.076 39.2973 10.0594 39.1613 9.99334 39.0448Z" fill="url(#paint0_linear_4897_3712)"/>
<defs>
<linearGradient id="paint0_linear_4897_3712" x1="-0.156863" y1="-4.71846e-07" x2="46.6653" y2="10.0525" gradientUnits="userSpaceOnUse">
<stop stop-color="#5163FF"/>
<stop offset="1" stop-color="#FE71B9"/>
</linearGradient>
</defs>
</svg>
