<svg width="127" height="87" viewBox="0 0 127 87" fill="none" xmlns="http://www.w3.org/2000/svg">
<g opacity="0.5" filter="url(#filter0_d_2056_416)">
<path d="M87.3173 19.9586C85.8638 17.5973 82.7925 16.8417 80.4246 18.3057L32.9026 47.6095C30.5347 49.0735 29.8079 52.1904 31.238 54.5517L31.5428 55.024L29.8782 56.0393C29.3156 56.3935 29.1514 57.1019 29.4796 57.6686L31.4724 60.9744L4.32371 77.6924C3.99549 77.905 3.90165 78.33 4.11265 78.6606C4.32365 78.9912 4.74566 79.0856 5.07388 78.9203L32.2227 62.1787L34.6609 66.1693C35.0126 66.736 35.7393 66.9013 36.2785 66.5707L37.9666 65.5081C39.5139 67.5153 42.3272 68.082 44.5545 66.7124L92.0531 37.4322C94.421 35.9682 95.1478 32.8749 93.7177 30.49L92.4048 28.3412L113.458 15.354L116.74 20.8086C117.186 21.517 118.077 21.7059 118.78 21.2809L122.297 19.1321C122.976 18.7071 123.211 17.7862 122.789 17.0778L112.848 0.713969C112.403 0.00557998 111.512 -0.206952 110.785 0.218082L107.292 2.39048C106.612 2.81551 106.401 3.73644 106.8 4.44483L109.965 9.63969L88.9116 22.6032L87.2939 19.9586L87.3173 19.9586ZM86.2858 29.8052L90.5058 36.7474C90.834 37.2669 90.6699 37.9753 90.1306 38.2823C89.6149 38.6129 88.9116 38.424 88.5834 37.9281L84.3633 30.9859C84.0585 30.4664 84.1992 29.758 84.7384 29.451C85.2542 29.0968 85.9341 29.2621 86.2623 29.8052L86.2858 29.8052ZM81.4093 32.8041L85.6293 39.7463C85.9341 40.2894 85.77 40.9742 85.2542 41.2811C84.7384 41.5881 84.0351 41.4464 83.7303 40.927L79.5103 33.9847C79.2055 33.4652 79.3696 32.7805 79.8854 32.4499C80.4012 32.1193 81.0811 32.3082 81.4093 32.8277L81.4093 32.8041ZM76.5563 35.8029L80.7528 42.7452C81.0811 43.2647 80.917 43.973 80.4012 44.28C79.862 44.6106 79.1821 44.4453 78.8538 43.9022L74.6573 36.96C74.3291 36.4405 74.4931 35.7321 75.0324 35.4251C75.5481 35.1182 76.2515 35.2835 76.5563 35.8029ZM71.6798 38.8018L75.8999 45.744C76.2281 46.2635 76.0405 46.9483 75.5247 47.2789C75.009 47.6095 74.3291 47.4442 74.0009 46.9011L69.7573 39.9588C69.4526 39.4393 69.6167 38.7546 70.1325 38.424C70.6482 38.0934 71.3516 38.2587 71.6798 38.8018ZM66.8034 41.8006L71.0234 48.7429C71.3516 49.286 71.1875 49.9708 70.6482 50.3013C70.1325 50.6083 69.4291 50.4666 69.1244 49.9235L64.9044 42.9813C64.5762 42.4618 64.7637 41.7534 65.2795 41.4465C65.8187 41.1395 66.4986 41.2811 66.8034 41.8242L66.8034 41.8006ZM61.9503 44.7995L66.1703 51.7417C66.4986 52.2612 66.3345 52.9696 65.7953 53.2766C65.2561 53.6072 64.5761 53.4419 64.2713 52.8988L60.0513 45.9565C59.7231 45.4134 59.8872 44.7287 60.4265 44.4217C60.9657 44.0911 61.6456 44.2564 61.9738 44.7759L61.9503 44.7995ZM57.0739 47.7984L61.2939 54.7406C61.5987 55.2601 61.458 55.9449 60.9188 56.2754C60.403 56.5824 59.7231 56.4171 59.3949 55.8976L55.1749 48.9554C54.8467 48.4123 55.0107 47.7275 55.55 47.3969C56.0657 47.0899 56.7691 47.2552 57.0973 47.7747L57.0739 47.7984ZM52.1974 50.7972L56.4175 57.7394C56.7457 58.2589 56.5581 58.9673 56.0423 59.2743C55.5266 59.6049 54.8466 59.4396 54.5184 58.8965L50.2984 51.9543C49.9702 51.4348 50.1577 50.7264 50.6735 50.4194C51.1893 50.1124 51.8692 50.2541 52.1974 50.7736L52.1974 50.7972ZM47.321 53.8197L51.541 60.7619C51.8926 61.2814 51.7051 61.9898 51.1893 62.2968C50.6501 62.6274 49.9467 62.4621 49.642 61.919L45.4454 54.9767C45.1171 54.4572 45.2579 53.7489 45.7971 53.4419C46.3363 53.1349 47.0162 53.2766 47.321 53.8197ZM42.4445 56.8185L46.6645 63.7608C46.9928 64.2803 46.8286 64.965 46.2894 65.2956C45.7736 65.6026 45.0938 65.4373 44.7655 64.8942L40.5455 57.9756C40.2172 57.4561 40.3814 56.7477 40.9206 56.4407C41.4364 56.1101 42.1397 56.299 42.4445 56.8185Z" fill="url(#paint0_linear_2056_416)"/>
</g>
<defs>
<filter id="filter0_d_2056_416" x="0" y="0" width="127" height="87" filterUnits="userSpaceOnUse" color-interpolation-filters="sRGB">
<feFlood flood-opacity="0" result="BackgroundImageFix"/>
<feColorMatrix in="SourceAlpha" type="matrix" values="0 0 0 0 0 0 0 0 0 0 0 0 0 0 0 0 0 0 127 0" result="hardAlpha"/>
<feOffset dy="4"/>
<feGaussianBlur stdDeviation="2"/>
<feComposite in2="hardAlpha" operator="out"/>
<feColorMatrix type="matrix" values="0 0 0 0 0.0619608 0 0 0 0 0.0235294 0 0 0 0 0.188235 0 0 0 0.42 0"/>
<feBlend mode="normal" in2="BackgroundImageFix" result="effect1_dropShadow_2056_416"/>
<feBlend mode="normal" in="SourceGraphic" in2="effect1_dropShadow_2056_416" result="shape"/>
</filter>
<linearGradient id="paint0_linear_2056_416" x1="4" y1="79.3098" x2="17.8687" y2="-15.3955" gradientUnits="userSpaceOnUse">
<stop stop-color="#5163FF"/>
<stop offset="1" stop-color="#FE71B9"/>
</linearGradient>
</defs>
</svg>
