<svg width="40" height="54" viewBox="0 0 40 54" fill="none" xmlns="http://www.w3.org/2000/svg">
<path d="M32.6266 25.8038C33.051 26.7809 33.2991 27.9781 33.3525 29.3623C34.7807 29.6912 35.8527 30.9692 35.8527 32.497C35.8527 34.27 34.4085 35.7142 32.6349 35.7142C30.8613 35.7142 29.4177 34.27 29.4177 32.497C29.4177 30.9876 30.4636 29.7209 31.8686 29.3754C31.8068 28.0007 31.4792 25.9101 30.133 24.8773C29.4474 24.6986 28.7404 24.571 28.0157 24.5039C27.9628 26.9121 20.003 32.8549 20.003 32.8549C20.003 32.8549 12.0413 26.9126 11.9873 24.5045C11.183 24.5781 10.4007 24.7259 9.64445 24.9366C8.66267 25.7154 8.15516 27.1625 8.12904 29.2668C8.41693 29.4324 8.6502 29.6924 8.79385 30.0058C9.85101 30.505 10.7853 31.5538 11.5006 33.0508C11.6205 33.3025 11.6365 33.5862 11.548 33.8462C11.9772 34.9497 12.2218 36.1564 12.2218 37.1679C12.2218 38.5877 12.2218 39.9292 10.6749 40.2735C10.5075 40.413 10.298 40.4889 10.0778 40.4889H9.04434C8.52555 40.4889 8.10411 40.0669 8.10411 39.5487L8.1053 39.5113C8.12489 39.0127 8.54336 38.6085 9.04434 38.6085H10.0778C10.1834 38.6085 10.2873 38.6257 10.387 38.6619C10.4493 38.6435 10.4689 38.6287 10.4689 38.6287C10.5841 38.4251 10.5841 37.5757 10.5841 37.1673C10.5841 36.344 10.3781 35.3515 10.0172 34.4285C9.83024 34.3211 9.67887 34.1608 9.58509 33.9667C8.95886 32.6543 8.10649 31.8067 7.41438 31.8067C6.70624 31.8067 5.81172 32.7232 5.18727 34.086C5.08577 34.3074 4.9071 34.4897 4.68689 34.5959C4.36042 35.4792 4.18175 36.3891 4.18175 37.1673C4.18175 37.5104 4.18175 38.4191 4.31234 38.6328C4.31412 38.6328 4.34321 38.65 4.42453 38.6702C4.53196 38.6305 4.64652 38.6085 4.76168 38.6085H5.79688C6.27946 38.6085 6.68249 38.9759 6.73117 39.4537L6.73651 39.5119C6.73651 40.0681 6.31507 40.4889 5.79688 40.4889H4.76168C4.5563 40.4889 4.35745 40.4207 4.19422 40.2966C3.60242 40.1844 3.18573 39.9239 2.92159 39.4983C2.60224 38.9848 2.54348 38.3111 2.54348 37.1673C2.54348 36.1641 2.77497 35.0084 3.19582 33.9062C3.1335 33.6711 3.15486 33.4236 3.25755 33.201C3.69621 32.2436 4.25358 31.4226 4.86852 30.8291C5.20746 30.502 5.57132 30.2402 5.9518 30.0491C6.09426 29.7149 6.34178 29.4419 6.64451 29.2691C6.66053 27.949 6.86354 26.8105 7.23808 25.8715C2.94296 28.0499 0 32.5071 0 37.6534C0 44.2291 4.80501 44.5514 11.0946 44.5514C11.7813 44.5514 12.4841 44.5466 13.2024 44.5466H19.02C19.1761 44.3994 19.3417 44.2392 19.5204 44.0635C20.3223 43.2681 20.8102 42.6976 21.107 42.3059C19.9359 40.8148 19.3346 38.7711 21.7421 35.7961C22.8682 34.403 24.1444 33.6978 25.5321 33.6978C27.4346 33.6978 28.6912 35.0298 29.4533 35.8377C29.5447 35.9368 29.6361 36.0318 29.7186 36.1173C31.4466 37.8576 31.1616 41.092 29.2972 44.5496C35.3932 44.5342 40 44.0914 40 37.6534C40.0018 32.4513 36.9959 27.9567 32.6266 25.8038Z" fill="url(#paint0_linear_4897_21138)"/>
<path d="M20.004 26.2302C26.084 26.2302 31.0125 17.0873 31.0125 11.0073C31.0131 4.92847 26.084 0 20.004 0C13.9246 0 8.99609 4.92847 8.99609 11.0073C8.99609 17.0879 13.9246 26.2302 20.004 26.2302Z" fill="url(#paint1_linear_4897_21138)"/>
<path d="M32.633 33.9808C33.4529 33.9808 34.1175 33.3161 34.1175 32.4963C34.1175 31.6764 33.4529 31.0117 32.633 31.0117C31.8131 31.0117 31.1484 31.6764 31.1484 32.4963C31.1484 33.3161 31.8131 33.9808 32.633 33.9808Z" fill="url(#paint2_linear_4897_21138)"/>
<path d="M28.3154 37.5088C28.2139 37.4067 28.1106 37.2986 28.0056 37.1853C27.3722 36.5127 26.5834 35.6758 25.5339 35.6758C24.7605 35.6758 24.0256 36.121 23.2825 37.038C21.316 39.4676 22.0199 40.5022 23.2267 41.7024L23.4101 41.884C23.5146 41.9897 23.4309 42.401 23.0011 43.0557C22.5791 43.7004 21.8787 44.5112 20.9147 45.4668C18.633 47.7313 17.7325 47.9771 17.4512 47.9771C17.3574 47.9771 17.3325 47.9504 17.3164 47.9349L17.1354 47.7521C16.562 47.1645 15.9684 46.5578 15.0507 46.5578C14.3295 46.5578 13.5069 46.9437 12.4705 47.7705C11.5789 48.4834 11.1296 49.1921 11.0957 49.9383C11.0471 51.0221 11.9006 51.8383 12.5827 52.496C12.6966 52.6034 12.8046 52.7061 12.9067 52.81C13.3027 53.2089 13.9324 53.422 14.7278 53.422C16.6309 53.422 20.168 52.1179 23.8719 48.4424C28.4104 43.9354 29.8569 39.0639 28.3154 37.5088Z" fill="url(#paint3_linear_4897_21138)"/>
<defs>
<linearGradient id="paint0_linear_4897_21138" x1="-0.156863" y1="24.5039" x2="40.875" y2="42.5633" gradientUnits="userSpaceOnUse">
<stop stop-color="#5163FF"/>
<stop offset="1" stop-color="#FE71B9"/>
</linearGradient>
<linearGradient id="paint1_linear_4897_21138" x1="8.90976" y1="-3.01149e-07" x2="34.9755" y2="4.8261" gradientUnits="userSpaceOnUse">
<stop stop-color="#5163FF"/>
<stop offset="1" stop-color="#FE71B9"/>
</linearGradient>
<linearGradient id="paint2_linear_4897_21138" x1="31.1368" y1="31.0117" x2="34.6038" y2="31.7765" gradientUnits="userSpaceOnUse">
<stop stop-color="#5163FF"/>
<stop offset="1" stop-color="#FE71B9"/>
</linearGradient>
<linearGradient id="paint3_linear_4897_21138" x1="11.0239" y1="35.6758" x2="31.8202" y2="40.2813" gradientUnits="userSpaceOnUse">
<stop stop-color="#5163FF"/>
<stop offset="1" stop-color="#FE71B9"/>
</linearGradient>
</defs>
</svg>
