<svg width="66" height="66" viewBox="0 0 66 66" fill="none" xmlns="http://www.w3.org/2000/svg">
<circle cx="33" cy="33" r="32" stroke="url(#paint0_linear_8150_711)" stroke-width="2"/>
<foreignObject x="-2" y="-2" width="70" height="70"><div xmlns="http://www.w3.org/1999/xhtml" style="backdrop-filter:blur(2px);clip-path:url(#bgblur_0_8150_711_clip_path);height:100%;width:100%"></div></foreignObject><g filter="url(#filter0_i_8150_711)" data-figma-bg-blur-radius="4">
<circle cx="33" cy="33" r="31" fill="#5163FF" fill-opacity="0.09"/>
</g>
<path d="M19.1261 27.9784C20.9231 27.9784 22.3879 26.5198 22.3879 24.7227C22.3879 22.9195 20.9231 21.4609 19.1261 21.4609C17.3228 21.4609 15.8643 22.9195 15.8643 24.7227C15.8643 26.5198 17.3228 27.9784 19.1261 27.9784Z" fill="white"/>
<path d="M27.0834 38.8923C26.9296 38.0553 26.1603 37.4521 25.3233 37.4768L22.997 37.526L22.6339 33.3164C23.9201 33.9811 25.9203 34.2765 28.2466 34.1349C28.9974 34.0857 29.5883 33.458 29.5883 32.701C29.5883 31.9132 28.9482 31.267 28.1543 31.267H26.905C25.551 31.267 24.2217 30.8978 23.0585 30.2085L21.3538 29.1869C20.6275 28.7499 19.9013 28.5099 19.1813 28.473C17.5258 28.3745 16.4303 29.1745 16.0364 30.787C15.8825 31.4086 15.8641 32.1163 15.981 32.8733L16.8426 38.3445C17.1073 40.0185 18.5289 41.2309 20.2275 41.2309H23.8647C24.0186 41.2309 24.1478 41.3417 24.1786 41.4955L25.5018 48.6961C25.5879 49.1515 25.8649 49.5516 26.2588 49.7977C26.5172 49.9578 26.8188 50.0378 27.1204 50.0378C27.2742 50.0378 27.4342 50.0193 27.582 49.9701C28.3882 49.73 28.8805 48.93 28.7328 48.1053L27.0834 38.8923Z" fill="white"/>
<path d="M23.6803 42.9724C23.6803 42.6339 23.4034 42.3631 23.071 42.3631H18.9476C17.3721 42.3631 16.0243 41.2369 15.7412 39.686C15.0519 35.9134 14.2642 31.5561 14.2026 31.2792C14.1411 30.9961 13.8887 30.793 13.6056 30.793C13.5626 30.793 13.5195 30.7991 13.4826 30.8053C13.1502 30.873 12.941 31.1992 13.0148 31.5315C13.0518 31.7407 13.6118 34.7933 14.5349 39.9014C14.7565 41.12 15.4704 42.1847 16.5043 42.8616L14.5103 49.5699C14.418 49.8899 14.6026 50.2345 14.9227 50.3269C14.9781 50.3453 15.0396 50.3515 15.095 50.3515C15.3658 50.3515 15.6058 50.173 15.6797 49.9145L17.6244 43.3786C18.0552 43.514 18.4983 43.5817 18.9476 43.5817H20.9539L22.4802 49.736C22.5479 50.0068 22.7941 50.1976 23.071 50.1976C23.1203 50.1976 23.1695 50.1915 23.2187 50.1791C23.5449 50.0991 23.748 49.7668 23.668 49.4406L22.2156 43.5817H23.0772C23.4034 43.5817 23.6803 43.3047 23.6803 42.9724Z" fill="white"/>
<path d="M46.8761 27.9784C48.6731 27.9784 50.1379 26.5198 50.1379 24.7227C50.1379 22.9195 48.6731 21.4609 46.8761 21.4609C45.079 21.4609 43.6143 22.9195 43.6143 24.7227C43.6143 26.5198 45.079 27.9784 46.8761 27.9784Z" fill="white"/>
<path d="M49.16 38.3482L50.0339 32.7908C50.1262 32.2 50.1324 31.6769 50.0462 31.1907C49.7324 29.3136 48.6061 28.372 46.8214 28.4766C46.1013 28.5197 45.3689 28.7536 44.6489 29.1905L42.938 30.2121C41.7809 30.9014 40.4516 31.2707 39.0977 31.2707H37.8422C37.0544 31.2707 36.4082 31.9169 36.4082 32.7046C36.4082 33.4616 36.999 34.0894 37.756 34.1386C40.0762 34.2802 42.0702 33.9847 43.3626 33.3201L42.9564 37.5666L40.6732 37.4804H40.6116C39.7869 37.4804 39.0669 38.0774 38.9192 38.8959L37.2637 48.109C37.116 48.9336 37.6145 49.7337 38.4145 49.9737C38.5684 50.023 38.7284 50.0414 38.8822 50.0414C39.1838 50.0414 39.4792 49.9614 39.7439 49.8014C40.1377 49.5552 40.4147 49.1552 40.5008 48.6998L41.824 41.4992C41.8548 41.3453 41.984 41.2346 42.1379 41.2346H45.7751C47.4737 41.2346 48.8954 40.0222 49.16 38.3482Z" fill="white"/>
<path d="M51.4604 39.9031C52.3404 35.0288 52.9374 31.7485 52.9867 31.5393C53.0544 31.2131 52.8451 30.8869 52.5128 30.8131C52.4697 30.8069 52.4266 30.8008 52.3835 30.8008C52.0943 30.8008 51.8481 30.9977 51.7866 31.2808C51.7066 31.6685 50.2726 39.6076 50.2541 39.6877C49.971 41.2385 48.6232 42.3648 47.0477 42.3648H42.9243C42.5858 42.3648 42.315 42.6417 42.315 42.9741C42.315 43.3126 42.592 43.5834 42.9243 43.5834H43.7798L42.3273 49.4423C42.2904 49.6023 42.315 49.7623 42.395 49.9039C42.4812 50.0454 42.6104 50.1439 42.7704 50.1808C42.8197 50.1931 42.8689 50.1993 42.9181 50.1993C43.2012 50.1993 43.4413 50.0085 43.509 49.7377L45.0352 43.5834H47.0416C47.4847 43.5834 47.9278 43.5157 48.3647 43.3803L50.3095 49.9162C50.3895 50.1747 50.6234 50.3531 50.8942 50.3531C50.9496 50.3531 51.0111 50.347 51.0665 50.3285C51.3865 50.2362 51.5712 49.8916 51.4788 49.5715L49.491 42.8571C50.5311 42.1863 51.2388 41.1216 51.4604 39.9031Z" fill="white"/>
<path d="M35.4841 48.5751H33.607V36.5311H41.6323C41.9708 36.5311 42.2416 36.2541 42.2416 35.9218C42.2416 35.5833 41.9646 35.3125 41.6323 35.3125H24.3632C24.0247 35.3125 23.7539 35.5894 23.7539 35.9218C23.7539 36.2603 24.0309 36.5311 24.3632 36.5311H32.3884V48.5751H30.4929C30.1544 48.5751 29.8836 48.8521 29.8836 49.1844C29.8836 49.5229 30.1606 49.7937 30.4929 49.7937H32.9485H33.0039H35.4902C35.8287 49.7937 36.0995 49.5167 36.0995 49.1844C36.0934 48.8521 35.8226 48.5751 35.4841 48.5751Z" fill="white"/>
<path d="M27.6006 22.3637H32.9795L35.8289 25.2009C35.8843 25.2624 35.9643 25.2932 36.0443 25.2932C36.0751 25.2932 36.1059 25.2871 36.1367 25.2748C36.2474 25.244 36.3274 25.1455 36.3397 25.0347L36.7398 22.3637H38.4015C38.7276 22.3637 38.9923 22.0991 38.9923 21.7729V14.5847C38.9923 14.2646 38.7276 14 38.4015 14H27.6006C27.2744 14 27.0098 14.2646 27.0098 14.5847V21.7729C27.0098 22.0991 27.2744 22.3637 27.6006 22.3637ZM29.3423 19.9882C29.3423 19.822 29.4777 19.6866 29.65 19.6866H36.3521C36.5182 19.6866 36.6536 19.822 36.6536 19.9882C36.6536 20.1605 36.5182 20.2959 36.3521 20.2959H29.65C29.4777 20.2959 29.3423 20.1605 29.3423 19.9882ZM29.3423 18.1788C29.3423 18.0126 29.4777 17.8772 29.65 17.8772H36.3521C36.5182 17.8772 36.6536 18.0126 36.6536 18.1788C36.6536 18.3511 36.5182 18.4865 36.3521 18.4865H29.65C29.4777 18.4865 29.3423 18.3511 29.3423 18.1788ZM36.3521 16.6771H29.65C29.4777 16.6771 29.3423 16.5417 29.3423 16.3694C29.3423 16.2033 29.4777 16.0679 29.65 16.0679H36.3521C36.5182 16.0679 36.6536 16.2033 36.6536 16.3694C36.6536 16.5417 36.5182 16.6771 36.3521 16.6771Z" fill="white"/>
<defs>
<filter id="filter0_i_8150_711" x="-2" y="-2" width="70" height="70" filterUnits="userSpaceOnUse" color-interpolation-filters="sRGB">
<feFlood flood-opacity="0" result="BackgroundImageFix"/>
<feBlend mode="normal" in="SourceGraphic" in2="BackgroundImageFix" result="shape"/>
<feColorMatrix in="SourceAlpha" type="matrix" values="0 0 0 0 0 0 0 0 0 0 0 0 0 0 0 0 0 0 127 0" result="hardAlpha"/>
<feOffset dx="-3" dy="-3"/>
<feGaussianBlur stdDeviation="2"/>
<feComposite in2="hardAlpha" operator="arithmetic" k2="-1" k3="1"/>
<feColorMatrix type="matrix" values="0 0 0 0 1 0 0 0 0 1 0 0 0 0 1 0 0 0 0.07 0"/>
<feBlend mode="normal" in2="shape" result="effect1_innerShadow_8150_711"/>
</filter>
<clipPath id="bgblur_0_8150_711_clip_path" transform="translate(2 2)"><circle cx="33" cy="33" r="31"/>
</clipPath><linearGradient id="paint0_linear_8150_711" x1="38.5" y1="-20" x2="59.5" y2="52.5" gradientUnits="userSpaceOnUse">
<stop stop-color="#FE71B9"/>
<stop offset="1" stop-color="#5163FF"/>
</linearGradient>
</defs>
</svg>
