<svg width="40" height="41" viewBox="0 0 40 41" fill="none" xmlns="http://www.w3.org/2000/svg">
<path d="M19.0474 0V37.3539C19.0474 37.3539 18.944 40.3655 16.523 40.4393C14.2447 40.5082 14.0232 37.787 14.0035 36.4239C13.6788 36.4239 13.418 36.6847 13.418 37.0095C13.418 39.7504 15.0172 41.0003 16.4984 41.0003C18.0583 41.0003 19.6379 39.6323 19.6379 37.0095V0.585577C19.6379 0.260803 19.3771 0 19.0523 0L19.0474 0Z" fill="white"/>
<path d="M16.5291 40.4344C18.9502 40.3606 19.0535 37.349 19.0535 37.349V0C18.7288 0 18.468 0.260803 18.468 0.585577V37.0095C18.468 38.9434 17.4493 39.8242 16.5045 39.8242C15.5597 39.8242 14.6002 38.9434 14.6002 37.0095C14.6002 36.6847 14.3394 36.4239 14.0195 36.4239C14.0392 37.787 14.2607 40.5082 16.539 40.4393L16.5291 40.4344Z" fill="white"/>
<path d="M19.0436 2.78125C9.5267 2.78125 0.344457 11.1171 0 21.5394C0 21.5394 1.73213 20.4667 3.63648 20.4175C3.96126 17.8439 4.77811 14.8619 6.51024 11.747C10.4961 4.58719 19.0436 2.78125 19.0436 2.78125Z" fill="#5163FF"/>
<path d="M7.72787 21.5394C8.03788 7.22475 19.0458 2.78125 19.0458 2.78125C19.0458 2.78125 10.4983 4.58719 6.51243 11.747C4.7803 14.8619 3.96345 17.8439 3.63867 20.4175C3.68296 20.4175 3.72725 20.4175 3.77153 20.4175C5.77923 20.4175 7.72787 21.5443 7.72787 21.5443V21.5394Z" fill="url(#paint0_linear_4897_19526)"/>
<path d="M19.0401 2.77734C19.0401 2.77734 18.9564 2.81179 18.8137 2.87576C18.0559 3.50562 14.1881 7.33402 13.4746 20.2659C16.7814 20.2905 19.0401 21.5355 19.0401 21.5355V2.77734Z" fill="url(#paint1_linear_4897_19526)"/>
<path d="M19.0444 2.77836C17.3025 3.46235 8.00705 8.42746 7.72656 21.5365C7.72656 21.5365 9.59647 20.262 13.3855 20.262C13.415 20.262 13.4446 20.262 13.479 20.262C14.1925 7.33504 18.1931 3.34425 19.0444 2.77344V2.77836Z" fill="#5163FF"/>
<path d="M30.3726 21.5394C30.0626 7.22475 19.0547 2.78125 19.0547 2.78125C19.0547 2.78125 22.9766 6.89013 24.1477 13.799C24.63 16.653 24.876 18.7788 24.9794 20.3683C25.0433 20.3683 25.1073 20.3683 25.1762 20.3683C27.858 20.3683 30.3775 21.5443 30.3775 21.5443L30.3726 21.5394Z" fill="url(#paint2_linear_4897_19526)"/>
<path d="M19.0469 2.78125V21.5394C19.0469 21.5394 21.5024 20.4125 24.9715 20.3683C24.8633 18.7788 24.6222 16.653 24.1399 13.799C22.9688 6.89013 19.0469 2.78125 19.0469 2.78125Z" fill="#5163FF"/>
<path d="M19.045 2.78125C19.045 2.78125 30.0529 7.22475 30.3629 21.5394C30.3629 21.5394 32.7544 20.511 35.6872 20.511C35.8201 20.511 35.948 20.511 36.076 20.5208C35.5396 18.3606 34.2405 14.7782 30.9337 9.98533C26.7904 3.97701 19.0352 2.78125 19.0352 2.78125H19.045Z" fill="#5163FF"/>
<path d="M19.043 2.78125C19.043 2.78125 26.7982 3.97701 30.9415 9.98533C34.2483 14.7782 35.5425 18.3606 36.0838 20.5208C38.3769 20.6192 40.0007 21.5394 40.0007 21.5394C39.6563 11.1171 28.5598 2.78125 19.0479 2.78125H19.043Z" fill="url(#paint3_linear_4897_19526)"/>
<defs>
<linearGradient id="paint0_linear_4897_19526" x1="3.57825" y1="2.78125" x2="21.8451" y2="6.08998" gradientUnits="userSpaceOnUse">
<stop stop-color="#5163FF"/>
<stop offset="1" stop-color="#FE71B9"/>
</linearGradient>
<linearGradient id="paint1_linear_4897_19526" x1="13.4528" y1="2.77734" x2="20.2387" y2="3.22146" gradientUnits="userSpaceOnUse">
<stop stop-color="#5163FF"/>
<stop offset="1" stop-color="#FE71B9"/>
</linearGradient>
<linearGradient id="paint2_linear_4897_19526" x1="19.0103" y1="2.78125" x2="32.6338" y2="4.59476" gradientUnits="userSpaceOnUse">
<stop stop-color="#5163FF"/>
<stop offset="1" stop-color="#FE71B9"/>
</linearGradient>
<linearGradient id="paint3_linear_4897_19526" x1="18.9608" y1="2.78125" x2="43.1543" y2="8.74385" gradientUnits="userSpaceOnUse">
<stop stop-color="#5163FF"/>
<stop offset="1" stop-color="#FE71B9"/>
</linearGradient>
</defs>
</svg>
