<svg width="50" height="50" viewBox="0 0 50 50" fill="none" xmlns="http://www.w3.org/2000/svg">
<path d="M47.915 49.9997H2.08326C0.932259 49.9997 0 49.0674 0 47.9164V6.25123C0 5.10023 0.932259 4.16797 2.08326 4.16797H47.915C49.066 4.16797 49.9982 5.10023 49.9982 6.25123V47.9164C49.9982 49.0674 49.066 49.9997 47.915 49.9997Z" fill="url(#paint0_linear_2617_14163)"/>
<path d="M49.9982 12.501H0V6.25123C0 5.10023 0.932259 4.16797 2.08326 4.16797H47.915C49.066 4.16797 49.9982 5.10023 49.9982 6.25123V12.501Z" fill="#5163FF"/>
<path d="M44.7903 10.4177C45.9413 10.4177 46.8735 9.48549 46.8735 8.33449V4.16797H42.707V8.33449C42.707 9.48549 43.6393 10.4177 44.7903 10.4177Z" fill="white" fill-opacity="0.28"/>
<path d="M7.29224 10.4177C8.44324 10.4177 9.3755 9.48549 9.3755 8.33449V4.16797H5.20898V8.33449C5.20898 9.48549 6.14124 10.4177 7.29224 10.4177Z" fill="white" fill-opacity="0.28"/>
<path d="M19.7903 10.4177C20.9413 10.4177 21.8735 9.48549 21.8735 8.33449V4.16797H17.707V8.33449C17.707 9.48549 18.6393 10.4177 19.7903 10.4177Z" fill="white" fill-opacity="0.28"/>
<path d="M32.2903 10.4177C33.4413 10.4177 34.3735 9.48549 34.3735 8.33449V4.16797H30.207V8.33449C30.207 9.48549 31.1393 10.4177 32.2903 10.4177Z" fill="white" fill-opacity="0.28"/>
<path d="M6.25123 10.4163C5.10023 10.4163 4.16797 9.48404 4.16797 8.33304V2.08326C4.16797 0.932258 5.10023 0 6.25123 0C7.40223 0 8.33449 0.932258 8.33449 2.08326V8.33304C8.33449 9.48404 7.40223 10.4163 6.25123 10.4163ZM20.834 8.33304V2.08326C20.834 0.932258 19.9018 0 18.7508 0C17.5998 0 16.6675 0.932258 16.6675 2.08326V8.33304C16.6675 9.48404 17.5998 10.4163 18.7508 10.4163C19.9018 10.4163 20.834 9.48404 20.834 8.33304ZM33.3336 8.33304V2.08326C33.3336 0.932258 32.4013 0 31.2503 0C30.0993 0 29.1671 0.932258 29.1671 2.08326V8.33304C29.1671 9.48404 30.0993 10.4163 31.2503 10.4163C32.4013 10.4163 33.3336 9.48404 33.3336 8.33304ZM45.8332 8.33304V2.08326C45.8332 0.932258 44.9009 0 43.7499 0C42.5989 0 41.6666 0.932258 41.6666 2.08326V8.33304C41.6666 9.48404 42.5989 10.4163 43.7499 10.4163C44.9009 10.4163 45.8332 9.48404 45.8332 8.33304Z" fill="url(#paint1_linear_2617_14163)"/>
<path d="M0 12.5H49.9982V13.5416H0V12.5Z" fill="#D2CCFF"/>
<path d="M10.4177 29.1675C13.8694 29.1675 16.6675 26.3694 16.6675 22.9177C16.6675 19.4661 13.8694 16.668 10.4177 16.668C6.96609 16.668 4.16797 19.4661 4.16797 22.9177C4.16797 26.3694 6.96609 29.1675 10.4177 29.1675Z" fill="url(#paint2_linear_2617_14163)"/>
<path d="M39.5818 29.1675C43.0335 29.1675 45.8316 26.3694 45.8316 22.9177C45.8316 19.4661 43.0335 16.668 39.5818 16.668C36.1302 16.668 33.332 19.4661 33.332 22.9177C33.332 26.3694 36.1302 29.1675 39.5818 29.1675Z" fill="#D2CCFF"/>
<path d="M10.4177 43.7496C13.8694 43.7496 16.6675 40.9514 16.6675 37.4998C16.6675 34.0481 13.8694 31.25 10.4177 31.25C6.96609 31.25 4.16797 34.0481 4.16797 37.4998C4.16797 40.9514 6.96609 43.7496 10.4177 43.7496Z" fill="#D2CCFF"/>
<path d="M24.9998 43.7496C28.4514 43.7496 31.2496 40.9514 31.2496 37.4998C31.2496 34.0481 28.4514 31.25 24.9998 31.25C21.5481 31.25 18.75 34.0481 18.75 37.4998C18.75 40.9514 21.5481 43.7496 24.9998 43.7496Z" fill="#D2CCFF"/>
<path d="M39.5818 43.7496C43.0335 43.7496 45.8316 40.9514 45.8316 37.4998C45.8316 34.0481 43.0335 31.25 39.5818 31.25C36.1302 31.25 33.332 34.0481 33.332 37.4998C33.332 40.9514 36.1302 43.7496 39.5818 43.7496Z" fill="#D2CCFF"/>
<path d="M24.9998 29.1675C28.4514 29.1675 31.2496 26.3694 31.2496 22.9177C31.2496 19.4661 28.4514 16.668 24.9998 16.668C21.5481 16.668 18.75 19.4661 18.75 22.9177C18.75 26.3694 21.5481 29.1675 24.9998 29.1675Z" fill="url(#paint3_linear_2617_14163)"/>
<path d="M9.3732 26.043C9.10654 26.043 8.83988 25.9409 8.63676 25.7378L6.5535 23.6546C6.14623 23.2473 6.14623 22.589 6.5535 22.1817C6.96078 21.7744 7.61909 21.7744 8.02637 22.1817L9.3732 23.5285L12.8033 20.0984C13.2106 19.6911 13.8689 19.6911 14.2761 20.0984C14.6834 20.5057 14.6834 21.164 14.2761 21.5713L10.1096 25.7378C9.90651 25.9409 9.63985 26.043 9.3732 26.043Z" fill="white"/>
<path d="M23.9572 26.043C23.6905 26.043 23.4239 25.9409 23.2207 25.7378L21.1375 23.6546C20.7302 23.2473 20.7302 22.589 21.1375 22.1817C21.5448 21.7744 22.2031 21.7744 22.6104 22.1817L23.9572 23.5285L27.3873 20.0984C27.7945 19.6911 28.4529 19.6911 28.8601 20.0984C29.2674 20.5057 29.2674 21.164 28.8601 21.5713L24.6936 25.7378C24.4905 25.9409 24.2238 26.043 23.9572 26.043Z" fill="white"/>
<defs>
<linearGradient id="paint0_linear_2617_14163" x1="0" y1="4.16797" x2="45.6587" y2="53.9775" gradientUnits="userSpaceOnUse">
<stop stop-color="#FFF5FA"/>
<stop offset="1" stop-color="#F5F5FF"/>
</linearGradient>
<linearGradient id="paint1_linear_2617_14163" x1="4.16797" y1="0" x2="9.06976" y2="19.6071" gradientUnits="userSpaceOnUse">
<stop stop-color="#FE98F7"/>
<stop offset="1" stop-color="#EEEFFF"/>
</linearGradient>
<linearGradient id="paint2_linear_2617_14163" x1="4.11895" y1="16.668" x2="18.7146" y2="19.8876" gradientUnits="userSpaceOnUse">
<stop stop-color="#5163FF"/>
<stop offset="1" stop-color="#FE71B9"/>
</linearGradient>
<linearGradient id="paint3_linear_2617_14163" x1="18.701" y1="16.668" x2="33.2966" y2="19.8876" gradientUnits="userSpaceOnUse">
<stop stop-color="#5163FF"/>
<stop offset="1" stop-color="#FE71B9"/>
</linearGradient>
</defs>
</svg>
