<svg width="40" height="36" viewBox="0 0 40 36" fill="none" xmlns="http://www.w3.org/2000/svg">
<path fill-rule="evenodd" clip-rule="evenodd" d="M0 33.1104V35.2749H40V33.1104H0ZM25.3922 31.9676H30.0869V19.4727C28.7047 20.9613 27.11 22.3283 25.3922 23.4998V31.9676ZM17.6527 31.9676H22.3475V25.3006C22.1498 25.4004 21.9513 25.4976 21.7521 25.5918C20.414 26.2247 19.0438 26.7321 17.6527 27.1131L17.6527 31.9676ZM9.91314 31.9676H14.608V27.7408C13.514 27.8936 12.4123 27.9704 11.3082 27.9704C10.8434 27.9704 10.3784 27.9568 9.91322 27.9296L9.91314 31.9676ZM33.9032 9.55069C34.1624 9.71592 34.3175 9.98702 34.3282 10.2948L34.578 17.53C34.5895 17.8731 34.4116 18.1914 34.1137 18.361C33.8147 18.5305 33.45 18.5203 33.1619 18.3346L33.1317 18.3152V31.9677H37.8265V0H33.1317V9.44988C33.3917 9.36645 33.6681 9.40155 33.9032 9.55069ZM2.17355 31.9676H6.86841V22.9225H2.17355V31.9676ZM22.3474 11.4613H17.6526V22.8411C19.4651 21.8904 21.0252 20.8309 22.3474 19.7754V11.4613ZM26.3056 13.9226C26.0188 13.7385 25.859 13.4127 25.8873 13.0727C25.9161 12.7328 26.1285 12.4384 26.4417 12.3043L30.0869 10.7466V5.73078H25.3922V16.9687C26.2558 16.0491 26.9105 15.2276 27.3669 14.6054L26.3056 13.9226ZM14.6079 17.1919H9.91306V25.6243C11.6052 25.2626 13.1683 24.7832 14.6079 24.2244V17.1919ZM31.9438 16.1918L33.4212 17.1424L33.1977 10.6603L27.2787 13.1896L28.4882 13.9682C28.6181 14.0517 28.7086 14.1847 28.7389 14.3361C28.77 14.488 28.7373 14.6454 28.65 14.7725C27.1717 16.9205 24.4965 20.0458 20.1455 22.7384C17.0198 24.6727 13.602 26.0278 9.94473 26.7856C19.0796 27.3263 26.9947 22.2387 31.1687 16.342C31.3449 16.0926 31.6868 16.0265 31.9438 16.1918Z" fill="url(#paint0_linear_4897_3698)"/>
<defs>
<linearGradient id="paint0_linear_4897_3698" x1="-0.156863" y1="-4.04992e-07" x2="45.9394" y2="11.5303" gradientUnits="userSpaceOnUse">
<stop stop-color="#5163FF"/>
<stop offset="1" stop-color="#FE71B9"/>
</linearGradient>
</defs>
</svg>
