<svg width="319" height="193" viewBox="0 0 319 193" fill="none" xmlns="http://www.w3.org/2000/svg">
<g style="mix-blend-mode:multiply">
<path d="M179 129.652C179 130.565 170.717 131.305 160.5 131.305C150.283 131.305 142 130.565 142 129.652C142 128.74 150.283 128 160.5 128C170.717 128 179 128.74 179 129.652Z" fill="white"/>
<path d="M178.915 129.65C178.915 130.556 170.671 131.289 160.5 131.289C150.328 131.289 142.084 130.556 142.084 129.65C142.084 128.745 150.328 128.012 160.5 128.012C170.671 128.012 178.915 128.745 178.915 129.65Z" fill="#FEFEFE"/>
<path d="M178.827 129.65C178.827 130.547 170.619 131.273 160.495 131.273C150.372 131.273 142.164 130.547 142.164 129.65C142.164 128.754 150.372 128.027 160.495 128.027C170.619 128.027 178.827 128.754 178.827 129.65Z" fill="#FEFEFE"/>
<path d="M178.743 129.652C178.743 130.54 170.575 131.262 160.499 131.262C150.423 131.262 142.252 130.542 142.252 129.652C142.252 128.763 150.42 128.043 160.499 128.043C170.578 128.043 178.743 128.763 178.743 129.652Z" fill="#FDFDFD"/>
<path d="M178.66 129.648C178.66 130.529 170.528 131.242 160.5 131.242C150.472 131.242 142.34 130.529 142.34 129.648C142.34 128.768 150.472 128.055 160.5 128.055C170.528 128.055 178.66 128.768 178.66 129.648Z" fill="#FDFDFD"/>
<path d="M178.573 129.654C178.573 130.526 170.481 131.234 160.498 131.234C150.514 131.234 142.422 130.528 142.422 129.654C142.422 128.78 150.514 128.074 160.498 128.074C170.481 128.074 178.573 128.78 178.573 129.654Z" fill="#FCFCFC"/>
<path d="M178.489 129.654C178.489 130.519 170.433 131.218 160.497 131.218C150.562 131.218 142.506 130.516 142.506 129.654C142.506 128.792 150.562 128.09 160.497 128.09C170.433 128.09 178.489 128.789 178.489 129.654Z" fill="#FCFCFC"/>
<path d="M178.405 129.652C178.405 130.508 170.389 131.203 160.501 131.203C150.613 131.203 142.594 130.508 142.594 129.652C142.594 128.796 150.61 128.102 160.501 128.102C170.392 128.102 178.405 128.796 178.405 129.652Z" fill="#FBFBFB"/>
<path d="M178.32 129.652C178.32 130.498 170.34 131.186 160.5 131.186C150.66 131.186 142.68 130.498 142.68 129.652C142.68 128.805 150.66 128.117 160.5 128.117C170.34 128.117 178.32 128.805 178.32 129.652Z" fill="#FBFBFB"/>
<path d="M178.237 129.65C178.237 130.49 170.296 131.171 160.501 131.171C150.706 131.171 142.766 130.49 142.766 129.65C142.766 128.81 150.706 128.129 160.501 128.129C170.296 128.129 178.237 128.81 178.237 129.65Z" fill="#FAFAFA"/>
<path d="M178.151 129.65C178.151 130.48 170.246 131.155 160.499 131.155C150.752 131.155 142.848 130.48 142.848 129.65C142.848 128.819 150.752 128.145 160.499 128.145C170.246 128.145 178.151 128.819 178.151 129.65Z" fill="#FAFAFA"/>
<path d="M178.065 129.648C178.065 130.472 170.2 131.14 160.501 131.14C150.801 131.14 142.934 130.472 142.934 129.648C142.934 128.824 150.798 128.156 160.501 128.156C170.203 128.156 178.065 128.824 178.065 129.648Z" fill="#F9F9F9"/>
<path d="M177.98 129.648C177.98 130.463 170.154 131.123 160.5 131.123C150.845 131.123 143.02 130.463 143.02 129.648C143.02 128.833 150.845 128.172 160.5 128.172C170.154 128.172 177.98 128.833 177.98 129.648Z" fill="#F9F9F9"/>
<path d="M177.895 129.654C177.895 130.459 170.106 131.114 160.499 131.114C150.892 131.114 143.104 130.459 143.104 129.654C143.104 128.848 150.892 128.191 160.499 128.191C170.106 128.191 177.895 128.846 177.895 129.654Z" fill="#F8F8F8"/>
<path d="M177.812 129.653C177.812 130.452 170.063 131.1 160.501 131.1C150.939 131.1 143.189 130.452 143.189 129.653C143.189 128.854 150.939 128.207 160.501 128.207C170.063 128.207 177.812 128.854 177.812 129.653Z" fill="#F8F8F8"/>
<path d="M177.723 129.652C177.723 130.441 170.01 131.082 160.499 131.082C150.987 131.082 143.271 130.441 143.271 129.652C143.271 128.862 150.985 128.219 160.499 128.219C170.013 128.219 177.723 128.859 177.723 129.652Z" fill="#F7F7F7"/>
<path d="M177.639 129.651C177.639 130.434 169.966 131.068 160.499 131.068C151.033 131.068 143.359 130.434 143.359 129.651C143.359 128.868 151.033 128.234 160.499 128.234C169.966 128.234 177.639 128.868 177.639 129.651Z" fill="#F7F7F7"/>
<path d="M177.557 129.657C177.557 130.431 169.92 131.058 160.501 131.058C151.082 131.058 143.445 130.431 143.445 129.657C143.445 128.883 151.082 128.254 160.501 128.254C169.92 128.254 177.557 128.881 177.557 129.657Z" fill="#F6F6F6"/>
<path d="M177.472 129.649C177.472 130.414 169.874 131.037 160.501 131.037C151.127 131.037 143.529 130.417 143.529 129.649C143.529 128.882 151.127 128.262 160.501 128.262C169.874 128.262 177.472 128.882 177.472 129.649Z" fill="#F6F6F6"/>
<path d="M177.384 129.653C177.384 130.411 169.822 131.025 160.497 131.025C151.171 131.025 143.609 130.409 143.609 129.653C143.609 128.897 151.171 128.281 160.497 128.281C169.822 128.281 177.384 128.897 177.384 129.653Z" fill="#F5F5F5"/>
<path d="M177.299 129.655C177.299 130.404 169.777 131.013 160.499 131.013C151.221 131.013 143.699 130.404 143.699 129.655C143.699 128.906 151.221 128.297 160.499 128.297C169.777 128.297 177.299 128.906 177.299 129.655Z" fill="#F5F5F5"/>
<path d="M177.217 129.655C177.217 130.397 169.731 130.997 160.501 130.997C151.271 130.997 143.785 130.395 143.785 129.655C143.785 128.915 151.271 128.312 160.501 128.312C169.731 128.312 177.217 128.915 177.217 129.655Z" fill="#F4F4F4"/>
<path d="M177.13 129.653C177.13 130.386 169.684 130.982 160.499 130.982C151.313 130.982 143.867 130.386 143.867 129.653C143.867 128.92 151.313 128.324 160.499 128.324C169.684 128.324 177.13 128.92 177.13 129.653Z" fill="#F4F4F4"/>
<path d="M177.045 129.653C177.045 130.377 169.639 130.965 160.498 130.965C151.358 130.965 143.951 130.377 143.951 129.653C143.951 128.928 151.358 128.34 160.498 128.34C169.639 128.34 177.045 128.928 177.045 129.653Z" fill="#F3F3F3"/>
<path d="M176.959 129.651C176.959 130.368 169.589 130.95 160.499 130.95C151.409 130.95 144.039 130.368 144.039 129.651C144.039 128.933 151.409 128.352 160.499 128.352C169.589 128.352 176.959 128.933 176.959 129.651Z" fill="#F3F3F3"/>
<path d="M176.877 129.654C176.877 130.363 169.546 130.938 160.501 130.938C151.456 130.938 144.125 130.363 144.125 129.654C144.125 128.946 151.456 128.371 160.501 128.371C169.546 128.371 176.877 128.946 176.877 129.654Z" fill="#F2F2F2"/>
<path d="M176.792 129.657C176.792 130.358 169.498 130.926 160.5 130.926C151.503 130.926 144.209 130.358 144.209 129.657C144.209 128.955 151.503 128.387 160.5 128.387C169.498 128.387 176.792 128.955 176.792 129.657Z" fill="#F2F2F2"/>
<path d="M176.703 129.652C176.703 130.345 169.448 130.906 160.496 130.906C151.544 130.906 144.289 130.345 144.289 129.652C144.289 128.96 151.544 128.398 160.496 128.398C169.448 128.398 176.703 128.96 176.703 129.652Z" fill="#F1F1F1"/>
<path d="M176.621 129.654C176.621 130.338 169.403 130.895 160.501 130.895C151.599 130.895 144.381 130.34 144.381 129.654C144.381 128.969 151.599 128.414 160.501 128.414C169.403 128.414 176.621 128.969 176.621 129.654Z" fill="#F1F1F1"/>
<path d="M176.534 129.654C176.534 130.331 169.355 130.879 160.499 130.879C151.642 130.879 144.463 130.331 144.463 129.654C144.463 128.977 151.642 128.43 160.499 128.43C169.355 128.43 176.534 128.977 176.534 129.654Z" fill="#F0F0F0"/>
<path d="M176.452 129.652C176.452 130.32 169.309 130.861 160.5 130.861C151.691 130.861 144.549 130.32 144.549 129.652C144.549 128.985 151.691 128.441 160.5 128.441C169.309 128.441 176.452 128.982 176.452 129.652Z" fill="#F0F0F0"/>
<path d="M176.363 129.656C176.363 130.317 169.26 130.851 160.496 130.851C151.732 130.851 144.629 130.317 144.629 129.656C144.629 128.995 151.732 128.461 160.496 128.461C169.26 128.461 176.363 128.995 176.363 129.656Z" fill="#EFEFEF"/>
<path d="M176.279 129.65C176.279 130.302 169.212 130.83 160.499 130.83C151.786 130.83 144.719 130.3 144.719 129.65C144.719 129.001 151.786 128.469 160.499 128.469C169.212 128.469 176.279 128.998 176.279 129.65Z" fill="#EFEFEF"/>
<path d="M176.196 129.654C176.196 130.297 169.169 130.82 160.5 130.82C151.832 130.82 144.805 130.297 144.805 129.654C144.805 129.011 151.832 128.488 160.5 128.488C169.169 128.488 176.196 129.011 176.196 129.654Z" fill="#EEEEEE"/>
<path d="M176.112 129.652C176.112 130.288 169.124 130.802 160.5 130.802C151.877 130.802 144.889 130.286 144.889 129.652C144.889 129.018 151.88 128.5 160.5 128.5C169.121 128.5 176.112 129.016 176.112 129.652Z" fill="#EEEEEE"/>
<path d="M176.023 129.652C176.023 130.279 169.072 130.788 160.496 130.788C151.92 130.788 144.969 130.279 144.969 129.652C144.969 129.025 151.92 128.516 160.496 128.516C169.072 128.516 176.023 129.025 176.023 129.652Z" fill="#EDEDED"/>
<path d="M175.939 129.65C175.939 130.27 169.027 130.77 160.499 130.77C151.971 130.77 145.059 130.268 145.059 129.65C145.059 129.032 151.971 128.527 160.499 128.527C169.027 128.527 175.939 129.03 175.939 129.65Z" fill="#EDEDED"/>
<path d="M175.854 129.65C175.854 130.261 168.978 130.757 160.498 130.757C152.018 130.757 145.143 130.261 145.143 129.65C145.143 129.039 152.018 128.543 160.498 128.543C168.978 128.543 175.854 129.039 175.854 129.65Z" fill="#ECECEC"/>
<path d="M175.773 129.652C175.773 130.254 168.937 130.743 160.502 130.743C152.067 130.743 145.23 130.254 145.23 129.652C145.23 129.05 152.067 128.559 160.502 128.559C168.937 128.559 175.773 129.048 175.773 129.652Z" fill="#ECECEC"/>
<path d="M175.683 129.648C175.683 130.243 168.883 130.725 160.496 130.725C152.108 130.725 145.309 130.243 145.309 129.648C145.309 129.052 152.108 128.57 160.496 128.57C168.883 128.57 175.683 129.052 175.683 129.648Z" fill="#EBEBEB"/>
<path d="M175.599 129.651C175.599 130.238 168.838 130.713 160.499 130.713C152.159 130.713 145.398 130.238 145.398 129.651C145.398 129.065 152.159 128.59 160.499 128.59C168.838 128.59 175.599 129.065 175.599 129.651Z" fill="#EBEBEB"/>
<path d="M175.516 129.653C175.516 130.231 168.792 130.701 160.5 130.701C152.208 130.701 145.484 130.233 145.484 129.653C145.484 129.074 152.208 128.605 160.5 128.605C168.792 128.605 175.516 129.074 175.516 129.653Z" fill="#EAEAEA"/>
<path d="M175.433 129.649C175.433 130.22 168.749 130.681 160.502 130.681C152.255 130.681 145.57 130.22 145.57 129.649C145.57 129.079 152.255 128.617 160.502 128.617C168.749 128.617 175.433 129.079 175.433 129.649Z" fill="#EAEAEA"/>
<path d="M175.343 129.651C175.343 130.213 168.695 130.67 160.496 130.67C152.297 130.67 145.648 130.215 145.648 129.651C145.648 129.088 152.297 128.633 160.496 128.633C168.695 128.633 175.343 129.088 175.343 129.651Z" fill="#E9E9E9"/>
<path d="M175.258 129.651C175.258 130.206 168.65 130.654 160.498 130.654C152.347 130.654 145.738 130.206 145.738 129.651C145.738 129.097 152.347 128.648 160.498 128.648C168.65 128.648 175.258 129.099 175.258 129.651Z" fill="#E9E9E9"/>
<path d="M175.176 129.649C175.176 130.195 168.606 130.638 160.5 130.638C152.394 130.638 145.824 130.195 145.824 129.649C145.824 129.104 152.396 128.66 160.5 128.66C168.604 128.66 175.176 129.104 175.176 129.649Z" fill="#E8E8E8"/>
<path d="M175.091 129.653C175.091 130.189 168.558 130.626 160.5 130.626C152.441 130.626 145.908 130.189 145.908 129.653C145.908 129.117 152.441 128.68 160.5 128.68C168.558 128.68 175.091 129.117 175.091 129.653Z" fill="#E8E8E8"/>
<path d="M175.005 129.647C175.005 130.177 168.511 130.607 160.497 130.607C152.484 130.607 145.99 130.177 145.99 129.647C145.99 129.118 152.484 128.688 160.497 128.688C168.511 128.688 175.005 129.118 175.005 129.647Z" fill="#E7E7E7"/>
<path d="M174.922 129.651C174.922 130.172 168.465 130.595 160.502 130.595C152.539 130.595 146.082 130.172 146.082 129.651C146.082 129.13 152.539 128.707 160.502 128.707C168.465 128.707 174.922 129.13 174.922 129.651Z" fill="#E7E7E7"/>
<path d="M174.834 129.653C174.834 130.167 168.416 130.581 160.498 130.581C152.58 130.581 146.162 130.164 146.162 129.653C146.162 129.141 152.58 128.723 160.498 128.723C168.416 128.723 174.834 129.139 174.834 129.653Z" fill="#E6E6E6"/>
<path d="M174.749 129.653C174.749 130.157 168.368 130.567 160.498 130.567C152.627 130.567 146.246 130.157 146.246 129.653C146.246 129.148 152.627 128.738 160.498 128.738C168.368 128.738 174.749 129.148 174.749 129.653Z" fill="#E6E6E6"/>
<path d="M174.666 129.651C174.666 130.147 168.325 130.549 160.499 130.549C152.674 130.549 146.332 130.147 146.332 129.651C146.332 129.155 152.674 128.75 160.499 128.75C168.325 128.75 174.666 129.153 174.666 129.651Z" fill="#E5E5E5"/>
<path d="M174.579 129.651C174.579 130.14 168.274 130.536 160.499 130.536C152.724 130.536 146.416 130.14 146.416 129.651C146.416 129.162 152.721 128.766 160.499 128.766C168.277 128.766 174.579 129.162 174.579 129.651Z" fill="#E5E5E5"/>
<path d="M174.496 129.657C174.496 130.136 168.23 130.526 160.5 130.526C152.77 130.526 146.504 130.136 146.504 129.657C146.504 129.177 152.77 128.785 160.5 128.785C168.23 128.785 174.496 129.174 174.496 129.657Z" fill="#E4E4E4"/>
<path d="M174.411 129.652C174.411 130.126 168.182 130.508 160.499 130.508C152.817 130.508 146.588 130.126 146.588 129.652C146.588 129.179 152.817 128.797 160.499 128.797C168.182 128.797 174.411 129.179 174.411 129.652Z" fill="#E4E4E4"/>
<path d="M174.322 129.655C174.322 130.119 168.132 130.494 160.495 130.494C152.858 130.494 146.668 130.119 146.668 129.655C146.668 129.191 152.858 128.812 160.495 128.812C168.132 128.812 174.322 129.188 174.322 129.655Z" fill="#E3E3E3"/>
<path d="M174.241 129.654C174.241 130.109 168.09 130.48 160.501 130.48C152.911 130.48 146.758 130.112 146.758 129.654C146.758 129.197 152.911 128.828 160.501 128.828C168.09 128.828 174.241 129.197 174.241 129.654Z" fill="#E3E3E3"/>
<path d="M174.155 129.652C174.155 130.101 168.041 130.463 160.5 130.463C152.958 130.463 146.844 130.101 146.844 129.652C146.844 129.204 152.958 128.84 160.5 128.84C168.041 128.84 174.155 129.204 174.155 129.652Z" fill="#E2E2E2"/>
<path d="M174.073 129.652C174.073 130.091 167.998 130.449 160.501 130.449C153.005 130.449 146.93 130.091 146.93 129.652C146.93 129.213 153.005 128.855 160.501 128.855C167.998 128.855 174.073 129.213 174.073 129.652Z" fill="#E2E2E2"/>
<path d="M173.984 129.656C173.984 130.088 167.946 130.437 160.497 130.437C153.048 130.437 147.01 130.086 147.01 129.656C147.01 129.226 153.048 128.875 160.497 128.875C167.946 128.875 173.984 129.226 173.984 129.656Z" fill="#E1E1E1"/>
<path d="M173.899 129.654C173.899 130.077 167.9 130.421 160.499 130.421C153.098 130.421 147.096 130.077 147.096 129.654C147.096 129.231 153.095 128.887 160.499 128.887C167.903 128.887 173.899 129.231 173.899 129.654Z" fill="#E1E1E1"/>
<path d="M173.815 129.654C173.815 130.068 167.853 130.405 160.499 130.405C153.146 130.405 147.184 130.068 147.184 129.654C147.184 129.24 153.146 128.902 160.499 128.902C167.853 128.902 173.815 129.24 173.815 129.654Z" fill="#E0E0E0"/>
<path d="M173.733 129.652C173.733 130.059 167.809 130.39 160.501 130.39C153.193 130.39 147.27 130.059 147.27 129.652C147.27 129.245 153.193 128.914 160.501 128.914C167.809 128.914 173.733 129.245 173.733 129.652Z" fill="#E0E0E0"/>
<path d="M173.644 129.652C173.644 130.05 167.757 130.374 160.497 130.374C153.236 130.374 147.35 130.05 147.35 129.652C147.35 129.253 153.236 128.93 160.497 128.93C167.757 128.93 173.644 129.253 173.644 129.652Z" fill="#DFDFDF"/>
<path d="M173.561 129.654C173.561 130.045 167.713 130.362 160.5 130.362C153.288 130.362 147.438 130.045 147.438 129.654C147.438 129.262 153.285 128.945 160.5 128.945C167.716 128.945 173.561 129.262 173.561 129.654Z" fill="#DFDFDF"/>
<path d="M173.477 129.65C173.477 130.032 167.666 130.342 160.501 130.342C153.336 130.342 147.525 130.032 147.525 129.65C147.525 129.267 153.336 128.957 160.501 128.957C167.666 128.957 173.477 129.267 173.477 129.65Z" fill="#DEDEDE"/>
<path d="M173.391 129.656C173.391 130.029 167.619 130.335 160.499 130.335C153.379 130.335 147.607 130.031 147.607 129.656C147.607 129.28 153.379 128.977 160.499 128.977C167.619 128.977 173.391 129.28 173.391 129.656Z" fill="#DEDEDE"/>
<path d="M173.306 129.655C173.306 130.022 167.574 130.319 160.499 130.319C153.423 130.319 147.691 130.022 147.691 129.655C147.691 129.289 153.426 128.992 160.499 128.992C167.571 128.992 173.306 129.289 173.306 129.655Z" fill="#DDDDDD"/>
<path d="M173.22 129.654C173.22 130.011 167.525 130.301 160.5 130.301C153.476 130.301 147.777 130.011 147.777 129.654C147.777 129.296 153.473 129.004 160.5 129.004C167.528 129.004 173.22 129.294 173.22 129.654Z" fill="#DDDDDD"/>
<path d="M173.137 129.653C173.137 130.004 167.481 130.287 160.501 130.287C153.521 130.287 147.865 130.004 147.865 129.653C147.865 129.302 153.524 129.02 160.501 129.02C167.478 129.02 173.137 129.302 173.137 129.653Z" fill="#DCDCDC"/>
<path d="M173.052 129.651C173.052 129.993 167.433 130.269 160.501 130.269C153.569 130.269 147.949 129.993 147.949 129.651C147.949 129.31 153.569 129.031 160.501 129.031C167.433 129.031 173.052 129.31 173.052 129.651Z" fill="#DCDCDC"/>
<path d="M172.966 129.651C172.966 129.984 167.385 130.256 160.499 130.256C153.612 130.256 148.031 129.984 148.031 129.651C148.031 129.318 153.612 129.047 160.499 129.047C167.385 129.047 172.966 129.318 172.966 129.651Z" fill="#DBDBDB"/>
<path d="M172.88 129.649C172.88 129.975 167.337 130.238 160.5 130.238C153.664 130.238 148.117 129.973 148.117 129.649C148.117 129.326 153.661 129.059 160.5 129.059C167.339 129.059 172.88 129.323 172.88 129.649Z" fill="#DBDBDB"/>
<path d="M172.795 129.649C172.795 129.966 167.29 130.224 160.499 130.224C153.708 130.224 148.203 129.966 148.203 129.649C148.203 129.332 153.708 129.074 160.499 129.074C167.29 129.074 172.795 129.332 172.795 129.649Z" fill="#DADADA"/>
<path d="M172.712 129.655C172.712 129.965 167.244 130.214 160.501 130.214C153.757 130.214 148.289 129.963 148.289 129.655C148.289 129.347 153.757 129.094 160.501 129.094C167.244 129.094 172.712 129.345 172.712 129.655Z" fill="#DADADA"/>
<path d="M172.626 129.651C172.626 129.952 167.197 130.196 160.498 130.196C153.8 130.196 148.371 129.952 148.371 129.651C148.371 129.35 153.8 129.105 160.498 129.105C167.197 129.105 172.626 129.35 172.626 129.651Z" fill="#D9D9D9"/>
<path d="M172.54 129.653C172.54 129.945 167.148 130.183 160.5 130.183C153.852 130.183 148.457 129.945 148.457 129.653C148.457 129.361 153.849 129.121 160.5 129.121C167.151 129.121 172.54 129.359 172.54 129.653Z" fill="#D9D9D9"/>
<path d="M172.455 129.653C172.455 129.938 167.102 130.169 160.499 130.169C153.896 130.169 148.543 129.938 148.543 129.653C148.543 129.368 153.896 129.137 160.499 129.137C167.102 129.137 172.455 129.368 172.455 129.653Z" fill="#D8D8D8"/>
<path d="M172.372 129.649C172.372 129.925 167.056 130.149 160.5 130.149C153.945 130.149 148.629 129.925 148.629 129.649C148.629 129.373 153.945 129.148 160.5 129.148C167.056 129.148 172.372 129.373 172.372 129.649Z" fill="#D8D8D8"/>
<path d="M172.284 129.651C172.284 129.92 167.007 130.137 160.496 130.137C153.986 130.137 148.709 129.92 148.709 129.651C148.709 129.381 153.986 129.164 160.496 129.164C167.007 129.164 172.284 129.381 172.284 129.651Z" fill="#D7D7D7"/>
<path d="M172.2 129.654C172.2 129.915 166.963 130.125 160.5 130.125C154.037 130.125 148.797 129.915 148.797 129.654C148.797 129.394 154.037 129.184 160.5 129.184C166.963 129.184 172.2 129.394 172.2 129.654Z" fill="#D7D7D7"/>
<path d="M172.115 129.649C172.115 129.9 166.914 130.106 160.499 130.106C154.084 130.106 148.883 129.902 148.883 129.649C148.883 129.395 154.084 129.191 160.499 129.191C166.914 129.191 172.115 129.395 172.115 129.649Z" fill="#D6D6D6"/>
<path d="M172.032 129.652C172.032 129.897 166.87 130.094 160.5 130.094C154.13 130.094 148.969 129.897 148.969 129.652C148.969 129.408 154.13 129.211 160.5 129.211C166.87 129.211 172.032 129.41 172.032 129.652Z" fill="#D6D6D6"/>
<path d="M171.945 129.65C171.945 129.886 166.82 130.078 160.498 130.078C154.176 130.078 149.051 129.888 149.051 129.65C149.051 129.413 154.176 129.223 160.498 129.223C166.82 129.223 171.945 129.415 171.945 129.65Z" fill="#D5D5D5"/>
<path d="M171.86 129.65C171.86 129.877 166.774 130.062 160.5 130.062C154.225 130.062 149.137 129.877 149.137 129.65C149.137 129.424 154.223 129.238 160.5 129.238C166.777 129.238 171.86 129.424 171.86 129.65Z" fill="#D5D5D5"/>
<path d="M171.776 129.652C171.776 129.872 166.727 130.051 160.501 130.051C154.274 130.051 149.225 129.872 149.225 129.652C149.225 129.433 154.274 129.254 160.501 129.254C166.727 129.254 171.776 129.433 171.776 129.652Z" fill="#D4D4D4"/>
<path d="M171.69 129.656C171.69 129.866 166.68 130.038 160.498 130.038C154.317 130.038 149.307 129.866 149.307 129.656C149.307 129.445 154.317 129.273 160.498 129.273C166.68 129.273 171.69 129.445 171.69 129.656Z" fill="#D4D4D4"/>
<path d="M171.605 129.65C171.605 129.854 166.632 130.017 160.498 130.017C154.364 130.017 149.391 129.852 149.391 129.65C149.391 129.449 154.364 129.281 160.498 129.281C166.632 129.281 171.605 129.446 171.605 129.65Z" fill="#D3D3D3"/>
<path d="M171.52 129.654C171.52 129.849 166.586 130.007 160.5 130.007C154.413 130.007 149.477 129.849 149.477 129.654C149.477 129.459 154.411 129.301 160.5 129.301C166.589 129.301 171.52 129.459 171.52 129.654Z" fill="#D3D3D3"/>
<path d="M171.436 129.656C171.436 129.842 166.539 129.993 160.5 129.993C154.462 129.993 149.564 129.842 149.564 129.656C149.564 129.47 154.462 129.316 160.5 129.316C166.539 129.316 171.436 129.468 171.436 129.656Z" fill="#D2D2D2"/>
<path d="M171.352 129.652C171.352 129.831 166.493 129.975 160.5 129.975C154.507 129.975 149.648 129.831 149.648 129.652C149.648 129.473 154.507 129.328 160.5 129.328C166.493 129.328 171.352 129.473 171.352 129.652Z" fill="#D2D2D2"/>
<path d="M171.265 129.654C171.265 129.824 166.446 129.962 160.498 129.962C154.549 129.962 149.73 129.824 149.73 129.654C149.73 129.484 154.552 129.344 160.498 129.344C166.443 129.344 171.265 129.482 171.265 129.654Z" fill="#D1D1D1"/>
<path d="M171.18 129.658C171.18 129.821 166.397 129.952 160.499 129.952C154.602 129.952 149.816 129.821 149.816 129.658C149.816 129.495 154.599 129.363 160.499 129.363C166.4 129.363 171.18 129.495 171.18 129.658Z" fill="#D1D1D1"/>
<path d="M171.098 129.652C171.098 129.806 166.355 129.93 160.502 129.93C154.649 129.93 149.906 129.806 149.906 129.652C149.906 129.498 154.649 129.371 160.502 129.371C166.355 129.371 171.098 129.496 171.098 129.652Z" fill="#D0D0D0"/>
<path d="M171.012 129.655C171.012 129.8 166.305 129.92 160.5 129.92C154.695 129.92 149.988 129.803 149.988 129.655C149.988 129.508 154.695 129.391 160.5 129.391C166.305 129.391 171.012 129.508 171.012 129.655Z" fill="#D0D0D0"/>
<path d="M170.925 129.654C170.925 129.792 166.258 129.903 160.498 129.903C154.737 129.903 150.07 129.792 150.07 129.654C150.07 129.516 154.737 129.402 160.498 129.402C166.258 129.402 170.925 129.516 170.925 129.654Z" fill="#CFCFCF"/>
<path d="M170.839 129.653C170.839 129.782 166.209 129.889 160.499 129.889C154.79 129.889 150.156 129.785 150.156 129.653C150.156 129.522 154.787 129.418 160.499 129.418C166.212 129.418 170.839 129.524 170.839 129.653Z" fill="#CFCFCF"/>
<path d="M170.756 129.652C170.756 129.774 166.165 129.871 160.5 129.871C154.835 129.871 150.244 129.771 150.244 129.652C150.244 129.532 154.835 129.43 160.5 129.43C166.165 129.43 170.756 129.529 170.756 129.652Z" fill="#CECECE"/>
<path d="M170.671 129.651C170.671 129.764 166.117 129.857 160.5 129.857C154.883 129.857 150.328 129.764 150.328 129.651C150.328 129.538 154.883 129.445 160.5 129.445C166.117 129.445 170.671 129.538 170.671 129.651Z" fill="#CECECE"/>
<path d="M170.583 129.651C170.583 129.755 166.067 129.841 160.496 129.841C154.924 129.841 150.408 129.755 150.408 129.651C150.408 129.547 154.924 129.461 160.496 129.461C166.067 129.461 170.583 129.547 170.583 129.651Z" fill="#CDCDCD"/>
<path d="M170.499 129.657C170.499 129.754 166.02 129.834 160.499 129.834C154.978 129.834 150.496 129.754 150.496 129.657C150.496 129.56 154.975 129.48 160.499 129.48C166.023 129.48 170.499 129.56 170.499 129.657Z" fill="#CDCDCD"/>
<path d="M170.416 129.649C170.416 129.737 165.976 129.81 160.5 129.81C155.024 129.81 150.584 129.737 150.584 129.649C150.584 129.561 155.024 129.488 160.5 129.488C165.976 129.488 170.416 129.561 170.416 129.649Z" fill="#CCCCCC"/>
</g>
<path opacity="0.25" d="M43.4647 122C44.2345 120.667 46.159 120.667 46.9288 122L50.0372 127.384C50.807 128.717 49.8447 130.384 48.3051 130.384H42.0883C40.5487 130.384 39.5864 128.717 40.3562 127.384L43.4647 122Z" fill="url(#paint0_linear_5005_460)"/>
<path opacity="0.2" d="M18.9102 132.715C19.68 131.382 21.6045 131.382 22.3743 132.715L23.5497 134.751C24.3195 136.084 23.3572 137.751 21.8176 137.751H19.467C17.9274 137.751 16.9651 136.084 17.7349 134.751L18.9102 132.715Z" fill="url(#paint1_linear_5005_460)"/>
<path opacity="0.2" d="M1.2656 139.209C1.69517 138.465 2.76911 138.465 3.19869 139.209C3.62827 139.953 3.0913 140.883 2.23214 140.883C1.37299 140.883 0.83602 139.953 1.2656 139.209Z" fill="url(#paint2_linear_5005_460)"/>
<g filter="url(#filter0_d_5005_460)">
<path d="M366.289 181.27C330.22 145.201 281.449 113.869 230.289 105.181C216.377 102.819 148.689 91.0346 148.689 117.27C148.689 129.836 162.772 127.603 170.2 123.67C184.823 115.929 195.72 108.488 205.934 94.8703C221.699 73.8502 239.03 39.925 215.889 18.0703C205.902 8.63824 186.793 14.0033 177.489 20.9148C168.367 27.6909 162.297 36.3872 155.445 45.2703C149.875 52.4902 151.37 51.7575 147.089 43.6703C136.343 23.372 102.145 9.11279 96.2447 40.8259C92.9344 58.619 98.7919 74.0672 104.245 90.4258C106.293 96.5706 109.468 107.252 113.845 112.115C118.609 117.409 121.19 108.967 119.534 104.47C115.415 93.2914 109.853 88.4703 97.8447 88.4703C86.9844 88.4703 72.5755 96.9154 71.8892 109.27C71.5084 116.125 69.7746 114.448 67.4447 109.27C65.6371 105.254 63.0002 92.4211 63.0002 96.8259C63.0002 98.3777 63.0862 111.224 64.6003 112.115C69.9903 115.285 77.3102 115.344 83.0891 117.27" stroke="url(#paint3_linear_5005_460)" stroke-opacity="0.5" stroke-width="4" stroke-linecap="round" shape-rendering="crispEdges"/>
</g>
<defs>
<filter id="filter0_d_5005_460" x="46" y="0" width="337.289" height="202.27" filterUnits="userSpaceOnUse" color-interpolation-filters="sRGB">
<feFlood flood-opacity="0" result="BackgroundImageFix"/>
<feColorMatrix in="SourceAlpha" type="matrix" values="0 0 0 0 0 0 0 0 0 0 0 0 0 0 0 0 0 0 127 0" result="hardAlpha"/>
<feOffset dy="4"/>
<feGaussianBlur stdDeviation="7.5"/>
<feComposite in2="hardAlpha" operator="out"/>
<feColorMatrix type="matrix" values="0 0 0 0 0.0108651 0 0 0 0 0.00267598 0 0 0 0 0.0728688 0 0 0 0.1 0"/>
<feBlend mode="normal" in2="BackgroundImageFix" result="effect1_dropShadow_5005_460"/>
<feBlend mode="normal" in="SourceGraphic" in2="effect1_dropShadow_5005_460" result="shape"/>
</filter>
<linearGradient id="paint0_linear_5005_460" x1="37.5479" y1="119" x2="55.2718" y2="122.91" gradientUnits="userSpaceOnUse">
<stop stop-color="#5163FF"/>
<stop offset="1" stop-color="#FE71B9"/>
</linearGradient>
<linearGradient id="paint1_linear_5005_460" x1="15.2431" y1="129.715" x2="27.7541" y2="132.475" gradientUnits="userSpaceOnUse">
<stop stop-color="#5163FF"/>
<stop offset="1" stop-color="#FE71B9"/>
</linearGradient>
<linearGradient id="paint2_linear_5005_460" x1="-0.017507" y1="137.535" x2="5.1954" y2="138.685" gradientUnits="userSpaceOnUse">
<stop stop-color="#5163FF"/>
<stop offset="1" stop-color="#FE71B9"/>
</linearGradient>
<linearGradient id="paint3_linear_5005_460" x1="366.289" y1="97.1351" x2="63.0002" y2="97.1351" gradientUnits="userSpaceOnUse">
<stop stop-color="#91C2FE"/>
<stop offset="0.5" stop-color="#C872F2"/>
<stop offset="1" stop-color="#FE72BA"/>
</linearGradient>
</defs>
</svg>
