<svg width="40" height="40" viewBox="0 0 40 40" fill="none" xmlns="http://www.w3.org/2000/svg">
<path d="M21.8749 14.9998C23.3583 14.9998 24.8083 14.56 26.0416 13.7359C27.275 12.9118 28.2363 11.7404 28.8039 10.37C29.3716 8.99958 29.5201 7.4916 29.2307 6.03676C28.9413 4.58192 28.227 3.24556 27.1782 2.19668C26.1293 1.1478 24.7929 0.433498 23.3381 0.144112C21.8832 -0.145274 20.3753 0.00324961 19.0048 0.5709C17.6344 1.13855 16.4631 2.09983 15.639 3.33319C14.8149 4.56654 14.375 6.01657 14.375 7.49992C14.3772 9.48836 15.168 11.3947 16.574 12.8008C17.9801 14.2068 19.8865 14.9977 21.8749 14.9998ZM21.8749 8.12491C21.2672 8.12567 20.6801 7.90461 20.2239 7.50323C19.7676 7.10185 19.4735 6.54774 19.3968 5.94491C19.3201 5.34208 19.466 4.73197 19.8072 4.22911C20.1484 3.72624 20.6614 3.36519 21.2499 3.21372V2.49997C21.2499 2.33422 21.3158 2.17525 21.433 2.05804C21.5502 1.94083 21.7092 1.87498 21.8749 1.87498C22.0407 1.87498 22.1996 1.94083 22.3169 2.05804C22.4341 2.17525 22.4999 2.33422 22.4999 2.49997V3.21372C23.035 3.35187 23.5092 3.66343 23.8485 4.09969C24.1877 4.53594 24.3728 5.07231 24.3749 5.62494C24.3749 5.7907 24.309 5.94967 24.1918 6.06688C24.0746 6.18408 23.9157 6.24993 23.7499 6.24993C23.5841 6.24993 23.4252 6.18408 23.308 6.06688C23.1907 5.94967 23.1249 5.7907 23.1249 5.62494C23.1249 5.37772 23.0516 5.13604 22.9142 4.93048C22.7769 4.72493 22.5817 4.56471 22.3533 4.4701C22.1249 4.37549 21.8735 4.35074 21.6311 4.39897C21.3886 4.4472 21.1659 4.56625 20.991 4.74107C20.8162 4.91588 20.6972 5.13861 20.6489 5.38108C20.6007 5.62355 20.6255 5.87488 20.7201 6.10329C20.8147 6.33169 20.9749 6.52691 21.1805 6.66426C21.386 6.80161 21.6277 6.87492 21.8749 6.87492C22.4826 6.87417 23.0697 7.09523 23.526 7.49661C23.9822 7.89799 24.2763 8.4521 24.353 9.05493C24.4297 9.65776 24.2838 10.2679 23.9426 10.7707C23.6014 11.2736 23.0884 11.6346 22.4999 11.7861V12.4999C22.4999 12.6656 22.4341 12.8246 22.3169 12.9418C22.1996 13.059 22.0407 13.1249 21.8749 13.1249C21.7092 13.1249 21.5502 13.059 21.433 12.9418C21.3158 12.8246 21.2499 12.6656 21.2499 12.4999V11.7861C20.7148 11.648 20.2406 11.3364 19.9014 10.9001C19.5621 10.4639 19.377 9.92752 19.3749 9.3749C19.3749 9.20914 19.4408 9.05017 19.558 8.93296C19.6752 8.81575 19.8342 8.7499 19.9999 8.7499C20.1657 8.7499 20.3247 8.81575 20.4419 8.93296C20.5591 9.05017 20.6249 9.20914 20.6249 9.3749C20.6249 9.62212 20.6982 9.86379 20.8356 10.0694C20.9729 10.2749 21.1682 10.4351 21.3966 10.5297C21.625 10.6243 21.8763 10.6491 22.1188 10.6009C22.3612 10.5526 22.584 10.4336 22.7588 10.2588C22.9336 10.084 23.0527 9.86123 23.1009 9.61876C23.1491 9.37628 23.1244 9.12495 23.0298 8.89655C22.9351 8.66814 22.7749 8.47292 22.5694 8.33557C22.3638 8.19822 22.1221 8.12491 21.8749 8.12491Z" fill="url(#paint0_linear_4897_19561)"/>
<path d="M14.6875 18.125H29.0623C29.311 18.125 29.5494 18.0262 29.7252 17.8504C29.901 17.6746 29.9998 17.4361 29.9998 17.1875C29.9998 16.9389 29.901 16.7004 29.7252 16.5246C29.5494 16.3488 29.311 16.25 29.0623 16.25H14.6875C14.4389 16.25 14.2004 16.3488 14.0246 16.5246C13.8488 16.7004 13.75 16.9389 13.75 17.1875C13.75 17.4361 13.8488 17.6746 14.0246 17.8504C14.2004 18.0262 14.4389 18.125 14.6875 18.125Z" fill="url(#paint1_linear_4897_19561)"/>
<path d="M14.6875 21.25H29.0623C29.311 21.25 29.5494 21.1512 29.7252 20.9754C29.901 20.7996 29.9998 20.5611 29.9998 20.3125C29.9998 20.0639 29.901 19.8254 29.7252 19.6496C29.5494 19.4738 29.311 19.375 29.0623 19.375H14.6875C14.4389 19.375 14.2004 19.4738 14.0246 19.6496C13.8488 19.8254 13.75 20.0639 13.75 20.3125C13.75 20.5611 13.8488 20.7996 14.0246 20.9754C14.2004 21.1512 14.4389 21.25 14.6875 21.25Z" fill="url(#paint2_linear_4897_19561)"/>
<path d="M24.9179 29.888H19.293C19.1272 29.888 18.9682 29.9538 18.851 30.071C18.7338 30.1882 18.668 30.3472 18.668 30.513C18.668 30.6787 18.7338 30.8377 18.851 30.9549C18.9682 31.0721 19.1272 31.138 19.293 31.138H24.6154C25.2734 31.1382 25.9199 30.9658 26.4904 30.638L36.4446 24.888C36.4984 24.8574 36.5559 24.8343 36.6109 24.8062C36.5909 24.7649 36.5765 24.7218 36.5534 24.6812C36.4235 24.456 36.2505 24.2587 36.0443 24.1004C35.8381 23.9422 35.6027 23.8261 35.3516 23.7588C35.1005 23.6915 34.8386 23.6744 34.5809 23.7084C34.3232 23.7423 34.0747 23.8268 33.8497 23.9568L27.9829 27.3443C27.8476 28.0586 27.4676 28.7034 26.9082 29.1677C26.3487 29.632 25.6449 29.8867 24.9179 29.888Z" fill="url(#paint3_linear_4897_19561)"/>
<path d="M39.7384 26.6856C39.4795 26.2371 39.0531 25.9099 38.553 25.7758C38.0529 25.6417 37.52 25.7118 37.0715 25.9706L27.1173 31.7205C26.3572 32.1594 25.495 32.3905 24.6173 32.3905H19.2936C18.7963 32.3905 18.3194 32.193 17.9678 31.8413C17.6162 31.4897 17.4186 31.0128 17.4186 30.5155C17.4186 30.0183 17.6162 29.5413 17.9678 29.1897C18.3194 28.8381 18.7963 28.6406 19.2936 28.6406H24.9185C25.4158 28.6406 25.8927 28.443 26.2444 28.0914C26.596 27.7398 26.7935 27.2628 26.7935 26.7656C26.7935 26.2683 26.596 25.7914 26.2444 25.4398C25.8927 25.0881 25.4158 24.8906 24.9185 24.8906H18.8442C17.2632 23.9515 15.4349 23.513 13.5999 23.6326C11.7648 23.7522 10.0089 24.4243 8.56311 25.5606C8.17908 25.854 7.75053 26.084 7.29375 26.2418L0.412576 28.8181C0.335299 28.846 0.264288 28.8889 0.203605 28.9443C0.142922 28.9997 0.0937587 29.0665 0.0589285 29.1409C0.0240983 29.2153 0.0042847 29.2959 0.000621453 29.378C-0.0030418 29.4601 0.00951723 29.5421 0.0375799 29.6193L3.66816 39.5904C3.69609 39.6676 3.73896 39.7386 3.79432 39.7992C3.84967 39.8598 3.91643 39.909 3.99078 39.9438C4.06513 39.9786 4.14561 39.9985 4.22763 40.0022C4.30964 40.0059 4.39159 39.9934 4.46878 39.9654L9.88622 37.9942L23.7786 39.1192C23.9304 39.1317 24.0817 39.1373 24.2329 39.1373C25.4582 39.136 26.6495 38.7344 27.6254 37.9936L39.2253 29.2187C39.6049 28.9316 39.8666 28.5157 39.9611 28.0492C40.0556 27.5827 39.9764 27.0978 39.7384 26.6856Z" fill="url(#paint4_linear_4897_19561)"/>
<defs>
<linearGradient id="paint0_linear_4897_19561" x1="14.3162" y1="-1.72213e-07" x2="31.8313" y2="3.86364" gradientUnits="userSpaceOnUse">
<stop stop-color="#5163FF"/>
<stop offset="1" stop-color="#FE71B9"/>
</linearGradient>
<linearGradient id="paint1_linear_4897_19561" x1="13.6863" y1="16.25" x2="17.961" y2="24.4222" gradientUnits="userSpaceOnUse">
<stop stop-color="#5163FF"/>
<stop offset="1" stop-color="#FE71B9"/>
</linearGradient>
<linearGradient id="paint2_linear_4897_19561" x1="13.6863" y1="19.375" x2="17.961" y2="27.5472" gradientUnits="userSpaceOnUse">
<stop stop-color="#5163FF"/>
<stop offset="1" stop-color="#FE71B9"/>
</linearGradient>
<linearGradient id="paint3_linear_4897_19561" x1="18.5976" y1="23.6914" x2="35.729" y2="32.7971" gradientUnits="userSpaceOnUse">
<stop stop-color="#5163FF"/>
<stop offset="1" stop-color="#FE71B9"/>
</linearGradient>
<linearGradient id="paint4_linear_4897_19561" x1="-0.156863" y1="23.6133" x2="37.8173" y2="44.0572" gradientUnits="userSpaceOnUse">
<stop stop-color="#5163FF"/>
<stop offset="1" stop-color="#FE71B9"/>
</linearGradient>
</defs>
</svg>
