<svg width="40" height="40" viewBox="0 0 40 40" fill="none" xmlns="http://www.w3.org/2000/svg">
<path fill-rule="evenodd" clip-rule="evenodd" d="M15.3138 6.61507L20.0007 19.9518L24.6877 6.61507C25.8232 3.38396 23.4255 0 20.0007 0C16.5759 0 14.1783 3.38396 15.3138 6.61507ZM15.3138 33.3862L20.0007 20.0495L24.6877 33.3862C25.8232 36.6173 23.4255 40.0013 20.0007 40.0013C16.5759 40.0013 14.1783 36.6173 15.3138 33.3862ZM20.0514 19.9988L33.3882 15.3118C36.6193 14.1763 40.0032 16.5739 40.0032 19.9988C40.0032 23.4236 36.6193 25.8212 33.3882 24.6857L20.0514 19.9988ZM6.61897 15.3118L19.9557 19.9988L6.61898 24.6857C3.38787 25.8212 0.00390625 23.4236 0.00390625 19.9988C0.00390625 16.5739 3.38787 14.1763 6.61897 15.3118ZM20.0348 20.0329L32.7794 26.1492C35.8671 27.631 36.5646 31.7192 34.1428 34.1409C31.7211 36.5627 27.6329 35.8652 26.1511 32.7775L20.0348 20.0329ZM13.8501 7.22182L19.9664 19.9665L7.22177 13.8502C4.1341 12.3683 3.43665 8.28014 5.85837 5.85843C8.28009 3.43671 12.3683 4.13415 13.8501 7.22182ZM19.9664 20.0387L13.8501 32.7834C12.5535 35.4851 9.26141 36.3568 6.83629 34.9101C6.48984 34.7034 6.16109 34.4495 5.85837 34.1467C3.43665 31.725 4.1341 27.6368 7.22177 26.155L19.9664 20.0387ZM32.7794 13.852L20.0348 19.9684L26.1511 7.22372C27.6329 4.13605 31.7211 3.4386 34.1428 5.86032C36.5646 8.28204 35.8671 12.3702 32.7794 13.852Z" fill="url(#paint0_linear_2617_14377)"/>
<defs>
<linearGradient id="paint0_linear_2617_14377" x1="-0.152953" y1="-4.59255e-07" x2="46.554" y2="10.3025" gradientUnits="userSpaceOnUse">
<stop stop-color="#5163FF"/>
<stop offset="1" stop-color="#FE71B9"/>
</linearGradient>
</defs>
</svg>
