<svg width="209" height="146" viewBox="0 0 209 146" fill="none" xmlns="http://www.w3.org/2000/svg">
<path d="M85.5455 50.9567L86.526 50.7606L85.5455 50.9567ZM1 146L10.816 139.919L0.641716 134.459L1 146ZM210.16 -25.5433C190.365 5.04888 161.051 33.6716 135.755 49.7723C123.085 57.8369 111.551 62.6768 102.792 63.1594C98.4325 63.3995 94.8444 62.5567 92.1309 60.5863C89.4274 58.623 87.4635 55.4468 86.526 50.7606L84.5649 51.1529C85.5755 56.2046 87.7512 59.8776 90.9557 62.2046C94.1504 64.5245 98.2388 65.4132 102.902 65.1563C112.186 64.6448 124.077 59.5762 136.829 51.4595C162.378 35.1974 191.895 6.3657 211.84 -24.4567L210.16 -25.5433ZM86.526 50.7606C85.0511 43.3877 85.3875 37.8081 86.959 33.7437C88.5176 29.7128 91.3186 27.0954 94.9719 25.6535C102.38 22.7298 113.409 24.6118 124.545 30.041C135.63 35.4453 146.569 44.2481 153.712 54.768C160.85 65.28 164.147 77.4158 160.179 89.5992L162.081 90.2185C166.295 77.2778 162.738 64.5 155.367 53.6445C148.001 42.7969 136.775 33.7785 125.422 28.2433C114.119 22.7329 102.436 20.5572 94.2377 23.7932C90.0879 25.431 86.8624 28.4478 85.0936 33.0224C83.3378 37.5635 83.0461 43.5607 84.5649 51.1529L86.526 50.7606ZM160.179 89.5992C156.434 101.099 147.165 106.923 134.531 109.873C121.856 112.833 106.027 112.842 89.506 112.857C73.0468 112.871 55.9317 112.893 40.9002 115.952C25.8526 119.013 12.7396 125.148 4.42971 137.505L6.08934 138.621C13.9896 126.873 26.517 120.919 41.299 117.911C56.0969 114.9 73.0005 114.871 89.5078 114.857C105.953 114.842 122.039 114.844 134.986 111.821C147.973 108.788 158.032 102.651 162.081 90.2185L160.179 89.5992Z" fill="url(#paint0_linear_2508_4519)"/>
<defs>
<linearGradient id="paint0_linear_2508_4519" x1="0.999998" y1="101.371" x2="211.109" y2="24.6247" gradientUnits="userSpaceOnUse">
<stop stop-color="#708BFD" stop-opacity="0.66"/>
<stop offset="1" stop-color="#FE71B9" stop-opacity="0.26"/>
</linearGradient>
</defs>
</svg>
