<svg width="40" height="40" viewBox="0 0 40 40" fill="none" xmlns="http://www.w3.org/2000/svg">
<path d="M15.0952 14.1489H12.1896C13.3503 12.6018 14.9488 11.4258 16.7769 10.7864C16.0103 11.7672 15.4717 12.9677 15.0952 14.1489ZM10.263 19.3521H14.2521C14.293 17.9654 14.4642 16.6463 14.7415 15.4443H11.3681C10.7441 16.6243 10.3549 17.9476 10.263 19.3521ZM20.6477 10.3514V14.1489H23.544C23.0579 12.7707 22.0876 10.8413 20.6477 10.3514ZM19.3521 29.6481V25.8509H16.456C16.942 27.2289 17.9123 29.158 19.3521 29.6481ZM16.7769 29.2132C16.0104 28.2324 15.4716 27.0318 15.0952 25.8509H12.1897C13.3504 27.3978 14.9489 28.5737 16.7769 29.2132ZM11.3681 24.5554H14.7415C14.4642 23.3533 14.293 22.0343 14.2521 20.6476H10.263C10.355 22.0521 10.7442 23.3754 11.3681 24.5554ZM24.4519 20.6476H20.6477V24.5554H23.9307C24.2253 23.3733 24.4086 22.0516 24.4519 20.6476ZM20.6477 29.6481C22.0876 29.1582 23.0579 27.229 23.5439 25.8509H20.6477V29.6481ZM19.3521 20.6476H15.548C15.5914 22.0515 15.7746 23.3733 16.0693 24.5554H19.3521V20.6476ZM28.2936 12.692H28.9291C29.2868 12.692 29.5769 12.402 29.5769 12.0442V6.44548H32.8705C33.1332 7.15025 33.8123 7.65228 34.6086 7.65228C35.6328 7.65228 36.4632 6.822 36.4632 5.79771C36.4632 4.77342 35.6329 3.94314 34.6086 3.94314C33.8123 3.94314 33.1332 4.44508 32.8705 5.14986H28.9291C28.5714 5.14986 28.2813 5.4399 28.2813 5.79763V11.3965H26.9409C27.2464 11.6433 27.5387 11.906 27.8162 12.1835C27.9806 12.3479 28.1397 12.5175 28.2936 12.692ZM25.2584 24.5554H28.6318C29.2558 23.3754 29.645 22.0521 29.737 20.6476H25.7477C25.7069 22.0342 25.5356 23.3533 25.2584 24.5554ZM28.6319 15.4443H25.2584C25.5357 16.6463 25.7069 17.9654 25.7477 19.3521H29.737C29.6451 17.9476 29.2559 16.6243 28.6319 15.4443ZM34.6086 32.3477C33.8123 32.3477 33.1332 32.8497 32.8705 33.5545H29.5769V27.9557C29.5769 27.5979 29.2868 27.3079 28.9291 27.3079H28.2932C28.1395 27.4822 27.9805 27.6517 27.8162 27.816C27.5385 28.0937 27.2461 28.3565 26.9404 28.6034H28.2813V34.2023C28.2813 34.56 28.5714 34.8501 28.9291 34.8501H32.8705C33.1332 35.5548 33.8123 36.0568 34.6086 36.0568C35.6328 36.0568 36.4632 35.2265 36.4632 34.2022C36.4632 33.178 35.6329 32.3477 34.6086 32.3477ZM24.9047 14.1489H27.8105C26.6498 12.6017 25.0512 11.4257 23.223 10.7863C23.9896 11.7671 24.5282 12.9677 24.9047 14.1489ZM19.3521 15.4443H16.0692C15.7746 16.6263 15.5914 17.9481 15.548 19.3521H19.3521V15.4443ZM19.3521 10.3514C17.9122 10.8415 16.942 12.7708 16.456 14.1488H19.3521V10.3514ZM35.8156 20.6478C36.0785 21.3525 36.7574 21.8545 37.5538 21.8545C38.578 21.8545 39.4083 21.0242 39.4083 19.9999C39.4083 18.9757 38.578 18.1454 37.5538 18.1454C36.7574 18.1454 36.0783 18.6474 35.8156 19.3522H31.0349C31.0473 19.5665 31.0538 19.7824 31.0538 19.9998C31.0538 20.2173 31.0473 20.4334 31.0349 20.6478H35.8156ZM32.4659 11.4083C32.1081 11.4083 31.8181 11.6983 31.8181 12.0561V16.1828H30.377C30.5318 16.6032 30.6616 17.0356 30.7649 17.4783H32.4659C32.8237 17.4783 33.1137 17.1883 33.1137 16.8305V12.7038H36.4072C36.67 13.4086 37.349 13.9106 38.1454 13.9106C39.1696 13.9106 39.9999 13.0804 39.9999 12.0561C39.9999 11.0319 39.1696 10.2015 38.1454 10.2015C37.349 10.2015 36.67 10.7035 36.4072 11.4082H32.4659V11.4083ZM38.1454 26.0893C37.349 26.0893 36.67 26.5913 36.4072 27.2961H33.1137V23.1693C33.1137 22.8116 32.8237 22.5215 32.4659 22.5215H30.7648C30.6615 22.9642 30.5317 23.3966 30.377 23.8171H31.8182V27.9439C31.8182 28.3016 32.1082 28.5916 32.4659 28.5916H36.4073C36.6701 29.2964 37.3491 29.7984 38.1454 29.7984C39.1696 29.7984 40 28.9681 40 27.9439C40 26.9196 39.1696 26.0893 38.1454 26.0893ZM23.9307 15.4443H20.6477V19.3521H24.452C24.4086 17.9482 24.2254 16.6263 23.9307 15.4443ZM7.42548 19.9999C7.42548 13.0553 13.0553 7.42548 19.9999 7.42548C21.1555 7.42548 22.2745 7.58216 23.3374 7.87414V0H16.6624V3.34922C14.4525 3.78994 12.397 4.65901 10.587 5.86718L8.2177 3.49788L3.49772 8.21778L5.86702 10.5871C4.65909 12.3973 3.78954 14.4524 3.34897 16.6624H0V23.3374H3.34897C3.7897 25.5474 4.65885 27.6028 5.86702 29.4129L3.4978 31.7821L8.2177 36.502L10.5869 34.1328C12.3971 35.3407 14.4522 36.2103 16.6624 36.6508V39.9998H23.3374V32.1257C22.2745 32.4176 21.1555 32.5744 19.9999 32.5744C13.0553 32.5743 7.42548 26.9446 7.42548 19.9999ZM24.9046 25.8509C24.5282 27.0319 23.9895 28.2324 23.2229 29.2132C25.0507 28.5739 26.6497 27.3979 27.8103 25.8509H24.9046Z" fill="url(#paint0_linear_4897_3726)"/>
<defs>
<linearGradient id="paint0_linear_4897_3726" x1="-0.156863" y1="-4.59239e-07" x2="46.5508" y2="10.3032" gradientUnits="userSpaceOnUse">
<stop stop-color="#5163FF"/>
<stop offset="1" stop-color="#FE71B9"/>
</linearGradient>
</defs>
</svg>
