<svg width="22" height="23" viewBox="0 0 22 23" fill="none" xmlns="http://www.w3.org/2000/svg">
<g filter="url(#filter0_d_2617_13121)">
<path d="M0.571429 20.0017H19.4286C19.7429 20.0017 20 19.7445 20 19.4302V1.71596C20 1.40167 19.7429 1.14453 19.4286 1.14453H16.8571C16.5429 1.14453 16.2857 1.40167 16.2857 1.71596C16.2857 2.03025 16.5429 2.28739 16.8571 2.28739H18.8571V5.14453H1.14286V2.28739H3.14286C3.45714 2.28739 3.71429 2.03025 3.71429 1.71596C3.71429 1.40167 3.45714 1.14453 3.14286 1.14453H0.571429C0.257143 1.14453 0 1.40167 0 1.71596V19.4302C0 19.7445 0.257143 20.0017 0.571429 20.0017ZM18.8571 6.28739V18.8588H1.14286V6.28739H18.8571Z" fill="white"/>
<path d="M6.57143 1.14453C6.25714 1.14453 6 1.40167 6 1.71596C6 2.03025 6.25714 2.28739 6.57143 2.28739H13.4286C13.7429 2.28739 14 2.03025 14 1.71596C14 1.40167 13.7429 1.14453 13.4286 1.14453H6.57143Z" fill="white"/>
<path d="M14.5723 0.571429V2.85714C14.5723 3.17143 14.8294 3.42857 15.1437 3.42857C15.458 3.42857 15.7151 3.17143 15.7151 2.85714V0.571429C15.7151 0.257143 15.458 0 15.1437 0C14.8294 0 14.5723 0.257143 14.5723 0.571429Z" fill="white"/>
<path d="M4.28516 0.571429V2.85714C4.28516 3.17143 4.5423 3.42857 4.85658 3.42857C5.17087 3.42857 5.42801 3.17143 5.42801 2.85714V0.571429C5.42801 0.257143 5.17087 0 4.85658 0C4.5423 0 4.28516 0.257143 4.28516 0.571429Z" fill="white"/>
<path d="M8.85658 11.9989H11.1423C11.4566 11.9989 11.7137 11.7417 11.7137 11.4275V9.14174C11.7137 8.82746 11.4566 8.57031 11.1423 8.57031H8.85658C8.5423 8.57031 8.28516 8.82746 8.28516 9.14174V11.4275C8.28516 11.7417 8.5423 11.9989 8.85658 11.9989ZM9.42801 9.71317H10.5709V10.856H9.42801V9.71317Z" fill="white"/>
<path d="M13.714 11.9989H15.9997C16.314 11.9989 16.5711 11.7417 16.5711 11.4275V9.14174C16.5711 8.82746 16.314 8.57031 15.9997 8.57031H13.714C13.3997 8.57031 13.1426 8.82746 13.1426 9.14174V11.4275C13.1426 11.7417 13.3997 11.9989 13.714 11.9989ZM14.2854 9.71317H15.4283V10.856H14.2854V9.71317Z" fill="white"/>
<path d="M3.99916 11.9989H6.28488C6.59916 11.9989 6.85631 11.7417 6.85631 11.4275V9.14174C6.85631 8.82746 6.59916 8.57031 6.28488 8.57031H3.99916C3.68488 8.57031 3.42773 8.82746 3.42773 9.14174V11.4275C3.42773 11.7417 3.68488 11.9989 3.99916 11.9989ZM4.57059 9.71317H5.71345V10.856H4.57059V9.71317Z" fill="white"/>
<path d="M8.85658 16.5731H11.1423C11.4566 16.5731 11.7137 16.316 11.7137 16.0017V13.716C11.7137 13.4017 11.4566 13.1445 11.1423 13.1445H8.85658C8.5423 13.1445 8.28516 13.4017 8.28516 13.716V16.0017C8.28516 16.316 8.5423 16.5731 8.85658 16.5731ZM9.42801 14.2874H10.5709V15.4302H9.42801V14.2874Z" fill="white"/>
<path d="M13.714 16.5731H15.9997C16.314 16.5731 16.5711 16.316 16.5711 16.0017V13.716C16.5711 13.4017 16.314 13.1445 15.9997 13.1445H13.714C13.3997 13.1445 13.1426 13.4017 13.1426 13.716V16.0017C13.1426 16.316 13.3997 16.5731 13.714 16.5731ZM14.2854 14.2874H15.4283V15.4302H14.2854V14.2874Z" fill="white"/>
<path d="M3.99916 16.5731H6.28488C6.59916 16.5731 6.85631 16.316 6.85631 16.0017V13.716C6.85631 13.4017 6.59916 13.1445 6.28488 13.1445H3.99916C3.68488 13.1445 3.42773 13.4017 3.42773 13.716V16.0017C3.42773 16.316 3.68488 16.5731 3.99916 16.5731ZM4.57059 14.2874H5.71345V15.4302H4.57059V14.2874Z" fill="white"/>
</g>
<defs>
<filter id="filter0_d_2617_13121" x="0" y="0" width="22" height="23" filterUnits="userSpaceOnUse" color-interpolation-filters="sRGB">
<feFlood flood-opacity="0" result="BackgroundImageFix"/>
<feColorMatrix in="SourceAlpha" type="matrix" values="0 0 0 0 0 0 0 0 0 0 0 0 0 0 0 0 0 0 127 0" result="hardAlpha"/>
<feOffset dx="1" dy="2"/>
<feGaussianBlur stdDeviation="0.5"/>
<feComposite in2="hardAlpha" operator="out"/>
<feColorMatrix type="matrix" values="0 0 0 0 0.0470588 0 0 0 0 0.0156863 0 0 0 0 0.258824 0 0 0 0.3 0"/>
<feBlend mode="normal" in2="BackgroundImageFix" result="effect1_dropShadow_2617_13121"/>
<feBlend mode="normal" in="SourceGraphic" in2="effect1_dropShadow_2617_13121" result="shape"/>
</filter>
</defs>
</svg>
