<svg width="102" height="20" viewBox="0 0 102 20" fill="none" xmlns="http://www.w3.org/2000/svg">
<path d="M10.9131 15.1612L15.46 14.0045L17.3597 19.8814L10.9131 15.1612ZM21.3771 7.56495H13.3734L10.9131 0L8.45287 7.56495H0.449219L6.92689 12.254L4.46661 19.8189L10.9443 15.1299L14.9305 12.254L21.3771 7.56495Z" fill="#219653"/>
<path d="M25.5625 6.90178V4.85748H35.2521V6.90178H31.6401V16.585H29.1745V6.90178H25.5625Z" fill="#00234B"/>
<path d="M35.883 16.585V7.78936H38.2622V9.32402H38.3543C38.5156 8.77811 38.7864 8.36581 39.1666 8.08713C39.5468 7.80463 39.9846 7.66338 40.4801 7.66338C40.603 7.66338 40.7355 7.67102 40.8776 7.68629C41.0197 7.70156 41.1445 7.72256 41.252 7.74928V9.91383C41.1368 9.87947 40.9774 9.84893 40.7739 9.82221C40.5703 9.79549 40.384 9.78213 40.2151 9.78213C39.8541 9.78213 39.5315 9.86039 39.2473 10.0169C38.9669 10.1696 38.7441 10.3834 38.579 10.6583C38.4177 10.9331 38.337 11.25 38.337 11.6088V16.585H35.883Z" fill="#00234B"/>
<path d="M48.1952 12.84V7.78936H50.6493V16.585H48.2931V14.9874H48.201C48.0012 15.5027 47.669 15.9169 47.2043 16.23C46.7435 16.543 46.1808 16.6995 45.5164 16.6995C44.925 16.6995 44.4046 16.5659 43.9553 16.2987C43.5059 16.0315 43.1545 15.6516 42.901 15.1592C42.6514 14.6667 42.5247 14.0769 42.5208 13.3897V7.78936H44.9749V12.9545C44.9788 13.4737 45.1189 13.8841 45.3955 14.1857C45.672 14.4873 46.0426 14.6381 46.5073 14.6381C46.803 14.6381 47.0795 14.5712 47.3368 14.4376C47.5942 14.3002 47.8015 14.0979 47.959 13.8306C48.1203 13.5634 48.199 13.2332 48.1952 12.84Z" fill="#00234B"/>
<path d="M59.9746 10.2975L57.7279 10.4349C57.6895 10.2441 57.6069 10.0723 57.4801 9.91956C57.3534 9.76304 57.1863 9.63897 56.979 9.54735C56.7754 9.45191 56.5315 9.40419 56.2473 9.40419C55.8671 9.40419 55.5464 9.48436 55.2853 9.64469C55.0241 9.80121 54.8936 10.0112 54.8936 10.2746C54.8936 10.4846 54.978 10.6621 55.147 10.8071C55.316 10.9522 55.606 11.0686 56.0169 11.1564L57.6184 11.4771C58.4787 11.6527 59.12 11.9352 59.5425 12.3246C59.965 12.714 60.1762 13.2256 60.1762 13.8593C60.1762 14.4357 60.0053 14.9416 59.6635 15.3768C59.3255 15.812 58.8608 16.1517 58.2694 16.396C57.6818 16.6365 57.0039 16.7568 56.2358 16.7568C55.0645 16.7568 54.1312 16.5144 53.4361 16.0296C52.7448 15.5409 52.3396 14.8767 52.2205 14.0368L54.6343 13.9108C54.7073 14.2658 54.884 14.5369 55.1643 14.724C55.4447 14.9072 55.8038 14.9988 56.2416 14.9988C56.6717 14.9988 57.0174 14.9167 57.2785 14.7526C57.5435 14.5846 57.6779 14.3689 57.6818 14.1055C57.6779 13.8841 57.5838 13.7028 57.3995 13.5615C57.2151 13.4164 56.931 13.3057 56.5469 13.2294L55.0145 12.9259C54.1504 12.7541 53.5071 12.4563 53.0847 12.0326C52.666 11.6088 52.4567 11.0686 52.4567 10.412C52.4567 9.84703 52.6104 9.36029 52.9176 8.95181C53.2287 8.54333 53.6646 8.22838 54.2253 8.00696C54.7899 7.78555 55.4504 7.67484 56.207 7.67484C57.3246 7.67484 58.2041 7.90962 58.8455 8.37917C59.4907 8.84873 59.867 9.48817 59.9746 10.2975Z" fill="#00234B"/>
<path d="M66.4281 7.78936V9.62179H61.0994V7.78936H66.4281ZM62.3091 5.68207H64.7632V13.8822C64.7632 14.1074 64.7978 14.283 64.8669 14.409C64.936 14.5312 65.0321 14.6171 65.155 14.6667C65.2817 14.7163 65.4276 14.7411 65.5928 14.7411C65.708 14.7411 65.8232 14.7316 65.9384 14.7125C66.0536 14.6896 66.142 14.6724 66.2034 14.661L66.5894 16.4762C66.4665 16.5144 66.2937 16.5583 66.0709 16.6079C65.8482 16.6614 65.5774 16.6938 65.2587 16.7053C64.6672 16.7282 64.1487 16.6499 63.7032 16.4705C63.2616 16.2911 62.9179 16.0124 62.6721 15.6344C62.4263 15.2565 62.3053 14.7793 62.3091 14.2029V5.68207Z" fill="#00234B"/>
<path d="M68.0267 19.8834V7.78936H70.4462V9.26676H70.5557C70.6632 9.03007 70.8188 8.78956 71.0223 8.54524C71.2297 8.2971 71.4985 8.09095 71.8288 7.9268C72.163 7.75882 72.5777 7.67484 73.0732 7.67484C73.7184 7.67484 74.3137 7.84281 74.859 8.17875C75.4044 8.51088 75.8403 9.01289 76.1667 9.68478C76.4931 10.3529 76.6564 11.1908 76.6564 12.1986C76.6564 13.1798 76.497 14.0082 76.1782 14.6839C75.8633 15.3558 75.4332 15.8654 74.8878 16.2128C74.3463 16.5564 73.7395 16.7282 73.0674 16.7282C72.5912 16.7282 72.186 16.6499 71.8519 16.4934C71.5216 16.3369 71.2508 16.1403 71.0396 15.9036C70.8284 15.6631 70.6671 15.4207 70.5557 15.1763H70.4808V19.8834H68.0267ZM70.429 12.1872C70.429 12.7102 70.5019 13.1664 70.6479 13.5558C70.7938 13.9452 71.005 14.2487 71.2816 14.4663C71.5581 14.68 71.8941 14.7869 72.2897 14.7869C72.6891 14.7869 73.0271 14.6781 73.3036 14.4605C73.5801 14.2391 73.7894 13.9337 73.9315 13.5443C74.0775 13.1511 74.1504 12.6987 74.1504 12.1872C74.1504 11.6795 74.0794 11.2328 73.9373 10.8472C73.7952 10.4617 73.5859 10.1601 73.3093 9.94246C73.0328 9.72486 72.6929 9.61606 72.2897 9.61606C71.8903 9.61606 71.5523 9.72105 71.2758 9.93101C71.0031 10.141 70.7938 10.4387 70.6479 10.8243C70.5019 11.2099 70.429 11.6642 70.429 12.1872Z" fill="#00234B"/>
<path d="M78.2924 16.585V7.78936H80.7465V16.585H78.2924ZM79.5252 6.65555C79.1604 6.65555 78.8474 6.5353 78.5862 6.29479C78.3289 6.05047 78.2003 5.75842 78.2003 5.41866C78.2003 5.08272 78.3289 4.79449 78.5862 4.55399C78.8474 4.30966 79.1604 4.1875 79.5252 4.1875C79.8901 4.1875 80.2012 4.30966 80.4585 4.55399C80.7196 4.79449 80.8502 5.08272 80.8502 5.41866C80.8502 5.75842 80.7196 6.05047 80.4585 6.29479C80.2012 6.5353 79.8901 6.65555 79.5252 6.65555Z" fill="#00234B"/>
<path d="M85.1665 4.85748V16.585H82.7124V4.85748H85.1665Z" fill="#00234B"/>
<path d="M91.1303 16.7568C90.2355 16.7568 89.4616 16.5678 88.8088 16.1899C88.1597 15.8081 87.6585 15.2775 87.3052 14.598C86.9519 13.9146 86.7752 13.1225 86.7752 12.2215C86.7752 11.313 86.9519 10.5189 87.3052 9.83939C87.6585 9.15605 88.1597 8.62541 88.8088 8.24747C89.4616 7.86571 90.2355 7.67484 91.1303 7.67484C92.0252 7.67484 92.7971 7.86571 93.4462 8.24747C94.0991 8.62541 94.6022 9.15605 94.9555 9.83939C95.3088 10.5189 95.4855 11.313 95.4855 12.2215C95.4855 13.1225 95.3088 13.9146 94.9555 14.598C94.6022 15.2775 94.0991 15.8081 93.4462 16.1899C92.7971 16.5678 92.0252 16.7568 91.1303 16.7568ZM91.1419 14.8671C91.549 14.8671 91.8889 14.7526 92.1615 14.5235C92.4342 14.2907 92.6397 13.9738 92.7779 13.573C92.92 13.1721 92.9911 12.7159 92.9911 12.2044C92.9911 11.6928 92.92 11.2366 92.7779 10.8358C92.6397 10.4349 92.4342 10.1181 92.1615 9.8852C91.8889 9.65233 91.549 9.53589 91.1419 9.53589C90.7309 9.53589 90.3853 9.65233 90.1049 9.8852C89.8284 10.1181 89.6191 10.4349 89.477 10.8358C89.3387 11.2366 89.2696 11.6928 89.2696 12.2044C89.2696 12.7159 89.3387 13.1721 89.477 13.573C89.6191 13.9738 89.8284 14.2907 90.1049 14.5235C90.3853 14.7526 90.7309 14.8671 91.1419 14.8671Z" fill="#00234B"/>
<path d="M101.788 7.78936V9.62179H96.4591V7.78936H101.788ZM97.6688 5.68207H100.123V13.8822C100.123 14.1074 100.158 14.283 100.227 14.409C100.296 14.5312 100.392 14.6171 100.515 14.6667C100.641 14.7163 100.787 14.7411 100.952 14.7411C101.068 14.7411 101.183 14.7316 101.298 14.7125C101.413 14.6896 101.502 14.6724 101.563 14.661L101.949 16.4762C101.826 16.5144 101.653 16.5583 101.431 16.6079C101.208 16.6614 100.937 16.6938 100.618 16.7053C100.027 16.7282 99.5085 16.6499 99.063 16.4705C98.6213 16.2911 98.2776 16.0124 98.0318 15.6344C97.786 15.2565 97.665 14.7793 97.6688 14.2029V5.68207Z" fill="#00234B"/>
</svg>
