<svg width="100" height="30" viewBox="0 0 100 30" fill="none" xmlns="http://www.w3.org/2000/svg">
<path d="M14.9962 0C6.71422 0 0 6.71585 0 15.0001C0 23.2847 6.71422 30 14.9962 30C23.2791 30 29.9926 23.2847 29.9926 15.0001C29.9926 6.71638 23.2791 0.000716487 14.9961 0.000716487L14.9962 0ZM21.8734 21.6344C21.6048 22.0751 21.0282 22.2148 20.5877 21.9443C17.0667 19.7931 12.6342 19.3058 7.41422 20.4988C6.9112 20.6134 6.40979 20.2982 6.29518 19.7948C6.18004 19.2915 6.49396 18.79 6.99823 18.6753C12.7107 17.3699 17.6107 17.932 21.5636 20.3483C22.0041 20.6188 22.1438 21.1938 21.8734 21.6344ZM23.7089 17.5501C23.3705 18.1003 22.6506 18.2741 22.1008 17.9356C18.0699 15.4572 11.9253 14.7395 7.15743 16.1871C6.53908 16.374 5.886 16.0254 5.69833 15.408C5.51209 14.7894 5.86075 14.1374 6.47802 13.9494C11.9242 12.2964 18.6948 13.0971 23.3239 15.9425C23.8737 16.281 24.0474 17.0011 23.7089 17.5503V17.5501ZM23.8665 13.297C19.0333 10.4255 11.0591 10.1614 6.44453 11.5624C5.70352 11.7872 4.91989 11.3687 4.69533 10.6275C4.47077 9.88596 4.88873 9.10266 5.63028 8.87732C10.9275 7.2688 19.7335 7.57958 25.298 10.8839C25.966 11.2795 26.1844 12.1406 25.7887 12.8064C25.3947 13.4731 24.5316 13.6929 23.8672 13.297H23.8665ZM40.7998 13.8473C38.2104 13.2296 37.7501 12.7962 37.7501 11.8853C37.7501 11.0248 38.5596 10.4457 39.7647 10.4457C40.9323 10.4457 42.0891 10.8855 43.3032 11.7907C43.3391 11.8182 43.3856 11.8291 43.4304 11.8219C43.4769 11.8151 43.5163 11.7902 43.5432 11.7528L44.8075 9.97015C44.8594 9.89671 44.8451 9.7955 44.7752 9.73944C43.3301 8.57998 41.7041 8.01628 39.8023 8.01628C37.007 8.01628 35.0533 9.69448 35.0533 12.0956C35.0533 14.6705 36.7384 15.5822 39.6501 16.286C42.1267 16.8569 42.5458 17.3351 42.5458 18.1899C42.5458 19.1375 41.7005 19.7268 40.3396 19.7268C38.8282 19.7268 37.5943 19.2163 36.2155 18.0233C36.1815 17.9929 36.1349 17.9803 36.0919 17.9821C36.0454 17.9857 36.0042 18.0072 35.9755 18.0412L34.5572 19.7286C34.4981 19.8002 34.5053 19.9041 34.5734 19.965C36.1779 21.398 38.1513 22.1539 40.2823 22.1539C43.2943 22.1539 45.2408 20.5078 45.2408 17.9588C45.2462 15.8081 43.9587 14.6169 40.8052 13.8496L40.7998 13.8473ZM52.0564 11.293C50.751 11.293 49.6801 11.8074 48.7955 12.8615V11.675C48.7955 11.5814 48.7202 11.505 48.6271 11.505H46.3081C46.215 11.505 46.1398 11.5814 46.1398 11.675V24.8586C46.1398 24.9518 46.215 25.0288 46.3081 25.0288H48.6271C48.7202 25.0288 48.7955 24.9518 48.7955 24.8586V20.6976C49.6801 21.6882 50.751 22.1736 52.0564 22.1736C54.4829 22.1736 56.9398 20.3053 56.9398 16.7338C56.9433 13.1616 54.4864 11.2928 52.0582 11.2928L52.0564 11.293ZM54.2429 16.7338C54.2429 18.5517 53.1237 19.8217 51.5192 19.8217C49.9344 19.8217 48.7382 18.4944 48.7382 16.7338C48.7382 14.973 49.9344 13.6461 51.5192 13.6461C53.0968 13.6459 54.2429 14.9442 54.2429 16.7336V16.7338ZM63.2342 11.293C60.1094 11.293 57.6614 13.6997 57.6614 16.7727C57.6614 19.8128 60.0933 22.1933 63.1966 22.1933C66.3322 22.1933 68.7873 19.7948 68.7873 16.7338C68.7873 13.6832 66.3483 11.2933 63.2342 11.2933V11.293ZM63.2342 19.8396C61.5724 19.8396 60.3189 18.5034 60.3189 16.7329C60.3189 14.9544 61.5294 13.6638 63.1966 13.6638C64.8692 13.6638 66.1299 14.9996 66.1299 16.7718C66.1299 18.5499 64.9122 19.8396 63.2342 19.8396ZM75.4596 11.505H72.9078V8.89595C72.9078 8.80245 72.8326 8.72614 72.7395 8.72614H70.4205C70.3274 8.72614 70.2504 8.80245 70.2504 8.89595V11.505H69.1365C69.0434 11.505 68.9682 11.5814 68.9682 11.675V13.6681C68.9682 13.7616 69.0434 13.8381 69.1365 13.8381H70.2504V18.996C70.2504 21.0792 71.2872 22.136 73.334 22.136C74.1649 22.136 74.8544 21.964 75.5044 21.595C75.5581 21.5664 75.5904 21.509 75.5904 21.4481V19.5494C75.5904 19.4921 75.5599 19.4366 75.5098 19.4061C75.4596 19.3739 75.397 19.3721 75.345 19.399C74.8991 19.6229 74.4676 19.7268 73.9841 19.7268C73.2409 19.7268 72.9078 19.3882 72.9078 18.6323V13.839H75.4596C75.5528 13.839 75.628 13.7627 75.628 13.669V11.6761C75.6316 11.5824 75.5563 11.5061 75.4614 11.5061L75.4596 11.505ZM84.3489 11.5153V11.1948C84.3489 10.2521 84.7106 9.83168 85.52 9.83168C86.0035 9.83168 86.3921 9.92769 86.8273 10.0728C86.881 10.0896 86.9365 10.0812 86.9795 10.0491C87.0243 10.0171 87.0493 9.96567 87.0493 9.91121V7.95699C87.0493 7.88229 87.0028 7.8162 86.9294 7.79416C86.4709 7.65749 85.8836 7.51724 85.0025 7.51724C82.8626 7.51724 81.729 8.72345 81.729 11.0042V11.495H80.6152C80.5221 11.495 80.4451 11.5713 80.4451 11.6648V13.6681C80.4451 13.7616 80.5221 13.8381 80.6152 13.8381H81.729V21.7921C81.729 21.887 81.806 21.9622 81.8992 21.9622H84.2164C84.3113 21.9622 84.3865 21.887 84.3865 21.7921V13.8387H86.5515L89.868 21.7921C89.4919 22.6268 89.1212 22.7934 88.6162 22.7934C88.2079 22.7934 87.7764 22.6716 87.3376 22.4297C87.2965 22.4082 87.2463 22.4047 87.2033 22.4172C87.1586 22.4333 87.121 22.4656 87.1031 22.5086L86.3169 24.2335C86.2793 24.3159 86.3116 24.4108 86.3903 24.4538C87.2105 24.8981 87.9501 25.0879 88.8652 25.0879C90.5771 25.0879 91.5244 24.289 92.3571 22.1431L96.3791 11.7474C96.4006 11.6951 96.3934 11.636 96.3612 11.5896C96.3308 11.5436 96.2788 11.5158 96.2233 11.5158H93.8094C93.736 11.5158 93.6715 11.5618 93.6482 11.6297L91.1752 18.6932L88.4676 11.6251C88.4425 11.5593 88.3799 11.5158 88.31 11.5158H84.3489V11.5153ZM79.1951 11.505H76.8761C76.783 11.505 76.706 11.5814 76.706 11.675V21.7921C76.706 21.887 76.783 21.9622 76.8761 21.9622H79.1951C79.2883 21.9622 79.3653 21.887 79.3653 21.7921V11.6758C79.3653 11.5821 79.29 11.5058 79.1951 11.5058V11.505ZM78.0491 6.89819C77.1304 6.89819 76.3855 7.64191 76.3855 8.56063C76.3855 9.47989 77.1304 10.2245 78.0491 10.2245C78.9677 10.2245 79.7109 9.47989 79.7109 8.56063C79.7109 7.64209 78.9659 6.89819 78.0491 6.89819ZM98.3597 14.7581C97.4428 14.7581 96.7283 14.021 96.7283 13.1259C96.7283 12.2309 97.4518 11.4853 98.3686 11.4853C99.2855 11.4853 100 12.2223 100 13.1166C100 14.0117 99.2765 14.7581 98.3597 14.7581ZM98.3686 11.6476C97.5324 11.6476 96.9002 12.3122 96.9002 13.1259C96.9002 13.9393 97.5288 14.5949 98.3597 14.5949C99.196 14.5949 99.8281 13.9309 99.8281 13.1166C99.8281 12.3032 99.1995 11.6476 98.3686 11.6476ZM98.7304 13.2845L99.1924 13.9307H98.802L98.3865 13.3378H98.0302V13.9307H97.7043V12.2176H98.4671C98.8665 12.2176 99.1279 12.4213 99.1279 12.7641C99.1297 13.045 98.9667 13.2166 98.7321 13.2845H98.7304ZM98.4546 12.5115H98.0302V13.0534H98.4546C98.6659 13.0534 98.793 12.9497 98.793 12.7822C98.793 12.6059 98.6659 12.5115 98.4546 12.5115Z" fill="#1ED760"/>
</svg>
