<svg width="140" height="55" viewBox="0 0 140 55" fill="none" xmlns="http://www.w3.org/2000/svg">
<path d="M0.523438 13.9549H10.6035C17.0375 13.9549 21.1125 19.1339 21.1125 26.255C21.1125 30.1392 19.8256 33.5918 17.252 35.7495C15.5362 37.2601 13.177 38.1233 10.1745 38.1233H0.523438V13.9549ZM9.85282 33.9153C14.4638 33.9153 16.1797 31.1101 16.1797 26.3628C16.1797 21.6156 14.1422 18.2707 9.96003 18.2707H5.34898V34.0232H9.85282V33.9153ZM21.8629 29.4918C21.8629 24.3128 25.5089 20.3207 30.8707 20.3207C36.2324 20.3207 39.8783 24.3128 39.8783 29.4918C39.8783 34.6706 36.2324 38.6628 30.8707 38.6628C25.5089 38.6628 21.8629 34.5627 21.8629 29.4918ZM35.16 29.4918C35.16 26.1469 33.5517 23.7733 30.7634 23.7733C27.9753 23.7733 26.3669 26.0391 26.3669 29.4918C26.3669 32.9442 27.8681 35.1022 30.7634 35.1022C33.6587 35.1022 35.16 32.8364 35.16 29.4918ZM40.7362 29.4918C40.7362 24.3128 44.0606 20.3207 49.315 20.3207C53.8187 20.3207 56.4996 22.9102 57.1431 26.6865H52.6392C52.3175 25.176 51.1379 23.9892 49.5293 23.9892C46.7413 23.9892 45.3472 26.1469 45.3472 29.4918C45.3472 32.7286 46.634 34.9943 49.4222 34.9943C51.2451 34.9943 52.532 34.0232 52.8537 32.0812H57.3575C57.0357 35.7495 54.2478 38.6628 49.6367 38.6628C44.1678 38.5549 40.7362 34.5627 40.7362 29.4918ZM69.3678 38.1233V36.0732H69.2604C68.0809 37.6917 66.7941 38.5549 64.3276 38.5549C60.4672 38.5549 58.3226 36.0732 58.3226 32.2969V20.7523H62.8265V31.5417C62.8265 33.5918 63.6842 34.6706 65.7217 34.6706C67.8664 34.6706 69.1531 33.0523 69.1531 30.7865V20.7523H73.7644V38.0155H69.3678V38.1233ZM95.9618 14.0629H100.573V18.3787H95.9618V14.0629ZM95.9618 20.7523H100.573V38.0155H95.9618V20.7523ZM102.396 38.5549H106.9C107.221 39.6337 108.294 40.4969 110.331 40.4969C112.905 40.4969 114.191 39.2022 114.191 36.9365V34.9943H114.084C113.12 36.1811 111.726 37.0442 109.581 37.0442C105.721 37.0442 101.967 34.0232 101.967 28.7365C101.967 23.5576 105.077 20.3207 109.366 20.3207C111.511 20.3207 113.12 21.1838 114.084 22.5865H114.191V20.7523H118.588V36.7206C118.588 39.2022 117.837 40.8206 116.551 42.0073C115.157 43.4101 112.905 43.9496 110.331 43.9496C105.827 43.9496 102.932 42.0073 102.396 38.5549ZM114.513 28.6286C114.513 26.1469 113.118 23.9892 110.439 23.9892C108.079 23.9892 106.578 25.8233 106.578 28.7365C106.578 31.6496 108.079 33.3759 110.439 33.3759C113.334 33.3759 114.513 31.218 114.513 28.6286ZM125.129 23.126C126.415 21.2918 128.025 20.3207 130.277 20.3207C133.816 20.3207 136.174 23.0181 136.174 26.7943V38.1233H131.563V27.5497C131.563 25.7155 130.491 24.4207 128.561 24.4207C126.523 24.4207 125.021 26.0391 125.021 28.4127V38.2312H120.625V20.968H125.129V23.126ZM85.5598 23.5576C82.0215 22.8023 80.413 22.1549 80.413 20.2129C80.413 18.4866 82.1283 17.4076 84.7021 17.4076C87.0615 17.4076 88.8844 18.4866 89.3133 20.7523H94.0313C93.4956 16.1129 90.0641 13.5234 84.7021 13.5234C79.3409 13.5234 75.4798 16.0049 75.4798 20.7523C75.4798 25.8233 79.4477 26.9023 83.7369 27.8732C87.3828 28.7365 89.6345 29.1679 89.6345 31.5417C89.6345 33.8075 87.4903 34.6706 85.0234 34.6706C81.5927 34.6706 79.9841 33.4838 79.6621 30.5706H74.9441C75.1586 35.6418 78.8044 38.5549 85.3454 38.5549C90.7074 38.5549 94.6753 35.8573 94.6753 30.8943C94.5677 25.8233 90.493 24.6366 85.5598 23.5576ZM138.104 23.9892C137.14 23.9892 136.281 23.126 136.281 22.1549C136.281 21.1838 137.14 20.3207 138.104 20.3207C139.07 20.3207 139.928 21.1838 139.928 22.1549C139.928 23.126 139.07 23.9892 138.104 23.9892ZM138.104 20.6443C137.247 20.6443 136.604 21.2918 136.604 22.1549C136.604 23.0181 137.247 23.6655 138.104 23.6655C138.962 23.6655 139.606 23.0181 139.606 22.1549C139.606 21.2918 138.962 20.6443 138.104 20.6443Z" fill="url(#paint0_linear_2541_4470)"/>
<path d="M137.461 21.1836H138.104C138.319 21.1836 138.532 21.1836 138.64 21.2915C138.747 21.3993 138.855 21.5074 138.855 21.7231C138.855 22.0468 138.64 22.1547 138.532 22.2626L138.963 23.0177H138.532L138.212 22.3704H137.783V23.0177H137.461V21.1836ZM137.783 21.5074V22.0468H138.104C138.212 22.0468 138.426 22.0468 138.426 21.7231C138.426 21.7231 138.426 21.5074 138.319 21.5074H137.783Z" fill="#838A95"/>
<defs>
<linearGradient id="paint0_linear_2541_4470" x1="0.523437" y1="13.5234" x2="83.881" y2="98.4343" gradientUnits="userSpaceOnUse">
<stop stop-color="#5163FF"/>
<stop offset="0.5" stop-color="#C872F2"/>
<stop offset="1" stop-color="#FE72BA"/>
</linearGradient>
</defs>
</svg>
