<svg width="150" height="53" viewBox="0 0 150 53" fill="none" xmlns="http://www.w3.org/2000/svg">
<mask id="mask0_2541_4404" style="mask-type:luminance" maskUnits="userSpaceOnUse" x="0" y="0" width="150" height="52">
<path d="M150 0H0V51.5151H150V0Z" fill="white"/>
</mask>
<g mask="url(#mask0_2541_4404)">
<mask id="mask1_2541_4404" style="mask-type:luminance" maskUnits="userSpaceOnUse" x="0" y="0" width="150" height="52">
<path d="M150 0H0V51.5151H150V0Z" fill="white"/>
</mask>
<g mask="url(#mask1_2541_4404)">
<path d="M148.456 19.5158C148.456 18.9358 148.052 18.5489 147.387 18.5489L146.08 18.573L146.104 21.5222H146.817V20.507H147.244L147.862 21.5222H148.693L147.957 20.386C148.109 20.3 148.236 20.1738 148.324 20.0206C148.412 19.8676 148.457 19.6932 148.456 19.5158ZM147.244 19.9026H146.793V19.1532H147.316C147.41 19.1428 147.504 19.1695 147.579 19.228C147.654 19.2865 147.705 19.3723 147.719 19.4674V19.4917C147.718 19.5514 147.703 19.6101 147.678 19.664C147.652 19.7179 147.617 19.7656 147.572 19.8044C147.527 19.8432 147.474 19.8718 147.418 19.8888C147.362 19.9058 147.302 19.9104 147.244 19.9026ZM41.8764 33.1494C40.665 33.1494 39.8336 32.1824 39.8336 30.7562V24.2538H44.8218V19.6609H39.8454L39.798 14.3912H34.2872L34.3348 31.9408C34.3348 35.4941 36.6626 37.9114 40.083 37.9114C41.8884 37.9114 43.5984 37.6454 44.9524 37.017V32.545C43.9909 32.9991 42.9348 33.2065 41.8764 33.1494ZM55.0355 19.3708C49.9048 19.3708 45.9618 23.4318 45.9618 28.8224C45.9618 34.1646 49.9048 37.8873 55.3442 37.8873C58.4085 37.8873 61.2826 36.7753 63.0402 34.4788L58.8122 32.5209C57.9572 33.3185 56.6507 33.6328 55.4868 33.6328C53.5866 33.6328 51.6864 32.6417 51.425 30.6112H64.0378C64.2274 29.8856 64.3232 29.1381 64.3228 28.3873C64.3228 22.8516 60.3562 19.3708 55.0474 19.3708H55.0355ZM51.425 27.0577C51.5914 24.6404 53.3015 23.5285 55.178 23.5285C57.2919 23.5285 58.8834 24.7371 58.8834 26.8161V27.0577H51.425ZM29.0499 33.1494C27.8385 33.1494 27.0071 32.1824 27.0071 30.7562V24.2538H31.9952V19.6609H27.0189L26.9713 14.3912H21.4607L21.5083 31.9408C21.5083 35.4941 23.836 37.9114 27.2565 37.9114C29.0616 37.9114 30.7719 37.6454 32.1257 37.017V32.545C31.165 33.0012 30.1083 33.209 29.0499 33.1494ZM9.69118 19.3708C4.96436 19.3708 0 22.5374 0 28.9191C0 34.2371 3.51542 37.9597 7.95726 37.9597C10.4988 37.9597 12.4228 36.9203 13.6817 35.0832L13.8479 37.6454H19.1804V29.1367C19.1804 22.6584 14.4893 19.3708 9.69118 19.3708ZM9.69118 33.0526C7.29215 33.0526 5.55818 31.2397 5.55818 28.6774C5.55818 26.115 7.26839 24.3021 9.69118 24.3021C11.924 24.3021 13.7767 26.2843 13.7767 28.6774C13.7767 31.0704 11.924 33.0526 9.69118 33.0526ZM147.126 17.2194C145.392 17.2436 144.276 18.3797 144.299 20.0718C144.323 21.764 145.463 22.876 147.197 22.8517C148.883 22.8276 150.024 21.6913 150 19.9752C149.976 18.2588 148.836 17.1953 147.126 17.2194ZM147.197 22.3682C145.843 22.3924 144.917 21.4738 144.917 20.0718C144.917 18.6699 145.795 17.727 147.149 17.7029C148.503 17.6786 149.406 18.5973 149.429 20.0235C149.429 21.4014 148.527 22.3441 147.208 22.3682H147.197ZM120.189 19.685L116.342 31.0464L112.446 19.685H106.461L113.634 37.6213H119.002L126.175 19.685H120.189ZM134.466 19.3708C129.335 19.3708 125.391 23.4318 125.391 28.8224C125.391 34.1646 129.335 37.8873 134.774 37.8873C137.838 37.8873 140.713 36.7753 142.47 34.4788L138.242 32.5209C137.387 33.3185 136.081 33.6328 134.916 33.6328C133.016 33.6328 131.116 32.6417 130.854 30.6112H143.468C143.657 29.8856 143.753 29.1381 143.753 28.3873C143.753 22.8516 139.786 19.3708 134.466 19.3708ZM138.313 27.0577H130.854C131.021 24.6404 132.731 23.5285 134.608 23.5285C136.722 23.5285 138.313 24.7371 138.313 26.8161V27.0577ZM102.208 11.8047C100.261 11.8047 98.7884 13.1342 98.7884 14.9955C98.7884 16.8568 100.261 18.2347 102.208 18.2347C104.157 18.2347 105.629 16.8811 105.629 14.9955C105.629 13.11 104.181 11.8047 102.208 11.8047ZM77.1969 19.3467C76.0833 19.3284 74.984 19.6037 74.0057 20.1459C73.0276 20.688 72.2039 21.4787 71.615 22.4408L71.425 19.685H66.1044V37.6213H71.615V28.218C71.7338 25.97 73.5153 24.2538 75.463 24.2538C77.6484 24.2538 78.6459 25.9217 78.6459 28.0247V37.5971H84.1326V27.1544C84.1326 22.61 81.4129 19.3467 77.1969 19.3467ZM94.0145 33.1494C92.8026 33.1494 91.9713 32.1824 91.9713 30.7562V24.2538H96.9592V19.6609H91.9713L91.9239 14.3912H86.4134L86.4608 31.9408C86.4608 35.4941 88.7882 37.9114 92.2089 37.9114C94.0145 37.9114 95.7245 37.6454 97.0784 37.017V32.545C96.1208 32.9992 95.0684 33.2068 94.0145 33.1494ZM99.4295 19.685V37.6213H104.988V19.685C104.164 20.2408 103.198 20.5371 102.208 20.5371C101.22 20.5371 100.254 20.2408 99.4295 19.685Z" fill="url(#paint0_linear_2541_4404)"/>
</g>
</g>
<defs>
<linearGradient id="paint0_linear_2541_4404" x1="-0.588236" y1="11.8047" x2="70.0448" y2="101.161" gradientUnits="userSpaceOnUse">
<stop stop-color="#5163FF"/>
<stop offset="1" stop-color="#FE71B9"/>
</linearGradient>
</defs>
</svg>
