<svg width="140" height="51" viewBox="0 0 140 51" fill="none" xmlns="http://www.w3.org/2000/svg">
<path d="M0 2.09375H30.222V17.3501H15.111L0 2.09375ZM0 17.3501H15.111L30.222 32.6064H0V17.3501ZM0 32.6064H15.111V47.8627L0 32.6064Z" fill="url(#paint0_linear_2541_4486)"/>
<path d="M44.959 14.1289H57.1752V18.0482H49.5828V23.4947H57.1752V27.3275H49.5828V34.3013H44.959V14.1289ZM59.687 20.4109H64.0543V23.3216C64.2824 22.3214 64.7491 21.5536 65.4529 21.0162C66.1747 20.4585 66.976 20.1806 67.8505 20.1806C68.3075 20.1806 68.6884 20.2198 68.992 20.2957V24.3882C68.5564 24.3352 68.1181 24.3065 67.6791 24.3016C66.4802 24.3016 65.5773 24.6946 64.9676 25.4826C64.3599 26.2511 64.0543 27.4036 64.0543 28.9413V34.3013H59.6891V20.4109H59.687ZM75.886 34.676C74.5545 34.676 73.3931 34.3585 72.4039 33.7247C71.4331 33.0909 70.6617 32.1911 70.1777 31.1309C69.664 30.0175 69.4053 28.7577 69.4053 27.3562C69.4053 25.9726 69.6737 24.7232 70.206 23.6099C70.7051 22.5342 71.4974 21.6247 72.4895 20.9875C73.4969 20.3537 74.6489 20.0362 75.9435 20.0362C76.9132 20.0362 77.7804 20.2483 78.5409 20.6706C79.3013 21.0942 79.8723 21.6708 80.2533 22.3996V20.4109H84.5918V34.3013H80.2533V32.3413C79.8723 33.0329 79.2829 33.599 78.4834 34.0416C77.6847 34.4695 76.7909 34.6873 75.886 34.676ZM77.1423 31.0157C78.1887 31.0157 78.997 30.6703 79.568 29.9785C80.1391 29.2868 80.425 28.4121 80.425 27.3562C80.425 26.3188 80.1391 25.454 79.568 24.7623C78.997 24.0706 78.1887 23.7251 77.1423 23.7251C76.152 23.7251 75.354 24.0608 74.7447 24.7337C74.1552 25.4065 73.8597 26.2798 73.8597 27.3562C73.8597 28.4324 74.1552 29.3154 74.7447 30.0072C75.354 30.68 76.1528 31.0157 77.1423 31.0157ZM87.646 20.4109H92.0133V22.4282C92.3191 21.7162 92.8128 21.1396 93.4973 20.6993C94.2024 20.2588 95.0203 20.0362 95.9524 20.0362C98.1217 20.0362 99.5593 20.8905 100.262 22.6013C100.649 21.8257 101.255 21.1844 102.003 20.7572C102.804 20.2706 103.724 20.0214 104.658 20.0362C107.912 20.0362 109.539 21.918 109.539 25.6844V34.3013H105.143V26.4913C105.143 25.5511 104.971 24.8593 104.629 24.4168C104.286 23.9757 103.773 23.7537 103.088 23.7537C102.346 23.7537 101.775 24.0134 101.375 24.5319C100.975 25.0318 100.776 25.9049 100.776 27.1544V34.3013H96.3798V26.4626C96.3798 25.5218 96.2096 24.8391 95.8662 24.4168C95.5442 23.9757 95.0388 23.7537 94.355 23.7537C93.5931 23.7537 93.0124 24.0134 92.6131 24.5319C92.213 25.0318 92.0133 25.9049 92.0133 27.1544V34.3013H87.6475L87.646 20.4109ZM125.945 26.6357C125.945 27.2305 125.906 27.8747 125.828 28.5665H115.669C115.708 29.4696 116.011 30.16 116.583 30.6416C117.154 31.1211 117.926 31.3619 118.894 31.3619C120.246 31.3619 121.102 30.948 121.463 30.1223H125.745C125.534 31.487 124.793 32.5904 123.518 33.4365C122.262 34.2621 120.721 34.676 118.894 34.676C116.535 34.676 114.68 34.0318 113.328 32.7447C111.996 31.4569 111.33 29.6616 111.33 27.3562C111.33 25.8575 111.634 24.5606 112.243 23.4654C112.832 22.3716 113.739 21.4865 114.841 20.9296C115.964 20.3349 117.267 20.0362 118.753 20.0362C120.16 20.0362 121.406 20.3147 122.491 20.8724C123.594 21.4301 124.442 22.2075 125.03 23.2065C125.641 24.2067 125.945 25.3493 125.945 26.6357ZM121.633 25.8288C121.614 24.9068 121.357 24.2047 120.862 23.7251C120.368 23.2455 119.653 23.0047 118.722 23.0047C117.789 23.0047 117.048 23.2637 116.495 23.7829C115.963 24.2828 115.687 24.964 115.667 25.8288H121.633ZM127.87 20.4109H132.237V23.3216C132.465 22.3214 132.932 21.5536 133.636 21.0162C134.319 20.4731 135.164 20.1785 136.034 20.1806C136.49 20.1806 136.872 20.2198 137.175 20.2957V24.3882C136.74 24.3352 136.301 24.3065 135.862 24.3016C134.663 24.3016 133.761 24.6946 133.15 25.4826C132.541 26.2511 132.237 27.4036 132.237 28.9413V34.3013H127.87V20.4109Z" fill="url(#paint1_linear_2541_4486)"/>
<defs>
<linearGradient id="paint0_linear_2541_4486" x1="0" y1="2.09375" x2="36.0458" y2="7.38545" gradientUnits="userSpaceOnUse">
<stop stop-color="#5163FF"/>
<stop offset="0.5" stop-color="#C872F2"/>
<stop offset="1" stop-color="#FE72BA"/>
</linearGradient>
<linearGradient id="paint1_linear_2541_4486" x1="44.959" y1="14.1289" x2="101.262" y2="70.307" gradientUnits="userSpaceOnUse">
<stop stop-color="#5163FF"/>
<stop offset="0.5" stop-color="#C872F2"/>
<stop offset="1" stop-color="#FE72BA"/>
</linearGradient>
</defs>
</svg>
