<svg width="150" height="152" viewBox="0 0 150 152" fill="none" xmlns="http://www.w3.org/2000/svg">
<path opacity="0.1" d="M75.0001 0L77.0098 56.7262L90.6792 1.66078L80.9426 57.5686L105.674 6.57054L84.6152 59.2165L119.327 14.5147L87.8678 61.5978L131.043 25.146L90.5578 64.6087L140.31 38L92.5676 68.1174L146.723 52.5147L93.8104 71.9706L150 68.0558L94.2304 76L150 83.9443L93.8104 80.0295L146.723 99.4855L92.5676 83.8827L140.31 114L90.5578 87.3916L131.043 126.854L87.8678 90.402L119.327 137.486L84.6152 92.7838L105.674 145.43L80.9426 94.4315L90.6792 150.339L77.0098 95.2736L75.0001 152L72.9899 95.2736L59.3208 150.339L69.0576 94.4315L44.3267 145.43L65.3849 92.7838L30.6733 137.486L62.1325 90.402L18.9571 126.854L59.4424 87.3916L9.69036 114L57.4323 83.8827L3.27786 99.4855L56.1899 80.0295L0 83.9443L55.7697 76L0 68.0558L56.1899 71.9706L3.27786 52.5147L57.4323 68.1174L9.69036 38L59.4424 64.6087L18.9571 25.146L62.1325 61.5978L30.6733 14.5147L65.3849 59.2165L44.3267 6.57054L69.0576 57.5686L59.3208 1.66078L72.9899 56.7262L75.0001 0Z" fill="url(#paint0_linear_1401_4087)"/>
<defs>
<linearGradient id="paint0_linear_1401_4087" x1="0" y1="76" x2="150" y2="76" gradientUnits="userSpaceOnUse">
<stop stop-color="#91C2FE"/>
<stop offset="0.5" stop-color="#C872F2"/>
<stop offset="1" stop-color="#FE72BA"/>
</linearGradient>
</defs>
</svg>
