<svg width="23" height="119" viewBox="0 0 23 119" fill="none" xmlns="http://www.w3.org/2000/svg">
<path d="M20 105.667C21.4728 105.667 22.6667 104.473 22.6667 103C22.6667 101.527 21.4728 100.333 20 100.333C18.5272 100.333 17.3333 101.527 17.3333 103C17.3333 104.473 18.5272 105.667 20 105.667ZM20 5.66666C21.4728 5.66666 22.6667 4.47276 22.6667 3C22.6667 1.52724 21.4728 0.333336 20 0.333336C18.5272 0.333336 17.3333 1.52724 17.3333 3C17.3333 4.47276 18.5272 5.66666 20 5.66666ZM20 103L20.5 103L20.5 3L20 3L19.5 3L19.5 103L20 103Z" fill="#DBDDFF"/>
<path d="M3 118.667C4.47276 118.667 5.66667 117.473 5.66667 116C5.66667 114.527 4.47276 113.333 3 113.333C1.52724 113.333 0.333333 114.527 0.333333 116C0.333333 117.473 1.52724 118.667 3 118.667ZM3 59.6667C4.47276 59.6667 5.66666 58.4728 5.66666 57C5.66666 55.5272 4.47276 54.3333 3 54.3333C1.52724 54.3333 0.333331 55.5272 0.333331 57C0.333331 58.4728 1.52724 59.6667 3 59.6667ZM3 116L3.5 116L3.5 57L3 57L2.5 57L2.5 116L3 116Z" fill="#DBDDFF"/>
</svg>
