<svg width="250" height="41" viewBox="0 0 250 41" fill="none" xmlns="http://www.w3.org/2000/svg">
<path d="M124.833 20.5C124.833 21.9728 126.027 23.1667 127.5 23.1667C128.973 23.1667 130.167 21.9728 130.167 20.5C130.167 19.0272 128.973 17.8333 127.5 17.8333C126.027 17.8333 124.833 19.0272 124.833 20.5ZM224.833 20.5C224.833 21.9728 226.027 23.1667 227.5 23.1667C228.973 23.1667 230.167 21.9728 230.167 20.5C230.167 19.0272 228.973 17.8333 227.5 17.8333C226.027 17.8333 224.833 19.0272 224.833 20.5ZM127.5 20.5V21H227.5V20.5V20H127.5V20.5Z" fill="#DBDDFF"/>
<path d="M111.833 3.5C111.833 4.97276 113.027 6.16667 114.5 6.16667C115.973 6.16667 117.167 4.97276 117.167 3.5C117.167 2.02724 115.973 0.833333 114.5 0.833333C113.027 0.833333 111.833 2.02724 111.833 3.5ZM170.833 3.5C170.833 4.97276 172.027 6.16667 173.5 6.16667C174.973 6.16667 176.167 4.97276 176.167 3.5C176.167 2.02724 174.973 0.833333 173.5 0.833333C172.027 0.833333 170.833 2.02724 170.833 3.5ZM114.5 3.5V4H173.5V3.5V3H114.5V3.5Z" fill="#DBDDFF"/>
<path d="M0.833333 37.5C0.833333 38.9728 2.02724 40.1667 3.5 40.1667C4.97276 40.1667 6.16667 38.9728 6.16667 37.5C6.16667 36.0272 4.97276 34.8333 3.5 34.8333C2.02724 34.8333 0.833333 36.0272 0.833333 37.5ZM243.833 37.5C243.833 38.9728 245.027 40.1667 246.5 40.1667C247.973 40.1667 249.167 38.9728 249.167 37.5C249.167 36.0273 247.973 34.8334 246.5 34.8334C245.027 34.8334 243.833 36.0273 243.833 37.5ZM3.5 37.5L3.5 38L246.5 38L246.5 37.5L246.5 37L3.5 37L3.5 37.5Z" fill="#DBDDFF"/>
</svg>
