<svg width="1920" height="160" viewBox="0 0 1920 160" fill="none" xmlns="http://www.w3.org/2000/svg">
<path opacity="0.05" d="M0 969.328H1920M0 931.688H1920M0 894.035H1920M0 856.395H1920M0 818.738H1920M0 781.098H1920M0 743.445H1920M0 705.801H1920M0 668.152H1920M0 630.508H1920M0 592.863H1920M0 555.215H1920M0 517.57H1920M0 479.918H1920M0 442.273H1920M0 404.625H1920M0 366.984H1920M0 329.328H1920M0 291.688H1920M0 254.031H1920M0 216.391H1920M0 178.742H1920M0 141.098H1920M0 103.445H1920M0 65.8008H1920M0 28.1484H1920M1844.71 1157.57V-160.082M1881.08 1157.57V-160.082M1807.06 1157.57V-160.082M1769.41 1157.57V-160.082M1731.77 1157.57V-160.082M1694.12 1157.57V-160.082M1656.47 1157.57V-160.082M1618.82 1157.57V-160.082M1581.18 1157.57V-160.082M1543.53 1157.57V-160.082M1505.88 1157.57V-160.082M1468.23 1157.57V-160.082M1430.59 1157.57V-160.082M1392.94 1157.57V-160.082M1355.29 1157.57V-160.082M1317.65 1157.57V-160.082M1280 1157.57V-160.082M1242.36 1157.57V-160.082M1204.71 1157.57V-160.082M1167.06 1157.57V-160.082M1129.41 1157.57V-160.082M1091.77 1157.57V-160.082M1054.12 1157.57V-160.082M1016.47 1157.57V-160.082M978.82 1157.57V-160.082M941.178 1157.57V-160.082M903.527 1157.57V-160.082M865.883 1157.57V-160.082M828.232 1157.57V-160.082M790.59 1157.57V-160.082M752.936 1157.57V-160.082M715.295 1157.57V-160.082M677.643 1157.57V-160.082M640 1157.57V-160.082M602.348 1157.57V-160.082M564.703 1157.57V-160.082M527.061 -160.082V1157.57M489.41 -160.082V1157.57M451.768 -160.082V1157.57M414.115 -160.082V1157.57M376.473 -160.082V1157.57M338.82 -160.082V1157.57M301.18 -160.082V1157.57M263.523 -160.082V1157.57M225.883 -160.082V1157.57M188.23 -160.082V1157.57M150.588 -160.082V1157.57M112.938 -160.082V1157.57M75.293 -160.082V1157.57M37.9023 -160.082V1157.57M0 -160.082H1920V1157.57H0V-160.082Z" stroke="#00234B" stroke-width="0.5" stroke-miterlimit="10"/>
</svg>
