<svg width="119" height="685" viewBox="0 0 119 685" fill="none" xmlns="http://www.w3.org/2000/svg">
<g opacity="0.06" clip-path="url(#clip0_6424_2556)">
<path d="M18.0745 13.1699L18.0745 123.583L118.962 227.618C117.765 361.148 116.968 495.08 115.773 628.61L83.0733 661.296L83.4717 684.414L79.4835 684.414L79.0852 659.701L111.785 627.015L114.974 229.213L14.084 125.178L14.084 13.1699L18.0721 13.1699L18.0745 13.1699Z" fill="#5163FF"/>
<path d="M32.0309 31.9052L31.6326 120.395L116.971 206.092L115.375 207.687L28.8418 121.589L29.6385 31.9052L32.0309 31.9052Z" fill="#5163FF"/>
<path d="M-5.05291 159.457L-4.2562 504.248L30.037 540.52L30.037 631.401L46.3857 646.946L69.115 646.946L96.2309 617.052L97.4283 239.18L10.0984 151.887L-5.05526 159.46L-5.05291 159.457ZM-10.6368 505.443L-11.0352 155.869L11.2958 144.31C42.0015 175.003 73.1055 205.695 103.811 236.388C103.413 364.34 103.015 491.89 102.614 619.444C92.245 630.605 81.8786 641.765 71.9081 652.926L43.9933 653.324L24.0547 634.191L24.0547 542.911L-10.6368 506.64L-10.6368 505.443Z" fill="#5163FF"/>
<path d="M5.71484 174.604L88.2598 253.926L89.0565 242.765L6.11319 165.436L5.71484 174.604Z" fill="#5163FF"/>
<path d="M5.71484 196.526L88.2598 275.848L89.0565 264.687L6.11319 187.358L5.71484 196.526Z" fill="#5163FF"/>
<path d="M5.71484 218.846L88.2598 298.168L89.0565 286.609L6.11319 209.678L5.71484 218.846Z" fill="#5163FF"/>
<path d="M16.4087 0.463287C11.3814 -0.1555 6.80417 3.41653 6.18512 8.44165C5.56607 13.4668 9.13965 18.0421 14.1669 18.6608C19.1942 19.2796 23.7714 15.7076 24.3904 10.6825C25.0095 5.65736 21.4359 1.08207 16.4087 0.463287Z" fill="#5163FF"/>
<path d="M30.4646 31.1366C27.6117 30.9007 25.1077 33.0211 24.8717 35.8728C24.6356 38.7244 26.7569 41.2274 29.6098 41.4634C32.4627 41.6993 34.9667 39.5789 35.2028 36.7273C35.4389 33.8756 33.3175 31.3726 30.4646 31.1366Z" fill="#5163FF"/>
</g>
<defs>
<clipPath id="clip0_6424_2556">
<rect width="684" height="130" fill="white" transform="translate(-11.0352 684.414) rotate(-90)"/>
</clipPath>
</defs>
</svg>
