<svg width="250" height="250" viewBox="0 0 250 250" fill="none" xmlns="http://www.w3.org/2000/svg">
<g clip-path="url(#clip0_6164_4988)">
<path d="M5.4 0V5.4H0V7H5.4V12.4H7V7H12.4V5.4H7V0H5.4Z" fill="#DBDCE1"/>
<path d="M31.8004 0V5.4H26.4004V7H31.8004V12.4H33.4004V7H38.8004V5.4H33.4004V0H31.8004Z" fill="#DBDCE1"/>
<path d="M58.2008 0V5.4H52.8008V7H58.2008V12.4H59.8008V7H65.2008V5.4H59.8008V0H58.2008Z" fill="#DBDCE1"/>
<path d="M84.5992 0V5.4H79.1992V7H84.5992V12.4H86.1992V7H91.5992V5.4H86.1992V0H84.5992Z" fill="#DBDCE1"/>
<path d="M111 0V5.4H105.6V7H111V12.4H112.6V7H118V5.4H112.6V0H111Z" fill="#DBDCE1"/>
<path d="M137.4 0V5.4H132V7H137.4V12.4H139V7H144.4V5.4H139V0H137.4Z" fill="#DBDCE1"/>
<path d="M163.8 0V5.4H158.4V7H163.8V12.4H165.4V7H170.8V5.4H165.4V0H163.8Z" fill="#DBDCE1"/>
<path d="M190.201 0V5.4H184.801V7H190.201V12.4H191.801V7H197.201V5.4H191.801V0H190.201Z" fill="#DBDCE1"/>
<path d="M216.599 0V5.4H211.199V7H216.599V12.4H218.199V7H223.599V5.4H218.199V0H216.599Z" fill="#DBDCE1"/>
<path d="M243 0V5.4H237.6V7H243V12.4H244.6V7H250V5.4H244.6V0H243Z" fill="#DBDCE1"/>
<path d="M12.4 31.7984H7V26.3984H5.4V31.7984H0V33.3984H5.4V38.7984H7V33.3984H12.4V31.7984Z" fill="#DBDCE1"/>
<path d="M38.8004 31.7984H33.4004V26.3984H31.8004V31.7984H26.4004V33.3984H31.8004V38.7984H33.4004V33.3984H38.8004V31.7984Z" fill="#DBDCE1"/>
<path d="M65.2008 31.7984H59.8008V26.3984H58.2008V31.7984H52.8008V33.3984H58.2008V38.7984H59.8008V33.3984H65.2008V31.7984Z" fill="#DBDCE1"/>
<path d="M91.5992 31.7984H86.1992V26.3984H84.5992V31.7984H79.1992V33.3984H84.5992V38.7984H86.1992V33.3984H91.5992V31.7984Z" fill="#DBDCE1"/>
<path d="M118 31.7984H112.6V26.3984H111V31.7984H105.6V33.3984H111V38.7984H112.6V33.3984H118V31.7984Z" fill="#DBDCE1"/>
<path d="M144.4 31.7984H139V26.3984H137.4V31.7984H132V33.3984H137.4V38.7984H139V33.3984H144.4V31.7984Z" fill="#DBDCE1"/>
<path d="M170.8 31.7984H165.4V26.3984H163.8V31.7984H158.4V33.3984H163.8V38.7984H165.4V33.3984H170.8V31.7984Z" fill="#DBDCE1"/>
<path d="M197.201 31.7984H191.801V26.3984H190.201V31.7984H184.801V33.3984H190.201V38.7984H191.801V33.3984H197.201V31.7984Z" fill="#DBDCE1"/>
<path d="M223.599 31.7984H218.199V26.3984H216.599V31.7984H211.199V33.3984H216.599V38.7984H218.199V33.3984H223.599V31.7984Z" fill="#DBDCE1"/>
<path d="M250 31.7984H244.6V26.3984H243V31.7984H237.6V33.3984H243V38.7984H244.6V33.3984H250V31.7984Z" fill="#DBDCE1"/>
<path d="M0 59.8008H5.4V65.2008H7V59.8008H12.4V58.2008H7V52.8008H5.4V58.2008H0V59.8008Z" fill="#DBDCE1"/>
<path d="M26.4004 59.8008H31.8004V65.2008H33.4004V59.8008H38.8004V58.2008H33.4004V52.8008H31.8004V58.2008H26.4004V59.8008Z" fill="#DBDCE1"/>
<path d="M59.8008 65.2008V59.8008H65.2008V58.2008H59.8008V52.8008H58.2008V58.2008H52.8008V59.8008H58.2008V65.2008H59.8008Z" fill="#DBDCE1"/>
<path d="M86.1992 65.2008V59.8008H91.5992V58.2008H86.1992V52.8008H84.5992V58.2008H79.1992V59.8008H84.5992V65.2008H86.1992Z" fill="#DBDCE1"/>
<path d="M118 58.2008H112.6V52.8008H111V58.2008H105.6V59.8008H111V65.2008H112.6V59.8008H118V58.2008Z" fill="#DBDCE1"/>
<path d="M132 59.8008H137.4V65.2008H139V59.8008H144.4V58.2008H139V52.8008H137.4V58.2008H132V59.8008Z" fill="#DBDCE1"/>
<path d="M158.4 59.8008H163.8V65.2008H165.4V59.8008H170.8V58.2008H165.4V52.8008H163.8V58.2008H158.4V59.8008Z" fill="#DBDCE1"/>
<path d="M184.801 59.8008H190.201V65.2008H191.801V59.8008H197.201V58.2008H191.801V52.8008H190.201V58.2008H184.801V59.8008Z" fill="#DBDCE1"/>
<path d="M211.199 59.8008H216.599V65.2008H218.199V59.8008H223.599V58.2008H218.199V52.8008H216.599V58.2008H211.199V59.8008Z" fill="#DBDCE1"/>
<path d="M237.6 59.8008H243V65.2008H244.6V59.8008H250V58.2008H244.6V52.8008H243V58.2008H237.6V59.8008Z" fill="#DBDCE1"/>
<path d="M12.4 84.5992H7V79.1992H5.4V84.5992H0V86.1992H5.4V91.5992H7V86.1992H12.4V84.5992Z" fill="#DBDCE1"/>
<path d="M38.8004 84.5992H33.4004V79.1992H31.8004V84.5992H26.4004V86.1992H31.8004V91.5992H33.4004V86.1992H38.8004V84.5992Z" fill="#DBDCE1"/>
<path d="M65.2008 84.5992H59.8008V79.1992H58.2008V84.5992H52.8008V86.1992H58.2008V91.5992H59.8008V86.1992H65.2008V84.5992Z" fill="#DBDCE1"/>
<path d="M91.5992 84.5992H86.1992V79.1992H84.5992V84.5992H79.1992V86.1992H84.5992V91.5992H86.1992V86.1992H91.5992V84.5992Z" fill="#DBDCE1"/>
<path d="M118 84.5992H112.6V79.1992H111V84.5992H105.6V86.1992H111V91.5992H112.6V86.1992H118V84.5992Z" fill="#DBDCE1"/>
<path d="M144.4 84.5992H139V79.1992H137.4V84.5992H132V86.1992H137.4V91.5992H139V86.1992H144.4V84.5992Z" fill="#DBDCE1"/>
<path d="M170.8 84.5992H165.4V79.1992H163.8V84.5992H158.4V86.1992H163.8V91.5992H165.4V86.1992H170.8V84.5992Z" fill="#DBDCE1"/>
<path d="M197.201 84.5992H191.801V79.1992H190.201V84.5992H184.801V86.1992H190.201V91.5992H191.801V86.1992H197.201V84.5992Z" fill="#DBDCE1"/>
<path d="M223.599 84.5992H218.199V79.1992H216.599V84.5992H211.199V86.1992H216.599V91.5992H218.199V86.1992H223.599V84.5992Z" fill="#DBDCE1"/>
<path d="M250 84.5992H244.6V79.1992H243V84.5992H237.6V86.1992H243V91.5992H244.6V86.1992H250V84.5992Z" fill="#DBDCE1"/>
<path d="M12.4 111.002H7V105.602H5.4V111.002H0V112.602H5.4V118.002H7V112.602H12.4V111.002Z" fill="#DBDCE1"/>
<path d="M38.8004 111.002H33.4004V105.602H31.8004V111.002H26.4004V112.602H31.8004V118.002H33.4004V112.602H38.8004V111.002Z" fill="#DBDCE1"/>
<path d="M65.2008 111.002H59.8008V105.602H58.2008V111.002H52.8008V112.602H58.2008V118.002H59.8008V112.602H65.2008V111.002Z" fill="#DBDCE1"/>
<path d="M91.5992 111.002H86.1992V105.602H84.5992V111.002H79.1992V112.602H84.5992V118.002H86.1992V112.602H91.5992V111.002Z" fill="#DBDCE1"/>
<path d="M111 105.602V111.002H105.6V112.602H111V118.002H112.6V112.602H118V111.002H112.6V105.602H111Z" fill="#DBDCE1"/>
<path d="M144.4 111.002H139V105.602H137.4V111.002H132V112.602H137.4V118.002H139V112.602H144.4V111.002Z" fill="#DBDCE1"/>
<path d="M170.8 111.002H165.4V105.602H163.8V111.002H158.4V112.602H163.8V118.002H165.4V112.602H170.8V111.002Z" fill="#DBDCE1"/>
<path d="M197.201 111.002H191.801V105.602H190.201V111.002H184.801V112.602H190.201V118.002H191.801V112.602H197.201V111.002Z" fill="#DBDCE1"/>
<path d="M223.599 111.002H218.199V105.602H216.599V111.002H211.199V112.602H216.599V118.002H218.199V112.602H223.599V111.002Z" fill="#DBDCE1"/>
<path d="M250 111.002H244.6V105.602H243V111.002H237.6V112.602H243V118.002H244.6V112.602H250V111.002Z" fill="#DBDCE1"/>
<path d="M12.4 137.4H7V132H5.4V137.4H0V139H5.4V144.4H7V139H12.4V137.4Z" fill="#DBDCE1"/>
<path d="M38.8004 137.4H33.4004V132H31.8004V137.4H26.4004V139H31.8004V144.4H33.4004V139H38.8004V137.4Z" fill="#DBDCE1"/>
<path d="M65.2008 137.4H59.8008V132H58.2008V137.4H52.8008V139H58.2008V144.4H59.8008V139H65.2008V137.4Z" fill="#DBDCE1"/>
<path d="M91.5992 137.4H86.1992V132H84.5992V137.4H79.1992V139H84.5992V144.4H86.1992V139H91.5992V137.4Z" fill="#DBDCE1"/>
<path d="M118 137.4H112.6V132H111V137.4H105.6V139H111V144.4H112.6V139H118V137.4Z" fill="#DBDCE1"/>
<path d="M144.4 137.4H139V132H137.4V137.4H132V139H137.4V144.4H139V139H144.4V137.4Z" fill="#DBDCE1"/>
<path d="M170.8 137.4H165.4V132H163.8V137.4H158.4V139H163.8V144.4H165.4V139H170.8V137.4Z" fill="#DBDCE1"/>
<path d="M197.201 137.4H191.801V132H190.201V137.4H184.801V139H190.201V144.4H191.801V139H197.201V137.4Z" fill="#DBDCE1"/>
<path d="M223.599 137.4H218.199V132H216.599V137.4H211.199V139H216.599V144.4H218.199V139H223.599V137.4Z" fill="#DBDCE1"/>
<path d="M250 137.4H244.6V132H243V137.4H237.6V139H243V144.4H244.6V139H250V137.4Z" fill="#DBDCE1"/>
<path d="M12.4 163.798H7V158.398H5.4V163.798H0V165.398H5.4V170.798H7V165.398H12.4V163.798Z" fill="#DBDCE1"/>
<path d="M38.8004 163.798H33.4004V158.398H31.8004V163.798H26.4004V165.398H31.8004V170.798H33.4004V165.398H38.8004V163.798Z" fill="#DBDCE1"/>
<path d="M65.2008 163.798H59.8008V158.398H58.2008V163.798H52.8008V165.398H58.2008V170.798H59.8008V165.398H65.2008V163.798Z" fill="#DBDCE1"/>
<path d="M91.5992 163.798H86.1992V158.398H84.5992V163.798H79.1992V165.398H84.5992V170.798H86.1992V165.398H91.5992V163.798Z" fill="#DBDCE1"/>
<path d="M118 163.798H112.6V158.398H111V163.798H105.6V165.398H111V170.798H112.6V165.398H118V163.798Z" fill="#DBDCE1"/>
<path d="M144.4 163.798H139V158.398H137.4V163.798H132V165.398H137.4V170.798H139V165.398H144.4V163.798Z" fill="#DBDCE1"/>
<path d="M170.8 163.798H165.4V158.398H163.8V163.798H158.4V165.398H163.8V170.798H165.4V165.398H170.8V163.798Z" fill="#DBDCE1"/>
<path d="M197.201 163.798H191.801V158.398H190.201V163.798H184.801V165.398H190.201V170.798H191.801V165.398H197.201V163.798Z" fill="#DBDCE1"/>
<path d="M223.599 163.798H218.199V158.398H216.599V163.798H211.199V165.398H216.599V170.798H218.199V165.398H223.599V163.798Z" fill="#DBDCE1"/>
<path d="M250 163.798H244.6V158.398H243V163.798H237.6V165.398H243V170.798H244.6V165.398H250V163.798Z" fill="#DBDCE1"/>
<path d="M7 197.201V191.801H12.4V190.201H7V184.801H5.4V190.201H0V191.801H5.4V197.201H7Z" fill="#DBDCE1"/>
<path d="M33.4004 197.201V191.801H38.8004V190.201H33.4004V184.801H31.8004V190.201H26.4004V191.801H31.8004V197.201H33.4004Z" fill="#DBDCE1"/>
<path d="M59.8008 197.201V191.801H65.2008V190.201H59.8008V184.801H58.2008V190.201H52.8008V191.801H58.2008V197.201H59.8008Z" fill="#DBDCE1"/>
<path d="M86.1992 197.201V191.801H91.5992V190.201H86.1992V184.801H84.5992V190.201H79.1992V191.801H84.5992V197.201H86.1992Z" fill="#DBDCE1"/>
<path d="M112.6 197.201V191.801H118V190.201H112.6V184.801H111V190.201H105.6V191.801H111V197.201H112.6Z" fill="#DBDCE1"/>
<path d="M139 197.201V191.801H144.4V190.201H139V184.801H137.4V190.201H132V191.801H137.4V197.201H139Z" fill="#DBDCE1"/>
<path d="M165.4 197.201V191.801H170.8V190.201H165.4V184.801H163.8V190.201H158.4V191.801H163.8V197.201H165.4Z" fill="#DBDCE1"/>
<path d="M191.801 197.201V191.801H197.201V190.201H191.801V184.801H190.201V190.201H184.801V191.801H190.201V197.201H191.801Z" fill="#DBDCE1"/>
<path d="M218.199 197.201V191.801H223.599V190.201H218.199V184.801H216.599V190.201H211.199V191.801H216.599V197.201H218.199Z" fill="#DBDCE1"/>
<path d="M244.6 197.201V191.801H250V190.201H244.6V184.801H243V190.201H237.6V191.801H243V197.201H244.6Z" fill="#DBDCE1"/>
<path d="M7 223.599V218.199H12.4V216.599H7V211.199H5.4V216.599H0V218.199H5.4V223.599H7Z" fill="#DBDCE1"/>
<path d="M33.4004 223.599V218.199H38.8004V216.599H33.4004V211.199H31.8004V216.599H26.4004V218.199H31.8004V223.599H33.4004Z" fill="#DBDCE1"/>
<path d="M59.8008 223.599V218.199H65.2008V216.599H59.8008V211.199H58.2008V216.599H52.8008V218.199H58.2008V223.599H59.8008Z" fill="#DBDCE1"/>
<path d="M86.1992 223.599V218.199H91.5992V216.599H86.1992V211.199H84.5992V216.599H79.1992V218.199H84.5992V223.599H86.1992Z" fill="#DBDCE1"/>
<path d="M112.6 223.599V218.199H118V216.599H112.6V211.199H111V216.599H105.6V218.199H111V223.599H112.6Z" fill="#DBDCE1"/>
<path d="M139 223.599V218.199H144.4V216.599H139V211.199H137.4V216.599H132V218.199H137.4V223.599H139Z" fill="#DBDCE1"/>
<path d="M165.4 223.599V218.199H170.8V216.599H165.4V211.199H163.8V216.599H158.4V218.199H163.8V223.599H165.4Z" fill="#DBDCE1"/>
<path d="M191.801 223.599V218.199H197.201V216.599H191.801V211.199H190.201V216.599H184.801V218.199H190.201V223.599H191.801Z" fill="#DBDCE1"/>
<path d="M218.199 223.599V218.199H223.599V216.599H218.199V211.199H216.599V216.599H211.199V218.199H216.599V223.599H218.199Z" fill="#DBDCE1"/>
<path d="M244.6 223.599V218.199H250V216.599H244.6V211.199H243V216.599H237.6V218.199H243V223.599H244.6Z" fill="#DBDCE1"/>
<path d="M7 249.002V243.602H12.4V242.002H7V236.602H5.4V242.002H0V243.602H5.4V249.002H7Z" fill="#DBDCE1"/>
<path d="M33.4004 249.002V243.602H38.8004V242.002H33.4004V236.602H31.8004V242.002H26.4004V243.602H31.8004V249.002H33.4004Z" fill="#DBDCE1"/>
<path d="M59.8008 249.002V243.602H65.2008V242.002H59.8008V236.602H58.2008V242.002H52.8008V243.602H58.2008V249.002H59.8008Z" fill="#DBDCE1"/>
<path d="M86.1992 249.002V243.602H91.5992V242.002H86.1992V236.602H84.5992V242.002H79.1992V243.602H84.5992V249.002H86.1992Z" fill="#DBDCE1"/>
<path d="M112.6 249.002V243.602H118V242.002H112.6V236.602H111V242.002H105.6V243.602H111V249.002H112.6Z" fill="#DBDCE1"/>
<path d="M139 249.002V243.602H144.4V242.002H139V236.602H137.4V242.002H132V243.602H137.4V249.002H139Z" fill="#DBDCE1"/>
<path d="M165.4 249.002V243.602H170.8V242.002H165.4V236.602H163.8V242.002H158.4V243.602H163.8V249.002H165.4Z" fill="#DBDCE1"/>
<path d="M191.801 249.002V243.602H197.201V242.002H191.801V236.602H190.201V242.002H184.801V243.602H190.201V249.002H191.801Z" fill="#DBDCE1"/>
<path d="M218.199 249.002V243.602H223.599V242.002H218.199V236.602H216.599V242.002H211.199V243.602H216.599V249.002H218.199Z" fill="#DBDCE1"/>
<path d="M244.6 249.002V243.602H250V242.002H244.6V236.602H243V242.002H237.6V243.602H243V249.002H244.6Z" fill="#DBDCE1"/>
</g>
<defs>
<clipPath id="clip0_6164_4988">
<rect width="250" height="250" fill="white"/>
</clipPath>
</defs>
</svg>
