<svg width="141" height="48" viewBox="0 0 141 48" fill="none" xmlns="http://www.w3.org/2000/svg">
<g opacity="0.6">
<path d="M47.6904 29.3403C48.8987 30.0163 49.6249 30.8265 49.1667 32.1566C48.9047 32.9174 48.2297 33.1366 47.4692 33.0664C46.6744 32.9936 46.165 32.5499 46.0958 31.7572C46.0517 31.2543 46.0174 30.6112 46.2794 30.2563C46.6035 29.818 47.2404 29.6137 47.6904 29.3403Z" fill="url(#paint0_linear_5568_668)"/>
<path d="M16.9398 29.3085C18.6385 30.7443 18.9741 31.7326 18.1569 32.6063C17.5729 33.2308 16.3869 33.245 15.7833 32.6348C14.9454 31.7879 15.2646 30.7898 16.9398 29.3085Z" fill="url(#paint1_linear_5568_668)"/>
<path d="M123.985 44.2256C125.68 45.6464 126.021 46.6447 125.207 47.5196C124.622 48.1481 123.44 48.1623 122.834 47.5479C121.993 46.6944 122.313 45.6903 123.985 44.2256Z" fill="url(#paint2_linear_5568_668)"/>
<path d="M76.4034 1.55846C76.441 0.702265 77.231 0.000539927 78.1577 2.13555e-06C79.1378 -0.000566169 80.0372 0.921931 79.9249 1.81263C79.8122 2.70664 79.05 3.28182 78.0367 3.23689C77.1427 3.1969 76.3664 2.39988 76.4034 1.55846Z" fill="url(#paint3_linear_5568_668)"/>
<path d="M94.9083 46.3103C94.8511 47.289 94.3112 47.9593 93.568 47.973C92.7476 47.9879 91.6564 46.8849 91.6907 46.0747C91.7256 45.2391 92.8697 44.2096 93.6711 44.2919C94.4932 44.3762 94.9748 45.1618 94.9083 46.3103Z" fill="url(#paint4_linear_5568_668)"/>
<path d="M80.0301 46.3711C79.457 47.2992 78.9541 48.1535 77.7899 47.9144C77.0724 47.7668 76.3751 46.5644 76.5914 45.865C76.8218 45.119 77.1432 44.3019 78.0895 44.2989C79.4673 44.2944 79.5033 45.5651 80.0301 46.3711Z" fill="url(#paint5_linear_5568_668)"/>
<path d="M61.4098 46.1072C61.4185 44.9833 62.0216 44.2199 62.854 44.2796C63.5764 44.3317 64.5581 45.2904 64.6278 46.012C64.7047 46.8107 63.6592 47.9437 62.8181 47.9734C61.9981 48.0026 61.4016 47.2122 61.4098 46.1072Z" fill="url(#paint6_linear_5568_668)"/>
<path d="M46.0489 46.0635C46.0724 44.9232 46.6858 44.1895 47.5357 44.2853C48.2788 44.369 49.2316 45.3383 49.2751 46.0552C49.3236 46.8594 48.2439 47.9748 47.4153 47.9767C46.6003 47.9786 46.0261 47.1746 46.0489 46.0635Z" fill="url(#paint7_linear_5568_668)"/>
<path d="M32.2309 44.2395C33.9851 45.5967 34.3501 46.5401 33.5694 47.4682C33.023 48.119 31.8397 48.184 31.1963 47.5987C30.3121 46.7939 30.6036 45.7505 32.2309 44.2395Z" fill="url(#paint8_linear_5568_668)"/>
<path d="M123.918 29.324C125.677 30.6945 126.04 31.6269 125.262 32.5516C124.719 33.1985 123.53 33.2675 122.888 32.6896C122.002 31.8926 122.289 30.8556 123.918 29.324Z" fill="url(#paint9_linear_5568_668)"/>
<path d="M1.9881 47.958C1.18617 48.046 0.0442506 47.0253 0.00285355 46.183C-0.0314787 45.5011 0.857682 44.461 1.61223 44.2994C2.44955 44.1204 3.14738 44.8301 3.2204 45.9361C3.29665 47.0798 2.81673 47.867 1.9881 47.958Z" fill="url(#paint10_linear_5568_668)"/>
<path d="M139.292 29.3234C141.029 30.7077 141.389 31.6565 140.609 32.5648C140.059 33.2056 138.873 33.261 138.236 32.6754C137.354 31.8636 137.647 30.8375 139.292 29.3234Z" fill="url(#paint11_linear_5568_668)"/>
<path d="M108.468 29.3947C109.694 29.6412 110.435 30.1939 110.272 31.5486C110.16 32.4733 109.717 32.9728 108.775 33.0742C107.867 33.1717 107.544 32.5691 107.245 31.9096C106.628 30.5434 107.678 30.035 108.468 29.3947Z" fill="url(#paint12_linear_5568_668)"/>
<path d="M32.3911 29.319C34.0331 30.8386 34.3267 31.8608 33.4501 32.6737C32.8154 33.262 31.6305 33.2084 31.0776 32.5663C30.2903 31.6521 30.6456 30.7088 32.3911 29.319Z" fill="url(#paint13_linear_5568_668)"/>
<path d="M139.437 44.2053C140.273 44.9315 141.426 45.3958 140.778 46.733C140.441 47.4289 139.843 48.1573 138.959 47.9037C138.491 47.7694 138.1 47.1716 137.805 46.7003C137.647 46.4481 137.727 46.0153 137.772 45.6738C137.804 45.4301 137.893 45.1155 138.069 44.9853C138.474 44.6841 138.947 44.4757 139.437 44.2053Z" fill="url(#paint14_linear_5568_668)"/>
<path d="M108.454 44.3229C109.601 44.5302 110.407 44.9892 110.277 46.3622C110.204 47.1354 109.934 47.7151 109.163 47.9315C108.498 48.1182 107.405 47.4203 107.148 46.596C106.775 45.3974 107.687 44.8932 108.454 44.3229Z" fill="url(#paint15_linear_5568_668)"/>
<path d="M16.7262 44.2686C18.2151 44.6375 18.7904 45.3455 18.5692 46.6147C18.4336 47.3914 17.9765 48.0866 17.2405 47.9128C16.578 47.756 15.7962 47.1847 15.501 46.5818C14.9393 45.4327 16.0719 44.9473 16.7262 44.2686Z" fill="url(#paint16_linear_5568_668)"/>
<path d="M63.2223 29.3803C64.021 30.0349 65.0593 30.591 64.4628 31.7161C64.1495 32.3061 63.3596 32.8528 62.6982 32.987C61.948 33.1393 61.5362 32.4167 61.4152 31.6449C61.212 30.3532 61.8462 29.6953 63.2223 29.3803Z" fill="url(#paint17_linear_5568_668)"/>
<path d="M93.0477 29.3541C94.5486 29.7266 95.1103 30.4437 94.8973 31.7052C94.7655 32.4848 94.3024 33.1717 93.5669 32.9953C92.9066 32.837 92.1309 32.2651 91.8356 31.6625C91.2712 30.5121 92.4152 30.034 93.0477 29.3541Z" fill="url(#paint18_linear_5568_668)"/>
<path d="M107.038 16.4716C107.07 15.4686 107.697 14.8868 108.712 14.9186C109.725 14.9498 110.295 15.565 110.262 16.5932C110.229 17.6104 109.625 18.1692 108.587 18.1429C107.563 18.1172 107.005 17.5157 107.038 16.4716Z" fill="url(#paint19_linear_5568_668)"/>
<path d="M139.4 18.1429C138.376 18.1582 137.771 17.5803 137.749 16.5669C137.727 15.5409 138.307 14.9377 139.329 14.9213C140.351 14.9054 140.962 15.4894 140.979 16.4979C140.997 17.5332 140.426 18.1276 139.4 18.1429Z" fill="url(#paint20_linear_5568_668)"/>
<path d="M4.72446e-05 31.2056C-0.00703277 30.4979 0.987779 29.5683 1.79733 29.5272C2.48105 29.4932 3.18495 30.2678 3.2209 31.0939C3.26994 32.2289 2.75398 33.0062 1.92262 33.0506C1.09346 33.095 0.00875994 32.0542 4.72446e-05 31.2056Z" fill="url(#paint21_linear_5568_668)"/>
<path d="M122.392 16.585C122.366 15.5546 122.94 14.9438 123.956 14.9208C124.98 14.8978 125.599 15.4774 125.621 16.4809C125.643 17.5179 125.08 18.1172 124.057 18.143C123.033 18.1692 122.418 17.5929 122.392 16.585Z" fill="url(#paint22_linear_5568_668)"/>
<path d="M137.748 1.57433C137.772 0.569114 138.388 -0.0126459 139.407 0.00875078C140.431 0.0300827 140.997 0.626091 140.977 1.66196C140.957 2.67593 140.349 3.25057 139.32 3.22978C138.301 3.20895 137.725 2.60254 137.748 1.57433Z" fill="url(#paint23_linear_5568_668)"/>
<path d="M80.004 31.5376C79.3884 32.4277 78.8724 33.3809 77.6712 32.9372C76.8524 32.6342 76.4199 31.7879 76.6138 31.0297C76.7582 30.4677 77.4391 29.7375 77.9762 29.646C79.3306 29.416 79.6172 30.6003 80.004 31.5376Z" fill="url(#paint24_linear_5568_668)"/>
<path d="M15.3473 1.72278C15.2944 0.692391 15.8518 0.0591359 16.8569 0.00874769C17.8746 -0.0422089 18.5229 0.525315 18.5774 1.51351C18.6324 2.52421 18.0576 3.17662 17.065 3.23032C16.0495 3.28508 15.3985 2.71375 15.3473 1.72278Z" fill="url(#paint25_linear_5568_668)"/>
<path d="M30.7022 1.56839C30.7262 0.565916 31.3456 -0.0147419 32.3671 0.00826077C33.3896 0.031294 33.9568 0.632185 33.9339 1.66806C33.9116 2.67274 33.2922 3.2545 32.2691 3.23093C31.2519 3.20739 30.6777 2.59824 30.7022 1.56839Z" fill="url(#paint26_linear_5568_668)"/>
<path d="M47.7117 3.2304C46.6886 3.24631 46.0752 2.66235 46.0583 1.65657C46.0414 0.623435 46.6128 0.0263589 47.6365 0.00826973C48.6629 -0.00981947 49.2692 0.567596 49.2878 1.58047C49.3063 2.61246 48.731 3.21452 47.7117 3.2304Z" fill="url(#paint27_linear_5568_668)"/>
<path d="M30.7021 16.4891C30.7223 15.4877 31.3434 14.9 32.3621 14.9202C33.3825 14.9405 33.9573 15.5464 33.9328 16.5762C33.9088 17.5869 33.2976 18.1654 32.2744 18.1446C31.2492 18.1243 30.6814 17.5261 30.7021 16.4891Z" fill="url(#paint28_linear_5568_668)"/>
<path d="M108.609 3.22931C107.588 3.21122 107.018 2.61247 107.038 1.57716C107.057 0.566468 107.667 -0.0114508 108.692 0.00827507C109.715 0.0274326 110.283 0.623971 110.265 1.66098C110.247 2.67331 109.642 3.24739 108.609 3.22931Z" fill="url(#paint29_linear_5568_668)"/>
<path d="M122.391 1.66529C122.368 0.62942 122.937 0.0290626 123.96 0.00823826C124.986 -0.0120253 125.599 0.564219 125.621 1.57C125.645 2.60039 125.072 3.20737 124.054 3.23037C123.033 3.25337 122.414 2.67054 122.391 1.66529Z" fill="url(#paint30_linear_5568_668)"/>
<path d="M2.94844 15.0753C3.27642 17.4993 2.97408 18.1413 1.60883 18.1402C0.814517 18.1396 0.0867031 17.3453 0.0131558 16.3976C-0.0701876 15.3212 0.727344 14.9383 2.94844 15.0753Z" fill="url(#paint31_linear_5568_668)"/>
<path d="M15.3478 16.6655C15.2797 15.6488 15.8431 14.9854 16.8297 14.9197C17.843 14.8529 18.5142 15.4204 18.5779 16.3976C18.6433 17.404 18.0723 18.075 17.0923 18.144C16.0795 18.2152 15.4138 17.651 15.3478 16.6655Z" fill="url(#paint32_linear_5568_668)"/>
<path d="M46.056 16.3993C46.1159 15.4242 46.7882 14.8551 47.8025 14.9197C48.7886 14.9832 49.3509 15.6434 49.2866 16.6638C49.2245 17.651 48.5626 18.2136 47.5455 18.1435C46.5681 18.0761 45.9939 17.404 46.056 16.3993Z" fill="url(#paint33_linear_5568_668)"/>
<path d="M61.6108 15.1531C63.809 14.9093 64.6458 15.2511 64.6354 16.2985C64.6256 17.3076 63.7436 18.2262 62.8649 18.1424C61.6282 18.0246 61.4103 17.5393 61.6108 15.1531Z" fill="url(#paint34_linear_5568_668)"/>
<path d="M79.9849 16.6529C78.2209 18.6398 78.0966 18.6403 76.3773 16.6923C76.6322 15.8959 76.7048 15.0106 77.8967 14.8978C79.1258 14.7822 79.6319 15.4352 79.9849 16.6529Z" fill="url(#paint35_linear_5568_668)"/>
<path d="M94.7132 15.1542C94.9219 17.5344 94.589 18.1698 93.2477 18.1402C92.4715 18.1232 91.6739 17.1794 91.7578 16.3763C91.87 15.2928 92.6937 14.9258 94.7132 15.1542Z" fill="url(#paint36_linear_5568_668)"/>
<path d="M61.4196 1.66582C61.3973 0.612965 61.9775 0.0131118 63.0213 0.0081986C63.9322 0.00435346 64.6393 0.603642 64.6355 1.37712C64.6317 2.22733 63.8423 3.1876 63.1182 3.22432C62.0652 3.27744 61.4409 2.705 61.4196 1.66582Z" fill="url(#paint37_linear_5568_668)"/>
<path d="M91.7572 1.6894C91.7169 0.845237 92.5308 -0.00767941 93.3502 0.00876964C94.2779 0.0273626 94.7966 0.499061 94.9017 1.41878C95.0167 2.42563 94.4653 3.12461 93.4896 3.23197C92.6757 3.32127 91.7975 2.53904 91.7572 1.6894Z" fill="url(#paint38_linear_5568_668)"/>
<path d="M1.67589 0.0104363C2.69138 0.0410951 3.25036 0.650272 3.21822 1.68996C3.18662 2.70938 2.57209 3.26924 1.53318 3.22541C0.864719 3.19749 0.10091 2.38948 0.0715067 1.67953C0.0360912 0.829928 0.847813 -0.0147751 1.67589 0.0104363Z" fill="url(#paint39_linear_5568_668)"/>
</g>
<defs>
<linearGradient id="paint0_linear_5568_668" x1="141.553" y1="48" x2="19.9536" y2="-30.7937" gradientUnits="userSpaceOnUse">
<stop stop-color="#5163FF"/>
<stop offset="1" stop-color="#FE71B9"/>
</linearGradient>
<linearGradient id="paint1_linear_5568_668" x1="141.553" y1="48" x2="19.9536" y2="-30.7937" gradientUnits="userSpaceOnUse">
<stop stop-color="#5163FF"/>
<stop offset="1" stop-color="#FE71B9"/>
</linearGradient>
<linearGradient id="paint2_linear_5568_668" x1="141.553" y1="48" x2="19.9536" y2="-30.7937" gradientUnits="userSpaceOnUse">
<stop stop-color="#5163FF"/>
<stop offset="1" stop-color="#FE71B9"/>
</linearGradient>
<linearGradient id="paint3_linear_5568_668" x1="141.553" y1="48" x2="19.9536" y2="-30.7937" gradientUnits="userSpaceOnUse">
<stop stop-color="#5163FF"/>
<stop offset="1" stop-color="#FE71B9"/>
</linearGradient>
<linearGradient id="paint4_linear_5568_668" x1="141.553" y1="48" x2="19.9536" y2="-30.7937" gradientUnits="userSpaceOnUse">
<stop stop-color="#5163FF"/>
<stop offset="1" stop-color="#FE71B9"/>
</linearGradient>
<linearGradient id="paint5_linear_5568_668" x1="141.553" y1="48" x2="19.9536" y2="-30.7937" gradientUnits="userSpaceOnUse">
<stop stop-color="#5163FF"/>
<stop offset="1" stop-color="#FE71B9"/>
</linearGradient>
<linearGradient id="paint6_linear_5568_668" x1="141.553" y1="48" x2="19.9536" y2="-30.7937" gradientUnits="userSpaceOnUse">
<stop stop-color="#5163FF"/>
<stop offset="1" stop-color="#FE71B9"/>
</linearGradient>
<linearGradient id="paint7_linear_5568_668" x1="141.553" y1="48" x2="19.9536" y2="-30.7937" gradientUnits="userSpaceOnUse">
<stop stop-color="#5163FF"/>
<stop offset="1" stop-color="#FE71B9"/>
</linearGradient>
<linearGradient id="paint8_linear_5568_668" x1="141.553" y1="48" x2="19.9536" y2="-30.7937" gradientUnits="userSpaceOnUse">
<stop stop-color="#5163FF"/>
<stop offset="1" stop-color="#FE71B9"/>
</linearGradient>
<linearGradient id="paint9_linear_5568_668" x1="141.553" y1="48" x2="19.9536" y2="-30.7937" gradientUnits="userSpaceOnUse">
<stop stop-color="#5163FF"/>
<stop offset="1" stop-color="#FE71B9"/>
</linearGradient>
<linearGradient id="paint10_linear_5568_668" x1="141.553" y1="48" x2="19.9536" y2="-30.7937" gradientUnits="userSpaceOnUse">
<stop stop-color="#5163FF"/>
<stop offset="1" stop-color="#FE71B9"/>
</linearGradient>
<linearGradient id="paint11_linear_5568_668" x1="141.553" y1="48" x2="19.9536" y2="-30.7937" gradientUnits="userSpaceOnUse">
<stop stop-color="#5163FF"/>
<stop offset="1" stop-color="#FE71B9"/>
</linearGradient>
<linearGradient id="paint12_linear_5568_668" x1="141.553" y1="48" x2="19.9536" y2="-30.7937" gradientUnits="userSpaceOnUse">
<stop stop-color="#5163FF"/>
<stop offset="1" stop-color="#FE71B9"/>
</linearGradient>
<linearGradient id="paint13_linear_5568_668" x1="141.553" y1="48" x2="19.9536" y2="-30.7937" gradientUnits="userSpaceOnUse">
<stop stop-color="#5163FF"/>
<stop offset="1" stop-color="#FE71B9"/>
</linearGradient>
<linearGradient id="paint14_linear_5568_668" x1="141.553" y1="48" x2="19.9536" y2="-30.7937" gradientUnits="userSpaceOnUse">
<stop stop-color="#5163FF"/>
<stop offset="1" stop-color="#FE71B9"/>
</linearGradient>
<linearGradient id="paint15_linear_5568_668" x1="141.553" y1="48" x2="19.9536" y2="-30.7937" gradientUnits="userSpaceOnUse">
<stop stop-color="#5163FF"/>
<stop offset="1" stop-color="#FE71B9"/>
</linearGradient>
<linearGradient id="paint16_linear_5568_668" x1="141.553" y1="48" x2="19.9536" y2="-30.7937" gradientUnits="userSpaceOnUse">
<stop stop-color="#5163FF"/>
<stop offset="1" stop-color="#FE71B9"/>
</linearGradient>
<linearGradient id="paint17_linear_5568_668" x1="141.553" y1="48" x2="19.9536" y2="-30.7937" gradientUnits="userSpaceOnUse">
<stop stop-color="#5163FF"/>
<stop offset="1" stop-color="#FE71B9"/>
</linearGradient>
<linearGradient id="paint18_linear_5568_668" x1="141.553" y1="48" x2="19.9536" y2="-30.7937" gradientUnits="userSpaceOnUse">
<stop stop-color="#5163FF"/>
<stop offset="1" stop-color="#FE71B9"/>
</linearGradient>
<linearGradient id="paint19_linear_5568_668" x1="141.553" y1="48" x2="19.9536" y2="-30.7937" gradientUnits="userSpaceOnUse">
<stop stop-color="#5163FF"/>
<stop offset="1" stop-color="#FE71B9"/>
</linearGradient>
<linearGradient id="paint20_linear_5568_668" x1="141.553" y1="48" x2="19.9536" y2="-30.7937" gradientUnits="userSpaceOnUse">
<stop stop-color="#5163FF"/>
<stop offset="1" stop-color="#FE71B9"/>
</linearGradient>
<linearGradient id="paint21_linear_5568_668" x1="141.553" y1="48" x2="19.9536" y2="-30.7937" gradientUnits="userSpaceOnUse">
<stop stop-color="#5163FF"/>
<stop offset="1" stop-color="#FE71B9"/>
</linearGradient>
<linearGradient id="paint22_linear_5568_668" x1="141.553" y1="48" x2="19.9536" y2="-30.7937" gradientUnits="userSpaceOnUse">
<stop stop-color="#5163FF"/>
<stop offset="1" stop-color="#FE71B9"/>
</linearGradient>
<linearGradient id="paint23_linear_5568_668" x1="141.553" y1="48" x2="19.9536" y2="-30.7937" gradientUnits="userSpaceOnUse">
<stop stop-color="#5163FF"/>
<stop offset="1" stop-color="#FE71B9"/>
</linearGradient>
<linearGradient id="paint24_linear_5568_668" x1="141.553" y1="48" x2="19.9536" y2="-30.7937" gradientUnits="userSpaceOnUse">
<stop stop-color="#5163FF"/>
<stop offset="1" stop-color="#FE71B9"/>
</linearGradient>
<linearGradient id="paint25_linear_5568_668" x1="141.553" y1="48" x2="19.9536" y2="-30.7937" gradientUnits="userSpaceOnUse">
<stop stop-color="#5163FF"/>
<stop offset="1" stop-color="#FE71B9"/>
</linearGradient>
<linearGradient id="paint26_linear_5568_668" x1="141.553" y1="48" x2="19.9536" y2="-30.7937" gradientUnits="userSpaceOnUse">
<stop stop-color="#5163FF"/>
<stop offset="1" stop-color="#FE71B9"/>
</linearGradient>
<linearGradient id="paint27_linear_5568_668" x1="141.553" y1="48" x2="19.9536" y2="-30.7937" gradientUnits="userSpaceOnUse">
<stop stop-color="#5163FF"/>
<stop offset="1" stop-color="#FE71B9"/>
</linearGradient>
<linearGradient id="paint28_linear_5568_668" x1="141.553" y1="48" x2="19.9536" y2="-30.7937" gradientUnits="userSpaceOnUse">
<stop stop-color="#5163FF"/>
<stop offset="1" stop-color="#FE71B9"/>
</linearGradient>
<linearGradient id="paint29_linear_5568_668" x1="141.553" y1="48" x2="19.9536" y2="-30.7937" gradientUnits="userSpaceOnUse">
<stop stop-color="#5163FF"/>
<stop offset="1" stop-color="#FE71B9"/>
</linearGradient>
<linearGradient id="paint30_linear_5568_668" x1="141.553" y1="48" x2="19.9536" y2="-30.7937" gradientUnits="userSpaceOnUse">
<stop stop-color="#5163FF"/>
<stop offset="1" stop-color="#FE71B9"/>
</linearGradient>
<linearGradient id="paint31_linear_5568_668" x1="141.553" y1="48" x2="19.9536" y2="-30.7937" gradientUnits="userSpaceOnUse">
<stop stop-color="#5163FF"/>
<stop offset="1" stop-color="#FE71B9"/>
</linearGradient>
<linearGradient id="paint32_linear_5568_668" x1="141.553" y1="48" x2="19.9536" y2="-30.7937" gradientUnits="userSpaceOnUse">
<stop stop-color="#5163FF"/>
<stop offset="1" stop-color="#FE71B9"/>
</linearGradient>
<linearGradient id="paint33_linear_5568_668" x1="141.553" y1="48" x2="19.9536" y2="-30.7937" gradientUnits="userSpaceOnUse">
<stop stop-color="#5163FF"/>
<stop offset="1" stop-color="#FE71B9"/>
</linearGradient>
<linearGradient id="paint34_linear_5568_668" x1="141.553" y1="48" x2="19.9536" y2="-30.7937" gradientUnits="userSpaceOnUse">
<stop stop-color="#5163FF"/>
<stop offset="1" stop-color="#FE71B9"/>
</linearGradient>
<linearGradient id="paint35_linear_5568_668" x1="141.553" y1="48" x2="19.9536" y2="-30.7937" gradientUnits="userSpaceOnUse">
<stop stop-color="#5163FF"/>
<stop offset="1" stop-color="#FE71B9"/>
</linearGradient>
<linearGradient id="paint36_linear_5568_668" x1="141.553" y1="48" x2="19.9536" y2="-30.7937" gradientUnits="userSpaceOnUse">
<stop stop-color="#5163FF"/>
<stop offset="1" stop-color="#FE71B9"/>
</linearGradient>
<linearGradient id="paint37_linear_5568_668" x1="141.553" y1="48" x2="19.9536" y2="-30.7937" gradientUnits="userSpaceOnUse">
<stop stop-color="#5163FF"/>
<stop offset="1" stop-color="#FE71B9"/>
</linearGradient>
<linearGradient id="paint38_linear_5568_668" x1="141.553" y1="48" x2="19.9536" y2="-30.7937" gradientUnits="userSpaceOnUse">
<stop stop-color="#5163FF"/>
<stop offset="1" stop-color="#FE71B9"/>
</linearGradient>
<linearGradient id="paint39_linear_5568_668" x1="141.553" y1="48" x2="19.9536" y2="-30.7937" gradientUnits="userSpaceOnUse">
<stop stop-color="#5163FF"/>
<stop offset="1" stop-color="#FE71B9"/>
</linearGradient>
</defs>
</svg>
