<svg width="120" height="685" viewBox="0 0 120 685" fill="none" xmlns="http://www.w3.org/2000/svg">
<g opacity="0.06" clip-path="url(#clip0_6424_2566)">
<path d="M101.855 13.1699L101.855 123.583L0.967442 227.618C2.16482 361.148 2.96153 495.08 4.15657 628.61L36.8563 661.296L36.458 684.414L40.4462 684.414L40.8445 659.701L8.14474 627.015L4.95562 229.213L105.846 125.178L105.846 13.1699L101.858 13.1699L101.855 13.1699Z" fill="#5163FF"/>
<path d="M87.8988 31.9052L88.2971 120.395L2.95901 206.092L4.55477 207.687L91.0879 121.589L90.2912 31.9052L87.8988 31.9052Z" fill="#5163FF"/>
<path d="M124.983 159.457L124.186 504.248L89.8927 540.52L89.8927 631.401L73.544 646.946L50.8147 646.946L23.6988 617.052L22.5014 239.18L109.831 151.887L124.985 159.46L124.983 159.457ZM130.567 505.443L130.965 155.869L108.634 144.31C77.9282 175.003 46.8242 205.695 16.1185 236.388C16.5168 364.34 16.9152 491.89 17.3159 619.444C27.6846 630.605 38.0511 641.765 48.0215 652.926L75.9364 653.324L95.875 634.191L95.875 542.911L130.567 506.64L130.567 505.443Z" fill="#5163FF"/>
<path d="M114.215 174.604L31.6699 253.926L30.8732 242.765L113.816 165.436L114.215 174.604Z" fill="#5163FF"/>
<path d="M114.215 196.526L31.6699 275.848L30.8732 264.687L113.816 187.358L114.215 196.526Z" fill="#5163FF"/>
<path d="M114.215 218.846L31.6699 298.168L30.8732 286.609L113.816 209.678L114.215 218.846Z" fill="#5163FF"/>
<path d="M103.521 0.463287C108.548 -0.1555 113.126 3.41653 113.745 8.44165C114.364 13.4668 110.79 18.0421 105.763 18.6608C100.736 19.2796 96.1583 15.7076 95.5393 10.6825C94.9202 5.65736 98.4937 1.08207 103.521 0.463287Z" fill="#5163FF"/>
<path d="M89.4651 31.1366C92.3179 30.9007 94.822 33.0211 95.058 35.8728C95.2941 38.7244 93.1728 41.2274 90.3199 41.4634C87.467 41.6993 84.9629 39.5789 84.7269 36.7273C84.4908 33.8756 86.6122 31.3726 89.4651 31.1366Z" fill="#5163FF"/>
</g>
<defs>
<clipPath id="clip0_6424_2566">
<rect width="684" height="130" fill="white" transform="matrix(4.37114e-08 -1 -1 -4.37114e-08 130.965 684.414)"/>
</clipPath>
</defs>
</svg>
