<svg width="112" height="73" viewBox="0 0 112 73" fill="none" xmlns="http://www.w3.org/2000/svg">
<g opacity="0.5">
<path d="M19.6015 56.8147H15.54C15.4242 56.1385 15.2106 55.5396 14.8993 55.0177C14.588 54.4886 14.2007 54.0402 13.7373 53.6728C13.274 53.3053 12.7455 53.0297 12.1518 52.8459C11.5654 52.6548 10.932 52.5593 10.2514 52.5593C9.04239 52.5593 7.97091 52.868 7.03699 53.4853C6.10307 54.0954 5.37186 54.992 4.84336 56.1753C4.31486 57.3512 4.05061 58.7881 4.05061 60.4858C4.05061 62.213 4.31486 63.6682 4.84336 64.8514C5.3791 66.0274 6.11031 66.9167 7.03699 67.5193C7.97091 68.1147 9.03877 68.4123 10.2406 68.4123C10.9066 68.4123 11.5292 68.3241 12.1084 68.1477C12.6948 67.964 13.2197 67.6957 13.683 67.343C14.1536 66.9902 14.5482 66.5565 14.8667 66.0421C15.1925 65.5276 15.4169 64.9396 15.54 64.2782L19.6015 64.3002C19.4495 65.3733 19.1201 66.3802 18.6133 67.3209C18.1137 68.2616 17.4585 69.0921 16.6477 69.8124C15.8368 70.5253 14.8884 71.0839 13.8025 71.4881C12.7165 71.885 11.5111 72.0834 10.1863 72.0834C8.23154 72.0834 6.48677 71.6241 4.95196 70.7054C3.41714 69.7867 2.20811 68.4601 1.32487 66.7256C0.441622 64.9911 0 62.9112 0 60.4858C0 58.0531 0.445242 55.9732 1.33572 54.246C2.22621 52.5115 3.43886 51.1849 4.97368 50.2662C6.50849 49.3475 8.24602 48.8882 10.1863 48.8882C11.4243 48.8882 12.5754 49.0646 13.6396 49.4174C14.7038 49.7701 15.6522 50.2883 16.4848 50.9718C17.3174 51.648 18.0015 52.4785 18.5373 53.4633C19.0802 54.4408 19.435 55.5579 19.6015 56.8147Z" fill="#00234B"/>
<path d="M30.3932 72.1055C28.7642 72.1055 27.3525 71.7417 26.1579 71.0141C24.9634 70.2865 24.0367 69.2685 23.3779 67.9603C22.7263 66.6521 22.4005 65.1234 22.4005 63.3742C22.4005 61.625 22.7263 60.0926 23.3779 58.777C24.0367 57.4615 24.9634 56.4399 26.1579 55.7123C27.3525 54.9847 28.7642 54.6209 30.3932 54.6209C32.0221 54.6209 33.4338 54.9847 34.6284 55.7123C35.823 56.4399 36.746 57.4615 37.3976 58.777C38.0564 60.0926 38.3858 61.625 38.3858 63.3742C38.3858 65.1234 38.0564 66.6521 37.3976 67.9603C36.746 69.2685 35.823 70.2865 34.6284 71.0141C33.4338 71.7417 32.0221 72.1055 30.3932 72.1055ZM30.4149 68.9084C31.2981 68.9084 32.0366 68.6622 32.6302 68.1698C33.2239 67.67 33.6655 67.0012 33.9551 66.1633C34.2519 65.3255 34.4003 64.3921 34.4003 63.3632C34.4003 62.3269 34.2519 61.3898 33.9551 60.552C33.6655 59.7068 33.2239 59.0343 32.6302 58.5345C32.0366 58.0347 31.2981 57.7848 30.4149 57.7848C29.5099 57.7848 28.757 58.0347 28.1561 58.5345C27.5624 59.0343 27.1172 59.7068 26.8204 60.552C26.5308 61.3898 26.386 62.3269 26.386 63.3632C26.386 64.3921 26.5308 65.3255 26.8204 66.1633C27.1172 67.0012 27.5624 67.67 28.1561 68.1698C28.757 68.6622 29.5099 68.9084 30.4149 68.9084Z" fill="#00234B"/>
<path d="M41.7224 71.7747V54.8413H45.5341V57.6636H45.7079C46.0119 56.6861 46.5332 55.9328 47.2716 55.4036C48.0173 54.8671 48.868 54.5988 49.8236 54.5988C50.0408 54.5988 50.2834 54.6098 50.5512 54.6319C50.8263 54.6466 51.0544 54.6723 51.2354 54.7091V58.3802C51.0689 58.3214 50.8046 58.2699 50.4426 58.2258C50.0879 58.1744 49.744 58.1486 49.411 58.1486C48.6942 58.1486 48.0499 58.3067 47.478 58.6227C46.9133 58.9314 46.468 59.3613 46.1422 59.9125C45.8165 60.4638 45.6536 61.0995 45.6536 61.8198V71.7747H41.7224Z" fill="#00234B"/>
<path d="M60.5447 72.1055C58.8724 72.1055 57.428 71.7527 56.2118 71.0471C55.0027 70.3342 54.0724 69.3273 53.4209 68.0265C52.7693 66.7182 52.4435 65.1785 52.4435 63.4073C52.4435 61.6654 52.7693 60.1367 53.4209 58.8211C54.0797 57.4982 54.9991 56.4693 56.1792 55.7343C57.3593 54.992 58.7457 54.6209 60.3384 54.6209C61.3664 54.6209 62.3366 54.7899 63.2488 55.128C64.1682 55.4587 64.979 55.9732 65.6813 56.6714C66.3908 57.3696 66.9482 58.2589 67.3537 59.3393C67.7591 60.4123 67.9618 61.6911 67.9618 63.1757V64.3995H54.2896V61.7095H64.1935C64.1863 60.9452 64.0234 60.2653 63.7049 59.67C63.3863 59.0673 62.9411 58.5933 62.3691 58.2479C61.8044 57.9024 61.1456 57.7297 60.3927 57.7297C59.5891 57.7297 58.8832 57.9282 58.2751 58.325C57.6669 58.7146 57.1927 59.229 56.8525 59.8684C56.5195 60.5005 56.3493 61.195 56.3421 61.952V64.3002C56.3421 65.2851 56.5195 66.1303 56.8742 66.8358C57.2289 67.534 57.7249 68.0706 58.362 68.4454C58.999 68.8129 59.7447 68.9966 60.599 68.9966C61.171 68.9966 61.6886 68.9158 62.1519 68.7541C62.6153 68.585 63.0171 68.3388 63.3573 68.0154C63.6976 67.6921 63.9546 67.2915 64.1284 66.8138L67.7989 67.2327C67.5672 68.2176 67.1256 69.0774 66.474 69.8124C65.8297 70.54 65.0044 71.1059 63.9981 71.5102C62.9917 71.907 61.8406 72.1055 60.5447 72.1055Z" fill="#00234B"/>
<path d="M71.4613 71.7747V49.1969H75.3924V57.6415H75.5553C75.7581 57.23 76.044 56.7927 76.4132 56.3296C76.7825 55.8593 77.282 55.4587 77.9119 55.128C78.5417 54.7899 79.3453 54.6209 80.3227 54.6209C81.6114 54.6209 82.7733 54.9553 83.8086 55.6241C84.8511 56.2855 85.6764 57.2667 86.2846 58.5676C86.8999 59.8611 87.2076 61.4486 87.2076 63.3301C87.2076 65.1895 86.9072 66.7697 86.3063 68.0706C85.7054 69.3714 84.8873 70.3636 83.852 71.0471C82.8168 71.7306 81.6439 72.0724 80.3335 72.0724C79.3779 72.0724 78.5852 71.9107 77.9553 71.5873C77.3254 71.2639 76.8187 70.8744 76.435 70.4187C76.0585 69.9557 75.7653 69.5184 75.5553 69.1068H75.3273V71.7747H71.4613ZM75.3164 63.308C75.3164 64.4031 75.4685 65.3622 75.7725 66.1854C76.0838 67.0085 76.5291 67.6516 77.1083 68.1147C77.6947 68.5703 78.4042 68.7982 79.2367 68.7982C80.1055 68.7982 80.8331 68.563 81.4195 68.0926C82.0059 67.6149 82.4475 66.9644 82.7444 66.1413C83.0484 65.3108 83.2005 64.3664 83.2005 63.308C83.2005 62.2571 83.0521 61.3237 82.7552 60.5079C82.4584 59.6921 82.0168 59.0526 81.4304 58.5896C80.8439 58.1266 80.1127 57.8951 79.2367 57.8951C78.3969 57.8951 77.6838 58.1192 77.0974 58.5676C76.511 59.0159 76.0657 59.6443 75.7617 60.4527C75.4648 61.2612 75.3164 62.213 75.3164 63.308Z" fill="#00234B"/>
<path d="M90.5497 71.7747V54.8413H94.4808V71.7747H90.5497ZM92.5261 52.438C91.9035 52.438 91.3678 52.2286 90.9189 51.8096C90.47 51.3834 90.2456 50.8726 90.2456 50.2773C90.2456 49.6746 90.47 49.1638 90.9189 48.7449C91.3678 48.3186 91.9035 48.1055 92.5261 48.1055C93.156 48.1055 93.6917 48.3186 94.1333 48.7449C94.5822 49.1638 94.8066 49.6746 94.8066 50.2773C94.8066 50.8726 94.5822 51.3834 94.1333 51.8096C93.6917 52.2286 93.156 52.438 92.5261 52.438Z" fill="#00234B"/>
<path d="M98.3061 71.7747V69.2391L106.907 58.292V58.1486H98.5884V54.8413H111.718V57.5644L103.53 68.3241V68.4674H112V71.7747H98.3061Z" fill="#00234B"/>
</g>
<path fill-rule="evenodd" clip-rule="evenodd" d="M56 28.7885L47.6534 33.107H36L40.8337 25.0977L71.1569 25.0977L76 33.107H64.3466L56 28.7885Z" fill="#00234B"/>
<path fill-rule="evenodd" clip-rule="evenodd" d="M69.2457 21.9298L55.9998 28.7869L42.7539 21.9298L55.9998 0L69.2457 21.9298ZM60.0186 19.3255L55.9998 12.6745L51.9811 19.3255L55.9998 21.4052L60.0186 19.3255Z" fill="#00234B"/>
</svg>
