<svg width="165" height="61" viewBox="0 0 165 61" fill="none" xmlns="http://www.w3.org/2000/svg">
<path opacity="0.2" d="M0.333333 58C0.333333 59.4728 1.52724 60.6667 3 60.6667C4.47276 60.6667 5.66667 59.4728 5.66667 58C5.66667 56.5272 4.47276 55.3333 3 55.3333C1.52724 55.3333 0.333333 56.5272 0.333333 58ZM55.2702 3V2.5H55.0556L54.9078 2.65556L55.2702 3ZM164.887 3L162 0.113249L159.113 3L162 5.88675L164.887 3ZM3 58L3.36243 58.3444L4.81438 56.8167L4.45195 56.4722L4.08952 56.1278L2.63757 57.6556L3 58ZM7.35585 53.4167L7.71829 53.7611L10.6222 50.7056L10.2598 50.3611L9.89732 50.0167L6.99342 53.0722L7.35585 53.4167ZM13.1637 47.3056L13.5261 47.65L16.43 44.5944L16.0676 44.25L15.7051 43.9056L12.8012 46.9611L13.1637 47.3056ZM18.9715 41.1944L19.3339 41.5389L22.2378 38.4833L21.8754 38.1389L21.5129 37.7944L18.609 40.85L18.9715 41.1944ZM24.7793 35.0833L25.1417 35.4278L28.0456 32.3722L27.6832 32.0278L27.3207 31.6833L24.4168 34.7389L24.7793 35.0833ZM30.5871 28.9722L30.9495 29.3167L33.8534 26.2611L33.491 25.9167L33.1285 25.5722L30.2246 28.6278L30.5871 28.9722ZM36.3949 22.8611L36.7573 23.2056L39.6612 20.15L39.2988 19.8056L38.9363 19.4611L36.0324 22.5167L36.3949 22.8611ZM42.2027 16.75L42.5651 17.0944L45.469 14.0389L45.1066 13.6944L44.7441 13.35L41.8402 16.4056L42.2027 16.75ZM48.0105 10.6389L48.3729 10.9833L51.2768 7.92778L50.9144 7.58334L50.5519 7.23889L47.648 10.2944L48.0105 10.6389ZM53.8183 4.52778L54.1807 4.87222L55.6327 3.34444L55.2702 3L54.9078 2.65556L53.4558 4.18333L53.8183 4.52778ZM55.2702 3V3.5H57.3227V3V2.5H55.2702V3ZM61.4277 3V3.5H65.5327V3V2.5H61.4277V3ZM69.6377 3V3.5H73.7427V3V2.5H69.6377V3ZM77.8477 3V3.5H81.9527V3V2.5H77.8477V3ZM86.0577 3V3.5H90.1627V3V2.5H86.0577V3ZM94.2676 3V3.5H98.3726V3V2.5H94.2676V3ZM102.478 3V3.5H106.583V3V2.5H102.478V3ZM110.688 3V3.5H114.793V3V2.5H110.688V3ZM118.898 3V3.5H123.003V3V2.5H118.898V3ZM127.108 3V3.5H131.213V3V2.5H127.108V3ZM135.318 3V3.5H139.423V3V2.5H135.318V3ZM143.528 3V3.5H147.633V3V2.5H143.528V3ZM151.738 3V3.5H155.842V3V2.5H151.738V3ZM159.947 3V3.5H162V3V2.5H159.947V3Z" fill="#00234B"/>
</svg>
