<svg width="30" height="32" viewBox="0 0 30 32" fill="none" xmlns="http://www.w3.org/2000/svg">
<path d="M3.96672 26.2335C3.96672 26.3236 3.78643 26.2335 3.8508 26.1047C8.44367 18.3004 13.6079 10.8466 19.3012 3.80469L21.6445 5.6716C16.2466 12.9358 10.3391 19.8071 3.96672 26.2335Z" fill="#FE71B9"/>
<path d="M29.9998 28.8722L29.4977 26.5547C26.9743 26.7417 24.4789 27.2037 22.0558 27.9323C18.1129 28.7423 14.2219 29.787 10.4036 31.061C10.3392 31.061 10.4036 31.1898 10.4036 31.1898C14.4464 31.0907 18.4795 30.7467 22.4807 30.1598C25.0287 30.0253 27.5522 29.5932 29.9998 28.8722Z" fill="#FE71B9"/>
<path d="M5.4849 0.971763L3.21883 0.546875C2.44379 2.85328 1.91724 5.23583 1.64808 7.65404C0.879129 11.4822 0.328853 15.3511 0 19.2418C0.00600935 19.2556 0.0159474 19.2673 0.0285262 19.2756C0.0411051 19.2838 0.0557684 19.2882 0.0708048 19.2882C0.0858412 19.2882 0.100583 19.2838 0.113162 19.2756C0.125741 19.2673 0.135679 19.2556 0.141688 19.2418C1.56 15.6005 2.77213 11.8822 3.77246 8.10468C4.64657 5.81024 5.22212 3.41296 5.4849 0.971763Z" fill="#FE71B9"/>
</svg>
