<svg width="246" height="249" viewBox="0 0 246 249" fill="none" xmlns="http://www.w3.org/2000/svg">
<path opacity="0.1" d="M123 0L126.296 92.9264L148.714 2.72062L132.746 94.3064L173.305 10.7636L138.769 97.0059L195.697 23.7774L144.103 100.907L214.91 41.1932L148.515 105.839L230.109 62.25L151.811 111.587L240.625 86.0274L153.849 117.899L246 111.486L154.538 124.5L246 137.514L153.849 131.101L240.625 162.973L151.811 137.413L230.109 186.75L148.515 143.161L214.91 207.807L144.103 148.093L195.697 225.223L138.769 151.995L173.305 238.237L132.746 154.694L148.714 246.28L126.296 156.073L123 249L119.703 156.073L97.286 246.28L113.254 154.694L72.6958 238.237L107.231 151.995L50.3043 225.223L101.897 148.093L31.0897 207.807L97.4855 143.161L15.8922 186.75L94.1889 137.413L5.37569 162.973L92.1514 131.101L0 137.514L91.4623 124.5L0 111.486L92.1514 117.899L5.37569 86.0274L94.1889 111.587L15.8922 62.25L97.4855 105.839L31.0897 41.1932L101.897 100.907L50.3043 23.7774L107.231 97.0059L72.6958 10.7636L113.254 94.3064L97.286 2.72062L119.703 92.9264L123 0Z" fill="#5163FF"/>
</svg>
